<svg width="191" height="170" viewBox="0 0 191 170" fill="none" xmlns="http://www.w3.org/2000/svg">
<path fill-rule="evenodd" clip-rule="evenodd" d="M95 170C141.944 170 180 131.944 180 85C180 82.8018 179.917 80.6231 179.753 78.4669C178.873 76.6044 175.847 70.5 174 70.5C170.505 70.5 166.5 78 166.5 78C166.5 78 166 84 165 85.5C162.708 88.9375 161.456 85.3469 159.794 80.5842C158.259 76.1837 156.375 70.7828 153 69C150.572 67.7178 148.395 67.8631 146.151 68.0129C144.218 68.142 142.235 68.2744 140 67.5C138.855 67.1032 137.711 66.0313 136.672 65.0563C135.089 63.5723 133.745 62.3129 133 64C131.827 66.6551 138.5 69 138.5 69C138.5 69 143.5 71 143.5 73C143.5 75 133.5 83.5 130 82C128.232 81.2423 125.953 77.4223 123.809 73.8273C121.709 70.3057 119.737 67 118.5 67C116 67 118.456 77.5493 123 82C124.914 83.8751 127.864 84.3584 130.43 84.7786C132.898 85.183 135.01 85.529 135.5 87C136.464 89.8919 133.246 94.1775 128.983 99.857L128.5 100.5C125.86 106.839 124.804 111.432 129.5 117.5L123 122.5V127.5L120.5 130.5C120.5 130.5 114.25 141.633 108.5 140C103.675 138.63 102.809 131.602 102.321 127.643C102.265 127.188 102.214 126.774 102.162 126.413C102.085 125.873 101.691 125.196 101.227 124.4C100.522 123.19 99.6555 121.703 99.5 120C99.0958 115.574 100.662 110.413 100.662 110.413C97.0902 104.243 96.1259 101.674 96 97C96 97 92.6171 93.8847 90 94C88.3333 94.0734 86 95.5 86 95.5C86 95.5 83.987 94 82.5 94C81.0129 94 79 95.5 79 95.5C79 95.5 70.2678 90.8315 69.5 85.5C69.1925 83.3653 70 80 70 80C70 80 68.3704 75.2094 69.5 72.5C70.1676 70.8987 71.3757 70.2514 72.6582 69.5643C73.6304 69.0434 74.6453 68.4997 75.5 67.5C76.2235 66.6537 76.6011 65.7825 76.9642 64.9446C77.4314 63.8667 77.8747 62.844 79 62C81 60.5 93.5 57.5 94.5 58.5C94.7624 58.7625 95.0511 59.1842 95.3814 59.6669L95.3815 59.667C96.3098 61.0233 97.5675 62.8611 99.5 63C100.768 63.0911 101.551 62.4609 102.394 61.7832C102.999 61.2968 103.634 60.786 104.5 60.5C106.938 59.6951 109.016 60.2654 111.083 60.8328C113.264 61.4315 115.433 62.0268 118 61C119.893 60.2429 118.919 58.2633 118 57C117.314 56.0561 116.33 56.3917 115.26 56.7571C114.36 57.0642 113.399 57.3924 112.5 57C111.427 56.5317 110.91 55.0636 110.463 53.7948C109.955 52.3534 109.538 51.1692 108.5 52C107.814 52.549 108.043 53.4115 108.269 54.2657C108.499 55.1302 108.726 55.9862 108 56.5C106.884 57.2897 105.773 56.9978 104.5 56.5C103.082 55.9455 103.103 54.5671 103.124 53.1028C103.144 51.7951 103.164 50.4189 102.162 49.5C100.569 48.039 99.0044 46.6899 97 47.5C94.2688 48.6039 102.162 53 102.162 53C101.992 54.8687 101.278 56.4006 99.5 57C98.1916 57.4411 96.7412 57.6649 96 56.5C95.505 55.7223 96.6375 55.4193 97.6895 55.1379C98.6918 54.8697 99.621 54.6211 99 54C98.8024 53.8024 98.6008 53.5948 98.3932 53.3812L98.3925 53.3804C97.0247 51.9721 95.4011 50.3004 93 49.5C91.5 49 88.5 49.5 88.5 52C88.5 53.5251 86 55 86 55L82.5 58.5C82.5 58.5 77.9637 58.9212 76.5 57C75.285 55.4054 75.783 53.6113 76.2654 51.8738C76.3468 51.5805 76.4277 51.2888 76.5 51C76.8821 49.4712 78.5809 49.6659 80.2593 49.8582C81.5585 50.007 82.8454 50.1545 83.5 49.5C84.1991 48.8009 83.5185 47.8955 82.8281 46.9769C82.1755 46.1088 81.5141 45.2288 82 44.5C83.1435 42.7847 90 38 93.5 37.5C95.0105 37.2842 95.7709 37.6825 96.4409 38.0334C97.2285 38.4458 97.8911 38.7928 99.5 38C100.92 37.3005 101.516 36.1462 102.122 34.9719C102.684 33.8831 103.255 32.777 104.5 32C105.008 31.683 105.627 31.6146 106.205 31.5509C107.063 31.4562 107.828 31.3717 108 30.5C108.176 29.6044 107.286 29.7368 106.228 29.8938C105.2 30.0466 104.015 30.2227 103.5 29.5C103.063 28.8868 103.335 28.156 103.596 27.4571C103.876 26.706 104.142 25.9919 103.5 25.5C102.285 24.5696 100.998 25.6936 99.8163 26.7252C99.7099 26.8181 99.6045 26.9102 99.5 27C98.4048 27.9412 98.7157 29.7477 98.9918 31.3521C99.2868 33.0663 99.5421 34.5498 98 34.5C97.1316 34.472 96.6678 33.882 96.1934 33.2786C95.7506 32.7154 95.2986 32.1405 94.5 32C93.6262 31.8463 92.9494 32.3473 92.2934 32.8329C91.5798 33.3612 90.8909 33.8712 90 33.5C87.9449 32.6437 87.5543 30.0155 88.5 28C89.0159 26.9004 89.9482 26.6354 90.9697 26.345C91.6389 26.1548 92.3463 25.9537 93 25.5C94.2923 24.6029 95.0496 23.4716 95.7777 22.3837C96.7111 20.9892 97.5965 19.6662 99.5 19C102.08 18.0969 106.5 19 106.5 19C106.5 19 114.307 18.2325 114.5 21.5C114.55 22.3526 114.004 22.9159 113.467 23.4705C112.905 24.0499 112.353 24.6198 112.5 25.5C112.735 26.9116 113.579 25.8736 114.703 24.4905C115.665 23.3067 116.832 21.8702 118 21.5C118.483 21.3469 118.921 21.355 119.341 21.3628C119.905 21.3733 120.437 21.3832 121 21C122.034 20.296 121.652 19.2238 121.238 18.0618C120.876 17.0478 120.49 15.9655 121 15C122.703 11.7744 130.151 8.85532 130 12.5C129.956 13.5692 128.992 14.1592 128.077 14.7196C127.088 15.3252 126.156 15.8962 126.5 17C127.126 19.0076 129.605 19.9116 131.5 19C132.305 18.6127 132.425 17.8207 132.547 17.0137C132.663 16.2433 132.781 15.4592 133.5 15C134.849 14.1382 135.772 15.7726 136.709 17.4305C137.646 19.0896 138.596 20.7721 140 20C142.282 18.7443 142.5 15 141.5 14C141.421 13.9213 141.457 13.8859 141.596 13.8984C128.215 5.11136 112.204 0 95 0C79.4469 0 64.8695 4.17725 52.3284 11.471C53.788 11.346 55.441 11.2521 57.1645 11.1541C61.9408 10.8827 67.2583 10.5806 70.5 9.50002C75 8.00003 79.9999 9.00002 79.4999 11C79.2164 12.1343 78.2278 12.6428 77.0953 13.2254C76.2309 13.6701 75.2826 14.1579 74.4999 15C73.5576 16.014 73.215 17.2172 72.8877 18.367C72.4705 19.8324 72.078 21.211 70.5 22C68.1403 23.1798 66.2422 23.7817 64.415 24.3611C62.3705 25.0095 60.4146 25.6297 58 27C56.5983 27.7955 55.3695 29.0691 54.1974 30.284C52.0179 32.543 50.0345 34.5989 47.4999 33C46.6191 32.4443 46.3679 31.8623 46.0518 31.1299L46.0518 31.1299C45.905 30.7898 45.7442 30.4173 45.4999 30C44.3688 28.0676 45.4598 25.7702 46.4169 23.7545C47.463 21.5516 48.3493 19.6852 46 19C44.3887 18.5301 43.6291 19.1929 42.5691 20.118C42.2503 20.3962 41.9044 20.6981 41.4999 21C41.375 21.0932 41.2511 21.1845 41.1291 21.2743L41.129 21.2744C39.6774 22.3431 38.4905 23.2169 39 25C39.1798 25.6295 39.5411 25.8016 39.8644 25.9556C40.2228 26.1264 40.5345 26.2748 40.5 27C40.4556 27.9322 39.5563 27.7939 38.5406 27.6377C37.5969 27.4925 36.5526 27.3319 36 28C35.5014 28.6028 35.6317 29.3024 35.7614 29.9987C35.8927 30.7038 36.0233 31.4056 35.5 32C34.7297 32.8749 33.6108 32.4835 32.5631 32.117C31.4756 31.7366 30.4648 31.383 29.9999 32.5C29.3589 34.0403 29.4073 34.5034 31 35C31.596 35.1859 32.05 34.8516 32.508 34.5144C32.9559 34.1846 33.4076 33.8519 34 34C34.988 34.247 35.1392 35.0975 35.3062 36.0369C35.4256 36.7084 35.553 37.4254 36 38C36.3122 38.4015 36.6343 38.6604 36.9493 38.9135C37.3183 39.2101 37.6775 39.4988 38 40C38.8919 41.3865 38.9303 42.4988 38.984 44.0579L38.9841 44.0583L38.9841 44.0587C38.989 44.2019 38.9941 44.3488 39 44.5C39.0222 45.0719 39.1358 45.6578 39.2464 46.2278C39.5576 47.8322 39.8446 49.3111 38 50C36.4371 50.5837 34 48.5 34 48.5L33.5 45C33.5 45 30.2944 44.8878 29.5 46C28.9325 46.7945 29.5 48.5 29.5 48.5C29.5 48.5 33.3333 49.0416 32.5 50.5C31.1874 52.7969 28.3937 53.345 26.3283 53.7502L26.3283 53.7502C25.2465 53.9624 24.3645 54.1354 24 54.5C23.427 55.0729 22.9827 55.5046 22.6033 55.8733L22.6033 55.8734L22.6031 55.8735C21.9893 56.47 21.545 56.9016 21 57.5C20.2941 58.2749 19.7683 58.2585 19.2461 58.2422C18.7205 58.2258 18.1984 58.2095 17.4999 59C16.8571 59.7275 16.7067 60.4574 16.5465 61.2346C16.4314 61.793 16.3113 62.3759 15.9999 63C15.3585 64.2858 14.6514 64.7224 13.8902 65.1925C13.2728 65.5738 12.6197 65.9771 11.937 66.8732C10.6683 72.7141 10 78.779 10 85C10 87.0113 10.0699 89.0064 10.2073 90.9828C11.047 90.7864 18.8805 88.9879 22 89.5C24.3438 89.8848 25.0566 90.801 25.8815 91.8614C26.5454 92.7148 27.282 93.6617 29 94.5C30.0322 95.0037 30.9956 95.2541 31.9112 95.4921C33.3665 95.8703 34.7012 96.2171 36 97.5C36.9425 98.431 36.9857 99.2097 37.0294 99.9995C37.0722 100.772 37.1156 101.554 38 102.5C39.8301 104.457 41.716 104.556 43.8237 104.665C45.2616 104.74 46.8028 104.82 48.5 105.5C49.8805 106.053 52.4497 107.447 53.5 108.5C54.9808 109.984 54.0078 112.542 53.0702 115.007C52.5998 116.244 52.1383 117.457 51.9999 118.5C51.8411 119.697 51.7914 120.706 51.7463 121.62V121.62C51.6368 123.842 51.5546 125.511 50 128C49.0913 129.454 48.0351 129.832 46.9928 130.205C45.9221 130.588 44.8662 130.966 44 132.5C42.9883 134.291 43.2402 136.274 43.4924 138.259C43.7433 140.234 43.9944 142.21 42.9999 144C40.5 148.5 37.5 147.5 37.5 147.5C37.5 147.5 37.2789 147.341 36.8764 147.022C52.0772 161.273 72.5194 170 95 170ZM82 37C82.3041 36.2389 81.8749 35.3779 81.4863 34.5984C81.0366 33.6961 80.6413 32.903 81.5 32.5C82.6311 31.9692 83.1436 33.1482 83.6939 34.4142C83.9365 34.9722 84.1864 35.5472 84.5 36C84.6955 36.2825 84.9017 36.5188 85.0967 36.7423L85.0968 36.7423C85.5479 37.2593 85.939 37.7074 86 38.5C86.138 40.2949 83 42 83 42C83 42 80.7194 43.1622 80 42C79.3499 40.95 81 39.5 81 39.5C81 39.5 81.6376 37.9066 82 37ZM78.5 36.5C76.9912 36.2779 74.7189 38.0237 75.5 39L77.5 41.5C78.0218 42.1523 78.272 41.5414 78.5435 40.8783L78.5436 40.8782C78.6785 40.5489 78.8186 40.2067 79 40C79.6439 39.2662 80.5 38 80.5 38C80.5 38 79.4659 36.6422 78.5 36.5ZM166.039 87.0104L166.039 87.0097C166.102 86.0867 166.177 85 167 85C167.976 85 168.899 86.5289 169 87.5C169.117 88.6325 167.139 90 166 90C165.234 90 165.445 89.3814 165.702 88.6317C165.826 88.2668 165.962 87.8708 166 87.5C166.016 87.348 166.027 87.1824 166.039 87.0111L166.039 87.0104ZM133.715 113.476C133.27 114.405 132.691 115.61 131.5 117C129.441 119.402 129.502 119.449 130.065 119.889C130.323 120.09 130.686 120.373 131 121C131.407 121.813 131.221 122.968 131.031 124.148C130.755 125.869 130.469 127.645 132 128.5C134.809 130.068 135.845 125.523 136.656 121.965C136.774 121.448 136.887 120.953 137 120.5C137.133 119.968 137.297 119.392 137.466 118.799L137.466 118.799C138.383 115.586 139.451 111.843 136.5 111.5C134.761 111.298 134.392 112.067 133.715 113.476ZM13.0817 77.3725C13.2343 77.7779 13.4041 78.2291 13.9999 78.5C14.7658 78.8481 15.8568 78.7343 16.8278 78.633C18.1553 78.4945 19.2586 78.3794 19 79.5C18.8416 80.186 18.5423 80.5511 17.9999 81C16.7965 81.9959 15.4317 81.6248 13.9999 81C12.0641 80.1553 9.88787 76.5 11.9999 76.5C12.7534 76.5 12.9062 76.9059 13.0817 77.3725Z" fill="#173753"/>
<path d="M98.0118 67.4886C97.8218 67.658 97.724 67.7496 97.724 67.7496C97.724 67.7496 97.8087 67.6551 98.0118 67.4886C100.406 65.3538 117.437 50.8675 137.885 51.6854C154.618 52.3547 165.328 58.3788 165.328 58.3788L168.005 47L190.763 81.1365L159.973 77.7897L162.65 67.7496C162.65 67.7496 147.255 61.0562 135.877 61.0562C107.541 61.0562 99.5183 66.2535 98.0118 67.4886Z" fill="#7AE582"/>
<path d="M97.985 74.0615C97.8156 73.8715 97.724 73.7737 97.724 73.7737C97.724 73.7737 97.8185 73.8583 97.985 74.0615C100.12 76.4554 114.606 93.4864 113.788 113.934C113.119 130.668 107.095 141.377 107.095 141.377L118.474 144.055L84.3371 166.812L87.6838 136.023L97.724 138.7C97.724 138.7 104.417 123.305 104.417 111.926C104.417 83.5907 99.2201 75.568 97.985 74.0615Z" fill="#7AE582"/>
<path d="M92.7508 71.3574C92.9408 71.188 93.0386 71.0963 93.0386 71.0963C93.0386 71.0963 92.9539 71.1908 92.7508 71.3574C90.3568 73.4921 73.3259 87.9785 52.878 87.1605C36.1445 86.4912 25.435 80.4671 25.435 80.4671L22.7576 91.8459L-1.99039e-05 57.7095L30.7897 61.0562L28.1124 71.0963C28.1124 71.0963 43.5072 77.7898 54.8861 77.7898C83.2216 77.7898 91.2443 72.5925 92.7508 71.3574Z" fill="#7AE582"/>
</svg>
