<svg width="421" height="145" viewBox="0 0 421 145" fill="none" xmlns="http://www.w3.org/2000/svg">
<path d="M45.8159 22C54.1129 22 61.8334 24.4666 68.2866 28.7041C68.2209 28.6985 68.2041 28.7143 68.2417 28.752C68.724 29.2342 68.6189 31.0399 67.5181 31.6455C66.1651 32.3892 65.6847 28.4028 64.3833 29.2344C63.6742 29.688 64.1779 30.7979 63.4194 31.1631C62.5054 31.6027 61.3094 31.1664 61.0073 30.1982C60.6884 29.1738 62.6515 29.1009 62.6958 28.0283C62.7683 26.2708 59.1765 27.6788 58.355 29.2344C57.8277 30.2336 59.2891 31.4922 58.355 32.1279C57.8816 32.4499 57.4545 32.1962 56.9087 32.3691C55.6877 32.7563 54.4669 35.5613 54.2563 34.2979C54.118 33.4672 55.2696 33.2098 55.2202 32.3691C55.1274 30.7933 51.3618 31.1631 51.3618 31.1631C51.3265 31.1559 49.2208 30.7315 47.9868 31.1631C46.3527 31.735 46.2733 33.3106 44.8511 34.2979C44.0546 34.8505 43.0929 34.6263 42.6812 35.5039C42.2252 36.4759 42.4137 37.7433 43.4048 38.1562C44.2293 38.4997 44.695 37.2781 45.5747 37.4326C46.3725 37.573 46.4535 38.6126 47.2632 38.6387C48.7025 38.6848 46.8944 35.9603 47.9868 35.0215C48.597 34.4971 49.2768 33.8088 49.9155 34.2979C50.5137 34.7558 49.4782 35.6141 49.9155 36.2275C50.4198 36.9338 52.2525 35.8579 52.0854 36.709C51.947 37.4126 51.0064 37.0532 50.3979 37.4326C49.1502 38.2114 49.3058 39.6759 47.9868 40.3262C46.5508 41.0338 46.6771 39.8586 45.0923 40.085C43.4043 40.3263 40.0982 42.6336 39.5464 43.4609C39.0641 44.1843 40.9258 45.2172 40.27 45.873C39.5465 46.596 37.2213 45.2883 36.894 46.5957C36.6529 47.5602 36.2095 48.5904 36.894 49.4893C37.5981 50.4133 39.7761 50.214 39.7876 50.2129L41.4761 48.5254C41.4947 48.5144 42.6812 47.8079 42.6812 47.0781C42.6813 45.8728 44.1276 45.6321 44.8511 45.873C46.185 46.3177 47.0222 47.3196 47.7456 48.043C48.3585 48.6566 45.8323 48.5167 46.2983 49.249C46.6559 49.8104 47.3559 49.7019 47.9868 49.4893C48.844 49.2001 49.188 48.4616 49.27 47.5605C49.2401 47.5439 45.4688 45.4385 46.7808 44.9082C47.7474 44.5175 48.5015 45.1684 49.27 45.873C50.2944 46.8124 49.1035 48.7428 50.3979 49.249C51.0116 49.489 51.5476 49.6295 52.0854 49.249C52.7815 48.7563 51.6608 47.6108 52.3267 47.0781C53.2684 46.3248 53.1511 49.0068 54.2563 49.4893C55.2056 49.9034 56.2994 48.6519 56.9087 49.4893C57.3518 50.0985 57.8213 51.0538 56.9087 51.4189C54.4974 52.3835 52.8139 50.3801 50.3979 51.1777C49.3984 51.5078 49.0366 52.4589 47.9868 52.3838C46.7231 52.2929 46.057 50.6952 45.5747 50.2129C45.0908 49.7313 39.0648 51.178 38.1001 51.9014C37.1355 52.6248 37.2095 53.6205 36.4116 54.5537C35.4558 55.6716 34.0841 55.6073 33.5181 56.9648C32.9733 58.2715 33.7593 60.582 33.7593 60.582C33.7582 60.5866 33.3701 62.2063 33.5181 63.2344C33.8884 65.8056 38.1001 68.0576 38.1001 68.0576C38.1108 68.0497 39.0744 67.334 39.7876 67.334C40.5048 67.334 41.4761 68.0576 41.4761 68.0576C41.492 68.0479 42.6067 67.3691 43.4048 67.334C44.6585 67.2788 46.2765 68.7602 46.2983 68.7803C46.3591 71.0344 46.8237 72.2741 48.5464 75.25C48.5352 75.2871 47.7934 77.7545 47.9868 79.873C48.1112 81.2342 49.1759 82.3085 49.27 82.9658C49.5111 84.6538 49.7327 88.7818 52.3267 89.5186C55.0996 90.306 58.1138 84.9365 58.1138 84.9365L59.3198 83.4902V81.0791L62.4546 78.667C60.1901 75.7405 60.6991 73.5258 61.9722 70.4688C64.1424 67.5751 65.8304 65.4048 65.3481 63.958C64.8659 62.5112 61.1312 63.321 59.3198 61.5469C57.1286 59.4004 55.9442 54.3125 57.1499 54.3125C58.3558 54.3138 61.008 60.8235 62.6958 61.5469C64.3839 62.2699 69.2065 58.1706 69.2065 57.2061C69.2065 56.249 66.8322 55.2921 66.7954 55.2773C66.7954 55.2773 63.5763 54.1457 64.1421 52.8652C64.7378 51.5174 66.1255 54.0709 67.5181 54.5537C69.8468 55.3606 71.6084 54.1264 73.7876 55.2773C77.1771 57.0677 77.4493 66.4239 79.5757 63.2344C80.0578 62.5105 80.2983 59.6172 80.2983 59.6172C80.3054 59.6039 82.2333 56.0004 83.9155 56C84.8082 56 86.269 58.9581 86.6899 59.8496C86.7686 60.8872 86.8091 61.9355 86.8091 62.9932C86.8091 85.6332 68.4559 103.986 45.8159 103.986C34.9671 103.986 25.1044 99.7705 17.772 92.8896C17.9757 93.0518 18.0854 93.1357 18.0854 93.1357C18.1041 93.1418 19.54 93.6034 20.7378 91.4473C21.699 89.7166 20.2467 87.6252 21.2202 85.9014C22.0446 84.4416 23.2255 85.1532 24.1138 83.7314C25.1722 82.0372 24.8158 81.1297 25.0786 79.1494C25.2785 77.6442 26.8737 75.4021 25.8013 74.3271C25.2947 73.8194 24.0559 73.1465 23.3901 72.8799C21.3721 72.0719 19.8113 73.0212 18.3267 71.4336C17.4638 70.5107 18.2607 69.9093 17.3618 69.0215C16.3414 68.0137 15.2748 68.2042 13.9858 67.5752C12.1278 66.6685 12.65 65.499 10.6099 65.1641C9.10743 64.9175 5.33801 65.7812 4.92432 65.8779C4.85807 64.925 4.82275 63.963 4.82275 62.9932C4.82277 59.992 5.14799 57.0668 5.76025 54.249C6.49448 53.2876 7.15667 53.5052 7.71631 52.3838C8.0755 51.6638 7.90718 51.057 8.43994 50.4541C9.11143 49.6943 9.44447 50.4802 10.1274 49.7305C10.5528 49.2635 10.8513 49.0076 11.5747 48.2842C12.0862 47.7726 14.7098 48.0425 15.6743 46.3545C16.0748 45.6521 14.2303 45.3911 14.2271 45.3906C14.2271 45.3906 13.9534 44.5677 14.2271 44.1846C14.6065 43.6534 16.1264 43.7012 16.1558 43.7021L16.397 45.3906C16.397 45.3906 17.5729 46.3948 18.3267 46.1133C19.5318 45.6629 18.8499 44.5129 18.8091 43.4609C18.7754 42.5936 18.7963 42.021 18.3267 41.291C18.0385 40.843 17.6889 40.7467 17.3618 40.3262C16.8449 39.6613 17.214 38.6017 16.397 38.3975C15.8195 38.2534 15.519 39.0569 14.9507 38.8799C14.1826 38.6404 14.1591 38.4167 14.4683 37.6738C14.9085 36.6164 16.3636 38.2924 17.1206 37.4326C17.6222 36.8628 16.8782 36.0889 17.3618 35.5039C17.9152 34.8349 19.4904 35.8886 19.5317 35.0215C19.5634 34.3564 18.992 34.6969 18.8091 34.0566C18.5429 33.1246 19.2373 32.7078 20.0142 32.1279C20.8579 31.4981 21.1743 30.8683 22.1851 31.1631C24.354 31.7961 20.8022 34.5184 21.9438 36.4688C22.315 37.1031 22.2861 37.5228 22.9077 37.915C24.7874 39.1008 26.0392 36.1184 27.9722 35.0215C30.1773 33.7701 31.5892 33.816 34.0005 32.6104C35.3585 31.9313 34.8958 30.3466 35.9292 29.2344C36.8011 28.2961 38.0992 28.2692 38.3403 27.3047C38.581 26.3403 36.1706 25.8587 34.0005 26.582C31.873 27.2912 27.8917 27.3058 25.2368 27.5332C31.2851 24.0155 38.315 22 45.8159 22ZM65.8306 75.7734C64.4401 75.612 64.8659 76.738 63.4194 78.4258C61.9726 80.1137 62.6959 79.3909 63.1782 80.3555C63.6602 81.3201 62.4165 83.278 63.6606 83.9727C65.2117 84.838 65.642 81.8381 66.0718 80.1143C66.4825 78.467 67.5169 75.9693 65.8306 75.7734ZM80.5396 62.9932C80.069 62.9935 80.1056 63.731 80.0571 64.1992C80.0005 64.7452 79.5089 65.4039 80.0571 65.4043C80.6062 65.4043 81.5607 64.7454 81.5044 64.1992C81.4559 63.7309 81.0104 62.9932 80.5396 62.9932ZM5.7876 58.8945C4.76908 58.8945 5.81793 60.6569 6.75146 61.0645C7.44195 61.3658 8.10077 61.5448 8.68115 61.0645C8.94269 60.848 9.08723 60.6716 9.16357 60.3408C9.37932 59.4053 7.62569 60.2558 6.75146 59.8584C6.13386 59.5773 6.4661 58.8948 5.7876 58.8945ZM40.7524 39.3623C40.2582 38.6485 40.0911 37.305 39.3052 37.6738C38.5336 38.0361 39.8623 39.052 39.5464 39.8438C39.3717 40.281 39.064 41.0498 39.064 41.0498C39.0527 41.0597 38.2703 41.7531 38.5815 42.2559C38.9265 42.8131 40.0163 42.2622 40.0288 42.2559C40.0288 42.2559 41.5427 41.433 41.4761 40.5674C41.4339 40.0202 41.0649 39.8135 40.7524 39.3623ZM37.8589 39.6035C37.1313 39.4964 36.0353 40.3377 36.4116 40.8086L37.3765 42.0146C37.753 42.485 37.8366 41.5913 38.1001 41.291C38.4106 40.9371 38.8228 40.3262 38.8228 40.3262C38.8096 40.309 38.3183 39.6715 37.8589 39.6035Z" fill="#173753"/>
<path d="M47.2686 54.5481C47.177 54.6298 47.1298 54.6739 47.1298 54.6739C47.1298 54.6739 47.1706 54.6284 47.2686 54.5481C48.4232 53.5185 56.6368 46.5321 66.4982 46.9266C74.5684 47.2494 79.7333 50.1547 79.7333 50.1547L81.0246 44.6669L92 61.1301L77.1509 59.5161L78.4421 54.6739C78.4421 54.6739 71.0175 51.4459 65.5298 51.4459C51.8643 51.4459 47.9952 53.9524 47.2686 54.5481Z" fill="#7AE582"/>
<path d="M47.2557 57.718C47.174 57.6264 47.1298 57.5792 47.1298 57.5792C47.1298 57.5792 47.1754 57.6201 47.2557 57.718C48.2852 58.8726 55.2717 67.0862 54.8772 76.9476C54.5544 85.0178 51.6491 90.1827 51.6491 90.1827L57.1368 91.474L40.6737 102.449L42.2877 87.6003L47.1298 88.8915C47.1298 88.8915 50.3579 81.4669 50.3579 75.9792C50.3579 62.3137 47.8514 58.4446 47.2557 57.718Z" fill="#7AE582"/>
<path d="M44.7314 56.4139C44.823 56.3322 44.8702 56.288 44.8702 56.288C44.8702 56.288 44.8294 56.3336 44.7314 56.4139C43.5768 57.4434 35.3632 64.4299 25.5018 64.0354C17.4316 63.7126 12.2667 60.8073 12.2667 60.8073L10.9754 66.295L-2.37544e-06 49.8319L14.8491 51.4459L13.5579 56.288C13.5579 56.288 20.9825 59.5161 26.4702 59.5161C40.1357 59.5161 44.0048 57.0096 44.7314 56.4139Z" fill="#7AE582"/>
<path d="M113.36 96.0469C109.891 96.0469 107.204 95.125 105.298 93.2812C103.423 91.4375 102.485 88.6562 102.485 84.9375V39.0938C104.141 37.6875 106.157 36.6094 108.532 35.8594C110.938 35.0781 113.423 34.6875 115.985 34.6875C119.766 34.6875 122.969 35.625 125.594 37.5C128.438 39.625 129.86 42.5625 129.86 46.3125V71.9531C128.11 72.1094 126.391 72.6094 124.704 73.4531C123.016 74.2656 122.173 75.1094 122.173 75.9844C122.173 76.5156 122.469 76.9688 123.063 77.3438C126.157 74.75 130.751 73.4531 136.844 73.4531H147.954C150.016 77.0781 151.048 80.7812 151.048 84.5625C151.048 86.4375 150.719 88.5156 150.063 90.7969C149.407 93.0781 148.532 94.8281 147.438 96.0469H113.36ZM201.858 72.7969C201.858 75.0469 202.108 76.8594 202.608 78.2344C203.108 79.6094 203.983 80.6875 205.233 81.4688C205.264 81.625 205.28 81.9219 205.28 82.3594V83.2031C205.28 87.6406 203.936 91.0938 201.249 93.5625C198.874 95.75 195.936 96.8438 192.436 96.8438C190.061 96.8438 187.889 96.2812 185.921 95.1562C183.952 94.0312 182.546 92.4062 181.702 90.2812C180.639 90.2812 180.108 90.7969 180.108 91.8281C180.108 92.7031 180.655 93.6875 181.749 94.7812C179.718 96.1562 176.655 96.8438 172.561 96.8438C166.78 96.8438 162.155 95.2812 158.686 92.1562C155.249 89 153.53 84.6094 153.53 78.9844C153.53 73.3281 155.358 68.9531 159.014 65.8594C162.358 63.0781 166.686 61.6875 171.999 61.6875C173.811 61.6875 175.561 61.8125 177.249 62.0625C178.374 62.2812 178.983 62.4062 179.077 62.4375C179.171 62.125 179.218 61.8594 179.218 61.6406C179.218 60.8281 178.53 60.2812 177.155 60C175.78 59.7188 173.983 59.5781 171.764 59.5781C167.046 59.5781 163.014 60.5312 159.671 62.4375C158.139 59.8438 157.374 56.5625 157.374 52.5938C157.374 50.3438 157.655 48.6719 158.218 47.5781C160.468 46.5469 163.327 45.6406 166.796 44.8594C170.264 44.0469 173.921 43.6406 177.764 43.6406C185.702 43.6406 191.702 45.375 195.764 48.8438C199.827 52.3125 201.858 57.2344 201.858 63.6094V72.7969ZM177.53 75.0938C176.218 75.0938 175.561 75.6875 175.561 76.875C175.561 78 176.327 78.5625 177.858 78.5625C178.921 78.5625 179.702 78.3125 180.202 77.8125C180.702 77.2812 180.952 76.375 180.952 75.0938C180.952 75.0938 179.811 75.0938 177.53 75.0938ZM235.138 62.7656C234.825 62.4531 234.45 62.2969 234.013 62.2969C233.325 62.2969 232.856 62.7969 232.606 63.7969C232.356 64.7656 232.231 66.75 232.231 69.75V74.5312C232.231 75.375 232.341 75.9688 232.559 76.3125C232.778 76.6562 233.138 76.8281 233.638 76.8281C234.138 76.8281 234.497 76.7188 234.716 76.5V70.2188C234.716 67.1562 234.856 64.6719 235.138 62.7656ZM231.763 35.0625C233.419 33.125 235.247 31.6719 237.247 30.7031C239.247 29.7031 241.794 29.2031 244.888 29.2031C248.638 29.2031 251.684 30.25 254.028 32.3438C256.434 34.5938 257.638 37.625 257.638 41.4375V72.375C257.638 77.0312 258.763 80.0625 261.013 81.4688C261.044 81.625 261.059 81.9219 261.059 82.3594V83.2031C261.059 87.6406 259.716 91.0938 257.028 93.5625C254.653 95.75 251.716 96.8438 248.216 96.8438C245.778 96.8438 243.669 96.3281 241.888 95.2969C239.794 94.1094 238.325 92.4844 237.481 90.4219C236.419 90.4219 235.888 90.9375 235.888 91.9688C235.888 92.4375 236.059 92.9844 236.403 93.6094C236.778 94.2031 237.278 94.7344 237.903 95.2031C236.059 96.2969 233.669 96.8438 230.731 96.8438C226.763 96.8438 223.044 95.9375 219.575 94.125C216.138 92.2812 213.403 89.5156 211.372 85.8281C209.028 81.6094 207.856 76.5 207.856 70.5C207.856 62.5 210.091 56.2188 214.559 51.6562C219.059 47.0938 224.794 44.8125 231.763 44.8125C235.888 44.8125 239.481 45.5938 242.544 47.1562C242.888 46.8125 243.059 46.4531 243.059 46.0781C243.059 45.1406 241.95 44.3438 239.731 43.6875C237.513 43.0312 235.278 42.7031 233.028 42.7031C233.028 39.5156 232.606 36.9688 231.763 35.0625ZM289.183 53.8125V72.375C289.183 77.0312 290.308 80.0625 292.558 81.4688C292.589 81.625 292.604 81.9219 292.604 82.3594V83.2031C292.604 87.7969 291.354 91.25 288.854 93.5625C286.542 95.75 283.448 96.8438 279.573 96.8438C275.729 96.8438 272.558 95.75 270.058 93.5625C266.901 90.7812 265.323 86.7188 265.323 81.375V50.9062C265.886 50.5 266.495 50.1719 267.151 49.9219C267.808 49.6719 268.495 49.3594 269.214 48.9844C267.87 48.2969 266.651 47.1094 265.558 45.4219C264.464 43.7031 263.917 41.7031 263.917 39.4219C263.917 35.4844 265.214 32.2656 267.808 29.7656C270.401 27.2656 273.573 26.0156 277.323 26.0156C281.104 26.0156 284.261 27.2969 286.792 29.8594C289.354 32.3906 290.636 35.5781 290.636 39.4219C290.636 42.5156 289.667 45.2344 287.729 47.5781C285.792 49.8906 283.433 51.3438 280.651 51.9375C280.651 53.125 281.104 53.7188 282.011 53.7188C283.604 53.7188 285.229 53.0938 286.886 51.8438C288.136 52.8125 288.901 53.4688 289.183 53.8125ZM321.806 97.4531C313.681 97.4531 307.196 94.9531 302.353 89.9531C297.54 84.9219 295.134 78.1875 295.134 69.75C295.134 61.3125 297.868 54.6406 303.337 49.7344C308.212 45.3594 314.306 43.1719 321.618 43.1719C328.118 43.1719 333.509 44.7812 337.79 48C342.071 51.1875 344.212 55.5312 344.212 61.0312C344.212 64.8438 343.024 67.9531 340.649 70.3594C338.306 72.7344 335.212 73.9219 331.368 73.9219C328.243 73.9219 325.634 73.0938 323.54 71.4375C321.478 69.75 320.259 67.5625 319.884 64.875C318.509 64.875 317.821 65.375 317.821 66.375C317.821 68.6562 318.946 70.75 321.196 72.6562C323.79 74.9062 327.009 76.0312 330.853 76.0312C334.728 76.0312 337.931 75.2031 340.462 73.5469C342.024 75.9531 342.806 78.875 342.806 82.3125C342.806 86.3125 341.087 89.7344 337.649 92.5781C333.712 95.8281 328.431 97.4531 321.806 97.4531Z" fill="#068D9D"/>
<path d="M105.298 93.2812L105.087 93.4952L105.089 93.4969L105.298 93.2812ZM102.485 39.0938L102.291 38.8651L102.185 38.9549V39.0938H102.485ZM108.532 35.8594L108.622 36.1455L108.625 36.1447L108.532 35.8594ZM125.594 37.5L125.774 37.2596L125.769 37.2559L125.594 37.5ZM129.86 71.9531L129.887 72.2519L130.16 72.2275V71.9531H129.86ZM124.704 73.4531L124.834 73.7235L124.838 73.7215L124.704 73.4531ZM123.063 77.3438L122.903 77.5974L123.088 77.7143L123.256 77.5736L123.063 77.3438ZM147.954 73.4531L148.215 73.3048L148.128 73.1531H147.954V73.4531ZM147.438 96.0469V96.3469H147.572L147.661 96.2472L147.438 96.0469ZM113.36 96.0469V95.7469C109.944 95.7469 107.341 94.8402 105.506 93.0656L105.298 93.2812L105.089 93.4969C107.067 95.4098 109.838 96.3469 113.36 96.3469V96.0469ZM105.298 93.2812L105.508 93.0673C103.711 91.2999 102.785 88.6096 102.785 84.9375H102.485H102.185C102.185 88.7029 103.135 91.5751 105.087 93.4952L105.298 93.2812ZM102.485 84.9375H102.785V39.0938H102.485H102.185V84.9375H102.485ZM102.485 39.0938L102.679 39.3224C104.301 37.9455 106.28 36.8852 108.622 36.1454L108.532 35.8594L108.442 35.5733C106.034 36.3336 103.982 37.4295 102.291 38.8651L102.485 39.0938ZM108.532 35.8594L108.625 36.1447C111.001 35.3733 113.454 34.9875 115.985 34.9875V34.6875V34.3875C113.392 34.3875 110.876 34.7829 108.439 35.574L108.532 35.8594ZM115.985 34.6875V34.9875C119.715 34.9875 122.854 35.9114 125.42 37.7441L125.594 37.5L125.769 37.2559C123.085 35.3386 119.818 34.3875 115.985 34.3875V34.6875ZM125.594 37.5L125.415 37.7403C128.178 39.8051 129.56 42.6509 129.56 46.3125H129.86H130.16C130.16 42.4741 128.698 39.4449 125.774 37.2597L125.594 37.5ZM129.86 46.3125H129.56V71.9531H129.86H130.16V46.3125H129.86ZM129.86 71.9531L129.833 71.6543C128.043 71.8141 126.288 72.3255 124.57 73.1848L124.704 73.4531L124.838 73.7215C126.494 72.8933 128.177 72.4046 129.887 72.2519L129.86 71.9531ZM124.704 73.4531L124.574 73.1828C123.715 73.5964 123.049 74.0278 122.593 74.4832C122.136 74.9403 121.873 75.4419 121.873 75.9844H122.173H122.473C122.473 75.6519 122.631 75.294 123.018 74.9074C123.406 74.519 124.005 74.1224 124.834 73.7234L124.704 73.4531ZM122.173 75.9844H121.873C121.873 76.6509 122.254 77.1873 122.903 77.5974L123.063 77.3438L123.223 77.0901C122.685 76.7502 122.473 76.3803 122.473 75.9844H122.173ZM123.063 77.3438L123.256 77.5736C126.274 75.0433 130.787 73.7531 136.844 73.7531V73.4531V73.1531C130.715 73.1531 126.04 74.4567 122.87 77.1139L123.063 77.3438ZM136.844 73.4531V73.7531H147.954V73.4531V73.1531H136.844V73.4531ZM147.954 73.4531L147.693 73.6015C149.733 77.186 150.748 80.8385 150.748 84.5625H151.048H151.348C151.348 80.724 150.3 76.9702 148.215 73.3048L147.954 73.4531ZM151.048 84.5625H150.748C150.748 86.4032 150.425 88.4528 149.775 90.7139L150.063 90.7969L150.352 90.8798C151.014 88.5784 151.348 86.4718 151.348 84.5625H151.048ZM150.063 90.7969L149.775 90.7139C149.126 92.9698 148.268 94.6732 147.215 95.8465L147.438 96.0469L147.661 96.2472C148.796 94.9831 149.688 93.1865 150.352 90.8798L150.063 90.7969ZM147.438 96.0469V95.7469H113.36V96.0469V96.3469H147.438V96.0469ZM205.233 81.4688L205.527 81.4099L205.502 81.283L205.392 81.2144L205.233 81.4688ZM201.249 93.5625L201.046 93.3416L201.046 93.3418L201.249 93.5625ZM181.702 90.2812L181.981 90.1705L181.906 89.9812H181.702V90.2812ZM181.749 94.7812L181.917 95.0297L182.218 94.826L181.961 94.5691L181.749 94.7812ZM158.686 92.1562L158.483 92.3772L158.486 92.3791L158.686 92.1562ZM159.014 65.8594L158.823 65.6287L158.821 65.6304L159.014 65.8594ZM177.249 62.0625L177.306 61.7677L177.293 61.7657L177.249 62.0625ZM179.077 62.4375L178.982 62.7221L179.275 62.8199L179.364 62.5237L179.077 62.4375ZM159.671 62.4375L159.412 62.59L159.563 62.8445L159.819 62.6981L159.671 62.4375ZM158.218 47.5781L158.093 47.3054L157.998 47.3486L157.951 47.4409L158.218 47.5781ZM166.796 44.8594L166.862 45.1521L166.864 45.1515L166.796 44.8594ZM180.202 77.8125L180.414 78.0247L180.42 78.0181L180.202 77.8125ZM180.952 75.0938H181.252V74.7937H180.952V75.0938ZM201.858 72.7969H201.558C201.558 75.0651 201.81 76.9163 202.326 78.3369L202.608 78.2344L202.89 78.1319C202.407 76.8024 202.158 75.0287 202.158 72.7969H201.858ZM202.608 78.2344L202.326 78.3369C202.849 79.7753 203.768 80.9067 205.074 81.7231L205.233 81.4688L205.392 81.2144C204.199 80.4683 203.367 79.4434 202.89 78.1319L202.608 78.2344ZM205.233 81.4688L204.939 81.5276C204.964 81.6505 204.98 81.9188 204.98 82.3594H205.28H205.58C205.58 81.925 205.565 81.5995 205.527 81.4099L205.233 81.4688ZM205.28 82.3594H204.98V83.2031H205.28H205.58V82.3594H205.28ZM205.28 83.2031H204.98C204.98 87.5762 203.658 90.9417 201.046 93.3416L201.249 93.5625L201.452 93.7834C204.214 91.2458 205.58 87.705 205.58 83.2031H205.28ZM201.249 93.5625L201.046 93.3418C198.731 95.4738 195.868 96.5437 192.436 96.5437V96.8438V97.1438C196.005 97.1438 199.017 96.0262 201.452 93.7832L201.249 93.5625ZM192.436 96.8438V96.5437C190.111 96.5437 187.991 95.9936 186.07 94.8958L185.921 95.1562L185.772 95.4167C187.788 96.5689 190.012 97.1438 192.436 97.1438V96.8438ZM185.921 95.1562L186.07 94.8958C184.16 93.8048 182.8 92.2329 181.981 90.1705L181.702 90.2812L181.423 90.392C182.292 92.5796 183.744 94.2577 185.772 95.4167L185.921 95.1562ZM181.702 90.2812V89.9812C181.127 89.9812 180.64 90.1208 180.298 90.4527C179.954 90.7862 179.808 91.2639 179.808 91.8281H180.108H180.408C180.408 91.3611 180.528 91.0653 180.716 90.8832C180.905 90.6996 181.215 90.5813 181.702 90.5813V90.2812ZM180.108 91.8281H179.808C179.808 92.8253 180.426 93.8831 181.537 94.9934L181.749 94.7812L181.961 94.5691C180.884 93.4919 180.408 92.581 180.408 91.8281H180.108ZM181.749 94.7812L181.581 94.5328C179.622 95.8585 176.631 96.5437 172.561 96.5437V96.8438V97.1438C176.679 97.1438 179.813 96.454 181.917 95.0297L181.749 94.7812ZM172.561 96.8438V96.5437C166.836 96.5437 162.288 94.9976 158.887 91.9334L158.686 92.1562L158.486 92.3791C162.022 95.5649 166.724 97.1438 172.561 97.1438V96.8438ZM158.686 92.1562L158.889 91.9353C155.526 88.8474 153.83 84.5441 153.83 78.9844H153.53H153.23C153.23 84.6747 154.972 89.1526 158.483 92.3772L158.686 92.1562ZM153.53 78.9844H153.83C153.83 73.3987 155.632 69.1146 159.208 66.0884L159.014 65.8594L158.821 65.6304C155.085 68.7916 153.23 73.2575 153.23 78.9844H153.53ZM159.014 65.8594L159.206 66.09C162.485 63.3629 166.74 61.9875 171.999 61.9875V61.6875V61.3875C166.632 61.3875 162.231 62.7934 158.823 65.6287L159.014 65.8594ZM171.999 61.6875V61.9875C173.798 61.9875 175.533 62.1115 177.205 62.3593L177.249 62.0625L177.293 61.7657C175.59 61.5135 173.825 61.3875 171.999 61.3875V61.6875ZM177.249 62.0625L177.192 62.357C177.754 62.4663 178.186 62.552 178.489 62.6142C178.641 62.6453 178.759 62.6703 178.845 62.6893C178.888 62.6989 178.921 62.7066 178.946 62.7127C178.974 62.7195 178.983 62.7224 178.982 62.7221L179.077 62.4375L179.172 62.1529C179.103 62.13 178.903 62.0866 178.61 62.0264C178.304 61.9636 177.869 61.8775 177.306 61.768L177.249 62.0625ZM179.077 62.4375L179.364 62.5237C179.463 62.1955 179.518 61.8991 179.518 61.6406H179.218H178.918C178.918 61.8196 178.879 62.0545 178.79 62.3513L179.077 62.4375ZM179.218 61.6406H179.518C179.518 61.1348 179.297 60.7114 178.889 60.3863C178.492 60.071 177.924 59.8511 177.215 59.7061L177.155 60L177.095 60.2939C177.761 60.4301 178.224 60.6243 178.515 60.8559C178.794 61.0777 178.918 61.334 178.918 61.6406H179.218ZM177.155 60L177.215 59.7061C175.812 59.4192 173.993 59.2781 171.764 59.2781V59.5781V59.8781C173.973 59.8781 175.748 60.0183 177.095 60.2939L177.155 60ZM171.764 59.5781V59.2781C167.005 59.2781 162.92 60.2396 159.522 62.1769L159.671 62.4375L159.819 62.6981C163.109 60.8229 167.086 59.8781 171.764 59.8781V59.5781ZM159.671 62.4375L159.929 62.285C158.432 59.7499 157.674 56.5254 157.674 52.5938H157.374H157.074C157.074 56.5996 157.846 59.9376 159.412 62.59L159.671 62.4375ZM157.374 52.5938H157.674C157.674 50.3581 157.955 48.7445 158.484 47.7153L158.218 47.5781L157.951 47.4409C157.355 48.5992 157.074 50.3294 157.074 52.5938H157.374ZM158.218 47.5781L158.343 47.8508C160.567 46.8311 163.405 45.9305 166.862 45.152L166.796 44.8594L166.73 44.5667C163.249 45.3507 160.368 46.2626 158.093 47.3054L158.218 47.5781ZM166.796 44.8594L166.864 45.1515C170.309 44.3446 173.942 43.9406 177.764 43.9406V43.6406V43.3406C173.899 43.3406 170.22 43.7491 166.727 44.5673L166.796 44.8594ZM177.764 43.6406V43.9406C185.664 43.9406 191.582 45.6675 195.57 49.0719L195.764 48.8438L195.959 48.6156C191.821 45.0825 185.74 43.3406 177.764 43.3406V43.6406ZM195.764 48.8438L195.57 49.0719C199.552 52.4725 201.558 57.3035 201.558 63.6094H201.858H202.158C202.158 57.1653 200.102 52.1525 195.959 48.6156L195.764 48.8438ZM201.858 63.6094H201.558V72.7969H201.858H202.158V63.6094H201.858ZM177.53 75.0938V74.7937C176.835 74.7937 176.257 74.9504 175.852 75.3166C175.442 75.6879 175.261 76.2268 175.261 76.875H175.561H175.861C175.861 76.3357 176.009 75.9839 176.255 75.7615C176.506 75.534 176.913 75.3938 177.53 75.3938V75.0938ZM175.561 76.875H175.261C175.261 77.513 175.483 78.0338 175.958 78.3824C176.415 78.7183 177.065 78.8625 177.858 78.8625V78.5625V78.2625C177.12 78.2625 176.622 78.1254 176.313 77.8989C176.022 77.685 175.861 77.362 175.861 76.875H175.561ZM177.858 78.5625V78.8625C178.961 78.8625 179.835 78.6037 180.414 78.0246L180.202 77.8125L179.99 77.6004C179.569 78.0213 178.881 78.2625 177.858 78.2625V78.5625ZM180.202 77.8125L180.42 78.0181C181 77.402 181.252 76.3985 181.252 75.0938H180.952H180.652C180.652 76.3515 180.404 77.1605 179.983 77.6069L180.202 77.8125ZM180.952 75.0938C180.952 74.7937 180.952 74.7937 180.952 74.7937C180.952 74.7937 180.952 74.7937 180.952 74.7937C180.952 74.7937 180.952 74.7937 180.952 74.7937C180.952 74.7937 180.952 74.7937 180.952 74.7937C180.952 74.7937 180.952 74.7937 180.952 74.7937C180.952 74.7937 180.952 74.7937 180.951 74.7937C180.951 74.7937 180.951 74.7937 180.951 74.7937C180.951 74.7937 180.951 74.7937 180.951 74.7937C180.951 74.7937 180.951 74.7937 180.951 74.7937C180.951 74.7937 180.951 74.7937 180.951 74.7937C180.951 74.7937 180.95 74.7937 180.95 74.7937C180.95 74.7937 180.95 74.7937 180.95 74.7937C180.95 74.7937 180.95 74.7937 180.95 74.7937C180.95 74.7937 180.95 74.7937 180.949 74.7937C180.949 74.7937 180.949 74.7937 180.949 74.7937C180.949 74.7937 180.949 74.7937 180.949 74.7937C180.948 74.7937 180.948 74.7937 180.948 74.7937C180.948 74.7937 180.948 74.7937 180.948 74.7937C180.948 74.7937 180.947 74.7937 180.947 74.7937C180.947 74.7937 180.947 74.7937 180.947 74.7937C180.947 74.7937 180.946 74.7937 180.946 74.7937C180.946 74.7937 180.946 74.7937 180.946 74.7937C180.945 74.7937 180.945 74.7937 180.945 74.7937C180.945 74.7937 180.945 74.7937 180.944 74.7937C180.944 74.7937 180.944 74.7937 180.944 74.7937C180.944 74.7937 180.943 74.7937 180.943 74.7937C180.943 74.7937 180.943 74.7937 180.942 74.7937C180.942 74.7937 180.942 74.7937 180.942 74.7937C180.941 74.7937 180.941 74.7937 180.941 74.7937C180.941 74.7937 180.94 74.7937 180.94 74.7937C180.94 74.7937 180.94 74.7937 180.939 74.7937C180.939 74.7937 180.939 74.7937 180.939 74.7937C180.938 74.7937 180.938 74.7937 180.938 74.7937C180.937 74.7937 180.937 74.7937 180.937 74.7937C180.937 74.7937 180.936 74.7937 180.936 74.7937C180.936 74.7937 180.935 74.7937 180.935 74.7937C180.935 74.7937 180.934 74.7937 180.934 74.7937C180.934 74.7937 180.933 74.7937 180.933 74.7937C180.933 74.7937 180.932 74.7937 180.932 74.7937C180.932 74.7937 180.931 74.7937 180.931 74.7937C180.931 74.7937 180.93 74.7937 180.93 74.7937C180.93 74.7937 180.929 74.7937 180.929 74.7937C180.929 74.7937 180.928 74.7937 180.928 74.7937C180.927 74.7937 180.927 74.7937 180.927 74.7937C180.926 74.7937 180.926 74.7937 180.926 74.7937C180.925 74.7937 180.925 74.7937 180.924 74.7937C180.924 74.7937 180.924 74.7937 180.923 74.7937C180.923 74.7937 180.922 74.7937 180.922 74.7937C180.921 74.7937 180.921 74.7937 180.921 74.7937C180.92 74.7937 180.92 74.7937 180.919 74.7937C180.919 74.7937 180.918 74.7937 180.918 74.7937C180.918 74.7937 180.917 74.7937 180.917 74.7937C180.916 74.7937 180.916 74.7937 180.915 74.7937C180.915 74.7937 180.914 74.7937 180.914 74.7937C180.913 74.7937 180.913 74.7937 180.912 74.7937C180.912 74.7937 180.912 74.7937 180.911 74.7937C180.911 74.7937 180.91 74.7937 180.91 74.7937C180.909 74.7937 180.909 74.7937 180.908 74.7937C180.908 74.7937 180.907 74.7937 180.907 74.7937C180.906 74.7937 180.905 74.7937 180.905 74.7937C180.904 74.7937 180.904 74.7937 180.903 74.7937C180.903 74.7937 180.902 74.7937 180.902 74.7937C180.901 74.7937 180.901 74.7937 180.9 74.7937C180.9 74.7937 180.899 74.7937 180.898 74.7937C180.898 74.7937 180.897 74.7937 180.897 74.7937C180.896 74.7937 180.896 74.7937 180.895 74.7937C180.895 74.7937 180.894 74.7937 180.893 74.7937C180.893 74.7937 180.892 74.7937 180.892 74.7937C180.891 74.7937 180.89 74.7937 180.89 74.7937C180.889 74.7937 180.889 74.7937 180.888 74.7937C180.887 74.7937 180.887 74.7937 180.886 74.7937C180.886 74.7937 180.885 74.7937 180.884 74.7937C180.884 74.7937 180.883 74.7937 180.882 74.7937C180.882 74.7937 180.881 74.7937 180.88 74.7937C180.88 74.7937 180.879 74.7937 180.879 74.7937C180.878 74.7937 180.877 74.7937 180.877 74.7937C180.876 74.7937 180.875 74.7937 180.875 74.7937C180.874 74.7937 180.873 74.7937 180.873 74.7937C180.872 74.7937 180.871 74.7937 180.87 74.7937C180.87 74.7937 180.869 74.7937 180.868 74.7937C180.868 74.7937 180.867 74.7937 180.866 74.7937C180.866 74.7937 180.865 74.7937 180.864 74.7937C180.863 74.7937 180.863 74.7937 180.862 74.7937C180.861 74.7937 180.861 74.7937 180.86 74.7937C180.859 74.7937 180.858 74.7937 180.858 74.7937C180.857 74.7937 180.856 74.7937 180.855 74.7937C180.855 74.7937 180.854 74.7937 180.853 74.7937C180.852 74.7937 180.852 74.7937 180.851 74.7937C180.85 74.7937 180.849 74.7937 180.849 74.7937C180.848 74.7937 180.847 74.7937 180.846 74.7937C180.845 74.7937 180.845 74.7937 180.844 74.7937C180.843 74.7937 180.842 74.7937 180.841 74.7937C180.841 74.7937 180.84 74.7937 180.839 74.7937C180.838 74.7937 180.837 74.7937 180.837 74.7937C180.836 74.7937 180.835 74.7937 180.834 74.7937C180.833 74.7937 180.832 74.7937 180.832 74.7937C180.831 74.7937 180.83 74.7937 180.829 74.7937C180.828 74.7937 180.827 74.7937 180.827 74.7937C180.826 74.7937 180.825 74.7937 180.824 74.7937C180.823 74.7937 180.822 74.7937 180.821 74.7937C180.821 74.7937 180.82 74.7937 180.819 74.7937C180.818 74.7937 180.817 74.7937 180.816 74.7937C180.815 74.7937 180.814 74.7937 180.813 74.7937C180.813 74.7937 180.812 74.7937 180.811 74.7937C180.81 74.7937 180.809 74.7937 180.808 74.7937C180.807 74.7937 180.806 74.7937 180.805 74.7937C180.804 74.7937 180.803 74.7937 180.803 74.7937C180.802 74.7937 180.801 74.7937 180.8 74.7937C180.799 74.7937 180.798 74.7937 180.797 74.7937C180.796 74.7937 180.795 74.7937 180.794 74.7937C180.793 74.7937 180.792 74.7937 180.791 74.7937C180.79 74.7937 180.789 74.7937 180.788 74.7937C180.787 74.7937 180.786 74.7937 180.785 74.7937C180.784 74.7937 180.783 74.7937 180.782 74.7937C180.781 74.7937 180.78 74.7937 180.779 74.7937C180.778 74.7937 180.777 74.7937 180.776 74.7937C180.775 74.7937 180.774 74.7937 180.773 74.7937C180.772 74.7937 180.771 74.7937 180.77 74.7937C180.769 74.7937 180.768 74.7937 180.767 74.7937C180.766 74.7937 180.765 74.7937 180.764 74.7937C180.763 74.7937 180.762 74.7937 180.761 74.7937C180.76 74.7937 180.759 74.7937 180.758 74.7937C180.757 74.7937 180.756 74.7937 180.754 74.7937C180.753 74.7937 180.752 74.7937 180.751 74.7937C180.75 74.7937 180.749 74.7937 180.748 74.7937C180.747 74.7937 180.746 74.7937 180.745 74.7937C180.744 74.7937 180.743 74.7937 180.741 74.7937C180.74 74.7937 180.739 74.7937 180.738 74.7937C180.737 74.7937 180.736 74.7937 180.735 74.7937C180.734 74.7937 180.732 74.7937 180.731 74.7937C180.73 74.7937 180.729 74.7937 180.728 74.7937C180.727 74.7937 180.726 74.7937 180.725 74.7937C180.723 74.7937 180.722 74.7937 180.721 74.7937C180.72 74.7937 180.719 74.7937 180.718 74.7937C180.716 74.7937 180.715 74.7937 180.714 74.7937C180.713 74.7937 180.712 74.7937 180.711 74.7937C180.709 74.7937 180.708 74.7937 180.707 74.7937C180.706 74.7937 180.705 74.7937 180.703 74.7937C180.702 74.7937 180.701 74.7937 180.7 74.7937C180.699 74.7937 180.697 74.7937 180.696 74.7937C180.695 74.7937 180.694 74.7937 180.692 74.7937C180.691 74.7937 180.69 74.7937 180.689 74.7937C180.688 74.7937 180.686 74.7937 180.685 74.7937C180.684 74.7937 180.683 74.7937 180.681 74.7937C180.68 74.7937 180.679 74.7937 180.678 74.7937C180.676 74.7937 180.675 74.7937 180.674 74.7937C180.672 74.7937 180.671 74.7937 180.67 74.7937C180.669 74.7937 180.667 74.7937 180.666 74.7937C180.665 74.7937 180.663 74.7937 180.662 74.7937C180.661 74.7937 180.66 74.7937 180.658 74.7937C180.657 74.7937 180.656 74.7937 180.654 74.7937C180.653 74.7937 180.652 74.7937 180.65 74.7937C180.649 74.7937 180.648 74.7937 180.646 74.7937C180.645 74.7937 180.644 74.7937 180.642 74.7937C180.641 74.7937 180.64 74.7937 180.638 74.7937C180.637 74.7937 180.636 74.7937 180.634 74.7937C180.633 74.7937 180.632 74.7937 180.63 74.7937C180.629 74.7937 180.627 74.7937 180.626 74.7937C180.625 74.7937 180.623 74.7937 180.622 74.7937C180.621 74.7937 180.619 74.7937 180.618 74.7937C180.616 74.7937 180.615 74.7937 180.614 74.7937C180.612 74.7937 180.611 74.7937 180.609 74.7937C180.608 74.7937 180.607 74.7937 180.605 74.7937C180.604 74.7937 180.602 74.7937 180.601 74.7937C180.599 74.7937 180.598 74.7937 180.597 74.7937C180.595 74.7937 180.594 74.7937 180.592 74.7937C180.591 74.7937 180.589 74.7937 180.588 74.7937C180.586 74.7937 180.585 74.7937 180.584 74.7937C180.582 74.7937 180.581 74.7937 180.579 74.7937C180.578 74.7937 180.576 74.7937 180.575 74.7937C180.573 74.7937 180.572 74.7937 180.57 74.7937C180.569 74.7937 180.567 74.7937 180.566 74.7937C180.564 74.7937 180.563 74.7937 180.561 74.7937C180.56 74.7937 180.558 74.7937 180.557 74.7937C180.555 74.7937 180.554 74.7937 180.552 74.7937C180.551 74.7937 180.549 74.7937 180.548 74.7937C180.546 74.7937 180.545 74.7937 180.543 74.7937C180.541 74.7937 180.54 74.7937 180.538 74.7937C180.537 74.7937 180.535 74.7937 180.534 74.7937C180.532 74.7937 180.531 74.7937 180.529 74.7937C180.527 74.7937 180.526 74.7937 180.524 74.7937C180.523 74.7937 180.521 74.7937 180.52 74.7937C180.518 74.7937 180.516 74.7937 180.515 74.7937C180.513 74.7937 180.512 74.7937 180.51 74.7937C180.508 74.7937 180.507 74.7937 180.505 74.7937C180.504 74.7937 180.502 74.7937 180.5 74.7937C180.499 74.7937 180.497 74.7937 180.495 74.7937C180.494 74.7937 180.492 74.7937 180.491 74.7937C180.489 74.7937 180.487 74.7937 180.486 74.7937C180.484 74.7937 180.482 74.7937 180.481 74.7937C180.479 74.7937 180.477 74.7937 180.476 74.7937C180.474 74.7937 180.472 74.7937 180.471 74.7937C180.469 74.7937 180.467 74.7937 180.466 74.7937C180.464 74.7937 180.462 74.7937 180.461 74.7937C180.459 74.7937 180.457 74.7937 180.456 74.7937C180.454 74.7937 180.452 74.7937 180.45 74.7937C180.449 74.7937 180.447 74.7937 180.445 74.7937C180.444 74.7937 180.442 74.7937 180.44 74.7937C180.438 74.7937 180.437 74.7937 180.435 74.7937C180.433 74.7937 180.432 74.7937 180.43 74.7937C180.428 74.7937 180.426 74.7937 180.425 74.7937C180.423 74.7937 180.421 74.7937 180.419 74.7937C180.418 74.7937 180.416 74.7937 180.414 74.7937C180.412 74.7937 180.41 74.7937 180.409 74.7937C180.407 74.7937 180.405 74.7937 180.403 74.7937C180.402 74.7937 180.4 74.7937 180.398 74.7937C180.396 74.7937 180.394 74.7937 180.393 74.7937C180.391 74.7937 180.389 74.7937 180.387 74.7937C180.385 74.7937 180.384 74.7937 180.382 74.7937C180.38 74.7937 180.378 74.7937 180.376 74.7937C180.374 74.7937 180.373 74.7937 180.371 74.7937C180.369 74.7937 180.367 74.7937 180.365 74.7937C180.363 74.7937 180.362 74.7937 180.36 74.7937C180.358 74.7937 180.356 74.7937 180.354 74.7937C180.352 74.7937 180.35 74.7937 180.349 74.7937C180.347 74.7937 180.345 74.7937 180.343 74.7937C180.341 74.7937 180.339 74.7937 180.337 74.7937C180.335 74.7937 180.333 74.7937 180.332 74.7937C180.33 74.7937 180.328 74.7937 180.326 74.7937C180.324 74.7937 180.322 74.7937 180.32 74.7937C180.318 74.7937 180.316 74.7937 180.314 74.7937C180.312 74.7937 180.311 74.7937 180.309 74.7937C180.307 74.7937 180.305 74.7937 180.303 74.7937C180.301 74.7937 180.299 74.7937 180.297 74.7937C180.295 74.7937 180.293 74.7937 180.291 74.7937C180.289 74.7937 180.287 74.7937 180.285 74.7937C180.283 74.7937 180.281 74.7937 180.279 74.7937C180.277 74.7937 180.275 74.7937 180.273 74.7937C180.271 74.7937 180.269 74.7937 180.267 74.7937C180.265 74.7937 180.263 74.7937 180.261 74.7937C180.259 74.7937 180.257 74.7937 180.255 74.7937C180.253 74.7937 180.251 74.7937 180.249 74.7937C180.247 74.7937 180.245 74.7937 180.243 74.7937C180.241 74.7937 180.239 74.7937 180.237 74.7937C180.235 74.7937 180.233 74.7937 180.231 74.7937C180.229 74.7937 180.227 74.7937 180.225 74.7937C180.223 74.7937 180.221 74.7937 180.219 74.7937C180.217 74.7937 180.215 74.7937 180.213 74.7937C180.21 74.7937 180.208 74.7937 180.206 74.7937C180.204 74.7937 180.202 74.7937 180.2 74.7937C180.198 74.7937 180.196 74.7937 180.194 74.7937C180.192 74.7937 180.19 74.7937 180.187 74.7937C180.185 74.7937 180.183 74.7937 180.181 74.7937C180.179 74.7937 180.177 74.7937 180.175 74.7937C180.173 74.7937 180.171 74.7937 180.168 74.7937C180.166 74.7937 180.164 74.7937 180.162 74.7937C180.16 74.7937 180.158 74.7937 180.156 74.7937C180.153 74.7937 180.151 74.7937 180.149 74.7937C180.147 74.7937 180.145 74.7937 180.143 74.7937C180.14 74.7937 180.138 74.7937 180.136 74.7937C180.134 74.7937 180.132 74.7937 180.13 74.7937C180.127 74.7937 180.125 74.7937 180.123 74.7937C180.121 74.7937 180.119 74.7937 180.116 74.7937C180.114 74.7937 180.112 74.7937 180.11 74.7937C180.108 74.7937 180.105 74.7937 180.103 74.7937C180.101 74.7937 180.099 74.7937 180.096 74.7937C180.094 74.7937 180.092 74.7937 180.09 74.7937C180.088 74.7937 180.085 74.7937 180.083 74.7937C180.081 74.7937 180.079 74.7937 180.076 74.7937C180.074 74.7937 180.072 74.7937 180.07 74.7937C180.067 74.7937 180.065 74.7937 180.063 74.7937C180.06 74.7937 180.058 74.7937 180.056 74.7937C180.054 74.7937 180.051 74.7937 180.049 74.7937C180.047 74.7937 180.044 74.7937 180.042 74.7937C180.04 74.7937 180.038 74.7937 180.035 74.7937C180.033 74.7937 180.031 74.7937 180.028 74.7937C180.026 74.7937 180.024 74.7937 180.021 74.7937C180.019 74.7937 180.017 74.7937 180.014 74.7937C180.012 74.7937 180.01 74.7937 180.007 74.7937C180.005 74.7937 180.003 74.7937 180 74.7937C179.998 74.7937 179.996 74.7937 179.993 74.7937C179.991 74.7937 179.989 74.7937 179.986 74.7937C179.984 74.7937 179.981 74.7937 179.979 74.7937C179.977 74.7937 179.974 74.7937 179.972 74.7937C179.97 74.7937 179.967 74.7937 179.965 74.7937C179.962 74.7937 179.96 74.7937 179.958 74.7937C179.955 74.7937 179.953 74.7937 179.95 74.7937C179.948 74.7937 179.946 74.7937 179.943 74.7937C179.941 74.7937 179.938 74.7937 179.936 74.7937C179.933 74.7937 179.931 74.7937 179.929 74.7937C179.926 74.7937 179.924 74.7937 179.921 74.7937C179.919 74.7937 179.916 74.7937 179.914 74.7937C179.911 74.7937 179.909 74.7937 179.907 74.7937C179.904 74.7937 179.902 74.7937 179.899 74.7937C179.897 74.7937 179.894 74.7937 179.892 74.7937C179.889 74.7937 179.887 74.7937 179.884 74.7937C179.882 74.7937 179.879 74.7937 179.877 74.7937C179.874 74.7937 179.872 74.7937 179.869 74.7937C179.867 74.7937 179.864 74.7937 179.862 74.7937C179.859 74.7937 179.857 74.7937 179.854 74.7937C179.852 74.7937 179.849 74.7937 179.847 74.7937C179.844 74.7937 179.842 74.7937 179.839 74.7937C179.836 74.7937 179.834 74.7937 179.831 74.7937C179.829 74.7937 179.826 74.7937 179.824 74.7937C179.821 74.7937 179.819 74.7937 179.816 74.7937C179.813 74.7937 179.811 74.7937 179.808 74.7937C179.806 74.7937 179.803 74.7937 179.801 74.7937C179.798 74.7937 179.795 74.7937 179.793 74.7937C179.79 74.7937 179.788 74.7937 179.785 74.7937C179.782 74.7937 179.78 74.7937 179.777 74.7937C179.775 74.7937 179.772 74.7937 179.769 74.7937C179.767 74.7937 179.764 74.7937 179.761 74.7937C179.759 74.7937 179.756 74.7937 179.754 74.7937C179.751 74.7937 179.748 74.7937 179.746 74.7937C179.743 74.7937 179.74 74.7937 179.738 74.7937C179.735 74.7937 179.732 74.7937 179.73 74.7937C179.727 74.7937 179.724 74.7937 179.722 74.7937C179.719 74.7937 179.716 74.7937 179.714 74.7937C179.711 74.7937 179.708 74.7937 179.706 74.7937C179.703 74.7937 179.7 74.7937 179.698 74.7937C179.695 74.7937 179.692 74.7937 179.689 74.7937C179.687 74.7937 179.684 74.7937 179.681 74.7937C179.679 74.7937 179.676 74.7937 179.673 74.7937C179.67 74.7937 179.668 74.7937 179.665 74.7937C179.662 74.7937 179.659 74.7937 179.657 74.7937C179.654 74.7937 179.651 74.7937 179.648 74.7937C179.646 74.7937 179.643 74.7937 179.64 74.7937C179.637 74.7937 179.635 74.7937 179.632 74.7937C179.629 74.7937 179.626 74.7937 179.624 74.7937C179.621 74.7937 179.618 74.7937 179.615 74.7937C179.612 74.7937 179.61 74.7937 179.607 74.7937C179.604 74.7937 179.601 74.7937 179.599 74.7937C179.596 74.7937 179.593 74.7937 179.59 74.7937C179.587 74.7937 179.584 74.7937 179.582 74.7937C179.579 74.7937 179.576 74.7937 179.573 74.7937C179.57 74.7937 179.568 74.7937 179.565 74.7937C179.562 74.7937 179.559 74.7937 179.556 74.7937C179.553 74.7937 179.55 74.7937 179.548 74.7937C179.545 74.7937 179.542 74.7937 179.539 74.7937C179.536 74.7937 179.533 74.7937 179.53 74.7937C179.528 74.7937 179.525 74.7937 179.522 74.7937C179.519 74.7937 179.516 74.7937 179.513 74.7937C179.51 74.7937 179.507 74.7937 179.504 74.7937C179.502 74.7937 179.499 74.7937 179.496 74.7937C179.493 74.7937 179.49 74.7937 179.487 74.7937C179.484 74.7937 179.481 74.7937 179.478 74.7937C179.475 74.7937 179.472 74.7937 179.469 74.7937C179.467 74.7937 179.464 74.7937 179.461 74.7937C179.458 74.7937 179.455 74.7937 179.452 74.7937C179.449 74.7937 179.446 74.7937 179.443 74.7937C179.44 74.7937 179.437 74.7937 179.434 74.7937C179.431 74.7937 179.428 74.7937 179.425 74.7937C179.422 74.7937 179.419 74.7937 179.416 74.7937C179.413 74.7937 179.41 74.7937 179.407 74.7937C179.404 74.7937 179.401 74.7937 179.398 74.7937C179.395 74.7937 179.392 74.7937 179.389 74.7937C179.386 74.7937 179.383 74.7937 179.38 74.7937C179.377 74.7937 179.374 74.7937 179.371 74.7937C179.368 74.7937 179.365 74.7937 179.362 74.7937C179.359 74.7937 179.356 74.7937 179.353 74.7937C179.35 74.7937 179.347 74.7937 179.344 74.7937C179.341 74.7937 179.338 74.7937 179.335 74.7937C179.332 74.7937 179.328 74.7937 179.325 74.7937C179.322 74.7937 179.319 74.7937 179.316 74.7937C179.313 74.7937 179.31 74.7937 179.307 74.7937C179.304 74.7937 179.301 74.7937 179.298 74.7937C179.295 74.7937 179.291 74.7937 179.288 74.7937C179.285 74.7937 179.282 74.7937 179.279 74.7937C179.276 74.7937 179.273 74.7937 179.27 74.7937C179.266 74.7937 179.263 74.7937 179.26 74.7937C179.257 74.7937 179.254 74.7937 179.251 74.7937C179.248 74.7937 179.245 74.7937 179.241 74.7937C179.238 74.7937 179.235 74.7937 179.232 74.7937C179.229 74.7937 179.226 74.7937 179.222 74.7937C179.219 74.7937 179.216 74.7937 179.213 74.7937C179.21 74.7937 179.207 74.7937 179.203 74.7937C179.2 74.7937 179.197 74.7937 179.194 74.7937C179.191 74.7937 179.187 74.7937 179.184 74.7937C179.181 74.7937 179.178 74.7937 179.175 74.7937C179.171 74.7937 179.168 74.7937 179.165 74.7937C179.162 74.7937 179.158 74.7937 179.155 74.7937C179.152 74.7937 179.149 74.7937 179.146 74.7937C179.142 74.7937 179.139 74.7937 179.136 74.7937C179.133 74.7937 179.129 74.7937 179.126 74.7937C179.123 74.7937 179.12 74.7937 179.116 74.7937C179.113 74.7937 179.11 74.7937 179.107 74.7937C179.103 74.7937 179.1 74.7937 179.097 74.7937C179.093 74.7937 179.09 74.7937 179.087 74.7937C179.084 74.7937 179.08 74.7937 179.077 74.7937C179.074 74.7937 179.07 74.7937 179.067 74.7937C179.064 74.7937 179.06 74.7937 179.057 74.7937C179.054 74.7937 179.05 74.7937 179.047 74.7937C179.044 74.7937 179.04 74.7937 179.037 74.7937C179.034 74.7937 179.03 74.7937 179.027 74.7937C179.024 74.7937 179.02 74.7937 179.017 74.7937C179.014 74.7937 179.01 74.7937 179.007 74.7937C179.004 74.7937 179 74.7937 178.997 74.7937C178.994 74.7937 178.99 74.7937 178.987 74.7937C178.983 74.7937 178.98 74.7937 178.977 74.7937C178.973 74.7937 178.97 74.7937 178.967 74.7937C178.963 74.7937 178.96 74.7937 178.956 74.7937C178.953 74.7937 178.95 74.7937 178.946 74.7937C178.943 74.7937 178.939 74.7937 178.936 74.7937C178.932 74.7937 178.929 74.7937 178.926 74.7937C178.922 74.7937 178.919 74.7937 178.915 74.7937C178.912 74.7937 178.908 74.7937 178.905 74.7937C178.902 74.7937 178.898 74.7937 178.895 74.7937C178.891 74.7937 178.888 74.7937 178.884 74.7937C178.881 74.7937 178.877 74.7937 178.874 74.7937C178.87 74.7937 178.867 74.7937 178.863 74.7937C178.86 74.7937 178.856 74.7937 178.853 74.7937C178.849 74.7937 178.846 74.7937 178.842 74.7937C178.839 74.7937 178.835 74.7937 178.832 74.7937C178.828 74.7937 178.825 74.7937 178.821 74.7937C178.818 74.7937 178.814 74.7937 178.811 74.7937C178.807 74.7937 178.804 74.7937 178.8 74.7937C178.797 74.7937 178.793 74.7937 178.79 74.7937C178.786 74.7937 178.783 74.7937 178.779 74.7937C178.775 74.7937 178.772 74.7937 178.768 74.7937C178.765 74.7937 178.761 74.7937 178.758 74.7937C178.754 74.7937 178.751 74.7937 178.747 74.7937C178.743 74.7937 178.74 74.7937 178.736 74.7937C178.733 74.7937 178.729 74.7937 178.725 74.7937C178.722 74.7937 178.718 74.7937 178.715 74.7937C178.711 74.7937 178.707 74.7937 178.704 74.7937C178.7 74.7937 178.697 74.7937 178.693 74.7937C178.689 74.7937 178.686 74.7937 178.682 74.7937C178.678 74.7937 178.675 74.7937 178.671 74.7937C178.668 74.7937 178.664 74.7937 178.66 74.7937C178.657 74.7937 178.653 74.7937 178.649 74.7937C178.646 74.7937 178.642 74.7937 178.638 74.7937C178.635 74.7937 178.631 74.7937 178.627 74.7937C178.624 74.7937 178.62 74.7937 178.616 74.7937C178.613 74.7937 178.609 74.7937 178.605 74.7937C178.602 74.7937 178.598 74.7937 178.594 74.7937C178.59 74.7937 178.587 74.7937 178.583 74.7937C178.579 74.7937 178.576 74.7937 178.572 74.7937C178.568 74.7937 178.564 74.7937 178.561 74.7937C178.557 74.7937 178.553 74.7937 178.55 74.7937C178.546 74.7937 178.542 74.7937 178.538 74.7937C178.535 74.7937 178.531 74.7937 178.527 74.7937C178.523 74.7937 178.52 74.7937 178.516 74.7937C178.512 74.7937 178.508 74.7937 178.505 74.7937C178.501 74.7937 178.497 74.7937 178.493 74.7937C178.489 74.7937 178.486 74.7937 178.482 74.7937C178.478 74.7937 178.474 74.7937 178.471 74.7937C178.467 74.7937 178.463 74.7937 178.459 74.7937C178.455 74.7937 178.452 74.7937 178.448 74.7937C178.444 74.7937 178.44 74.7937 178.436 74.7937C178.432 74.7937 178.429 74.7937 178.425 74.7937C178.421 74.7937 178.417 74.7937 178.413 74.7937C178.409 74.7937 178.406 74.7937 178.402 74.7937C178.398 74.7937 178.394 74.7937 178.39 74.7937C178.386 74.7937 178.383 74.7937 178.379 74.7937C178.375 74.7937 178.371 74.7937 178.367 74.7937C178.363 74.7937 178.359 74.7937 178.355 74.7937C178.352 74.7937 178.348 74.7937 178.344 74.7937C178.34 74.7937 178.336 74.7937 178.332 74.7937C178.328 74.7937 178.324 74.7937 178.32 74.7937C178.316 74.7937 178.313 74.7937 178.309 74.7937C178.305 74.7937 178.301 74.7937 178.297 74.7937C178.293 74.7937 178.289 74.7937 178.285 74.7937C178.281 74.7937 178.277 74.7937 178.273 74.7937C178.269 74.7937 178.265 74.7937 178.261 74.7937C178.257 74.7937 178.254 74.7937 178.25 74.7937C178.246 74.7937 178.242 74.7937 178.238 74.7937C178.234 74.7937 178.23 74.7937 178.226 74.7937C178.222 74.7937 178.218 74.7937 178.214 74.7937C178.21 74.7937 178.206 74.7937 178.202 74.7937C178.198 74.7937 178.194 74.7937 178.19 74.7937C178.186 74.7937 178.182 74.7937 178.178 74.7937C178.174 74.7937 178.17 74.7937 178.166 74.7937C178.162 74.7937 178.158 74.7937 178.154 74.7937C178.15 74.7937 178.146 74.7937 178.142 74.7937C178.138 74.7937 178.134 74.7937 178.129 74.7937C178.125 74.7937 178.121 74.7937 178.117 74.7937C178.113 74.7937 178.109 74.7937 178.105 74.7937C178.101 74.7937 178.097 74.7937 178.093 74.7937C178.089 74.7937 178.085 74.7937 178.081 74.7937C178.077 74.7937 178.073 74.7937 178.068 74.7937C178.064 74.7937 178.06 74.7937 178.056 74.7937C178.052 74.7937 178.048 74.7937 178.044 74.7937C178.04 74.7937 178.036 74.7937 178.032 74.7937C178.027 74.7937 178.023 74.7937 178.019 74.7937C178.015 74.7937 178.011 74.7937 178.007 74.7937C178.003 74.7937 177.999 74.7937 177.994 74.7937C177.99 74.7937 177.986 74.7937 177.982 74.7937C177.978 74.7937 177.974 74.7937 177.969 74.7937C177.965 74.7937 177.961 74.7937 177.957 74.7937C177.953 74.7937 177.949 74.7937 177.944 74.7937C177.94 74.7937 177.936 74.7937 177.932 74.7937C177.928 74.7937 177.924 74.7937 177.919 74.7937C177.915 74.7937 177.911 74.7937 177.907 74.7937C177.903 74.7937 177.898 74.7937 177.894 74.7937C177.89 74.7937 177.886 74.7937 177.881 74.7937C177.877 74.7937 177.873 74.7937 177.869 74.7937C177.865 74.7937 177.86 74.7937 177.856 74.7937C177.852 74.7937 177.848 74.7937 177.843 74.7937C177.839 74.7937 177.835 74.7937 177.831 74.7937C177.826 74.7937 177.822 74.7937 177.818 74.7937C177.814 74.7937 177.809 74.7937 177.805 74.7937C177.801 74.7937 177.796 74.7937 177.792 74.7937C177.788 74.7937 177.784 74.7937 177.779 74.7937C177.775 74.7937 177.771 74.7937 177.766 74.7937C177.762 74.7937 177.758 74.7937 177.754 74.7937C177.749 74.7937 177.745 74.7937 177.741 74.7937C177.736 74.7937 177.732 74.7937 177.728 74.7937C177.723 74.7937 177.719 74.7937 177.715 74.7937C177.71 74.7937 177.706 74.7937 177.702 74.7937C177.697 74.7937 177.693 74.7937 177.689 74.7937C177.684 74.7937 177.68 74.7937 177.676 74.7937C177.671 74.7937 177.667 74.7937 177.662 74.7937C177.658 74.7937 177.654 74.7937 177.649 74.7937C177.645 74.7937 177.641 74.7937 177.636 74.7937C177.632 74.7937 177.627 74.7937 177.623 74.7937C177.619 74.7937 177.614 74.7937 177.61 74.7937C177.605 74.7937 177.601 74.7937 177.597 74.7937C177.592 74.7937 177.588 74.7937 177.583 74.7937C177.579 74.7937 177.574 74.7937 177.57 74.7937C177.566 74.7937 177.561 74.7937 177.557 74.7937C177.552 74.7937 177.548 74.7937 177.543 74.7937C177.539 74.7937 177.535 74.7937 177.53 74.7937V75.0938V75.3938C177.535 75.3938 177.539 75.3938 177.543 75.3938C177.548 75.3938 177.552 75.3938 177.557 75.3938C177.561 75.3938 177.566 75.3938 177.57 75.3938C177.574 75.3938 177.579 75.3938 177.583 75.3938C177.588 75.3938 177.592 75.3938 177.597 75.3938C177.601 75.3938 177.605 75.3938 177.61 75.3938C177.614 75.3938 177.619 75.3938 177.623 75.3938C177.627 75.3938 177.632 75.3938 177.636 75.3938C177.641 75.3938 177.645 75.3938 177.649 75.3938C177.654 75.3938 177.658 75.3938 177.662 75.3938C177.667 75.3938 177.671 75.3938 177.676 75.3938C177.68 75.3938 177.684 75.3938 177.689 75.3938C177.693 75.3938 177.697 75.3938 177.702 75.3938C177.706 75.3938 177.71 75.3938 177.715 75.3938C177.719 75.3938 177.723 75.3938 177.728 75.3938C177.732 75.3938 177.736 75.3938 177.741 75.3938C177.745 75.3938 177.749 75.3938 177.754 75.3938C177.758 75.3938 177.762 75.3938 177.766 75.3938C177.771 75.3938 177.775 75.3938 177.779 75.3938C177.784 75.3938 177.788 75.3938 177.792 75.3938C177.796 75.3938 177.801 75.3938 177.805 75.3938C177.809 75.3938 177.814 75.3938 177.818 75.3938C177.822 75.3938 177.826 75.3938 177.831 75.3938C177.835 75.3938 177.839 75.3938 177.843 75.3938C177.848 75.3938 177.852 75.3938 177.856 75.3938C177.86 75.3938 177.865 75.3938 177.869 75.3938C177.873 75.3938 177.877 75.3938 177.881 75.3938C177.886 75.3938 177.89 75.3938 177.894 75.3938C177.898 75.3938 177.903 75.3938 177.907 75.3938C177.911 75.3938 177.915 75.3938 177.919 75.3938C177.924 75.3938 177.928 75.3938 177.932 75.3938C177.936 75.3938 177.94 75.3938 177.944 75.3938C177.949 75.3938 177.953 75.3938 177.957 75.3938C177.961 75.3938 177.965 75.3938 177.969 75.3938C177.974 75.3938 177.978 75.3938 177.982 75.3938C177.986 75.3938 177.99 75.3938 177.994 75.3938C177.999 75.3938 178.003 75.3938 178.007 75.3938C178.011 75.3938 178.015 75.3938 178.019 75.3938C178.023 75.3938 178.027 75.3938 178.032 75.3938C178.036 75.3938 178.04 75.3938 178.044 75.3938C178.048 75.3938 178.052 75.3938 178.056 75.3938C178.06 75.3938 178.064 75.3938 178.068 75.3938C178.073 75.3938 178.077 75.3938 178.081 75.3938C178.085 75.3938 178.089 75.3938 178.093 75.3938C178.097 75.3938 178.101 75.3938 178.105 75.3938C178.109 75.3938 178.113 75.3938 178.117 75.3938C178.121 75.3938 178.125 75.3938 178.129 75.3938C178.134 75.3938 178.138 75.3938 178.142 75.3938C178.146 75.3938 178.15 75.3938 178.154 75.3938C178.158 75.3938 178.162 75.3938 178.166 75.3938C178.17 75.3938 178.174 75.3938 178.178 75.3938C178.182 75.3938 178.186 75.3938 178.19 75.3938C178.194 75.3938 178.198 75.3938 178.202 75.3938C178.206 75.3938 178.21 75.3938 178.214 75.3938C178.218 75.3938 178.222 75.3938 178.226 75.3938C178.23 75.3938 178.234 75.3938 178.238 75.3938C178.242 75.3938 178.246 75.3938 178.25 75.3938C178.254 75.3938 178.257 75.3938 178.261 75.3938C178.265 75.3938 178.269 75.3938 178.273 75.3938C178.277 75.3938 178.281 75.3938 178.285 75.3938C178.289 75.3938 178.293 75.3938 178.297 75.3938C178.301 75.3938 178.305 75.3938 178.309 75.3938C178.313 75.3938 178.316 75.3938 178.32 75.3938C178.324 75.3938 178.328 75.3938 178.332 75.3938C178.336 75.3938 178.34 75.3938 178.344 75.3938C178.348 75.3938 178.352 75.3938 178.355 75.3938C178.359 75.3938 178.363 75.3938 178.367 75.3938C178.371 75.3938 178.375 75.3938 178.379 75.3938C178.383 75.3938 178.386 75.3938 178.39 75.3938C178.394 75.3938 178.398 75.3938 178.402 75.3938C178.406 75.3938 178.409 75.3938 178.413 75.3938C178.417 75.3938 178.421 75.3938 178.425 75.3938C178.429 75.3938 178.432 75.3938 178.436 75.3938C178.44 75.3938 178.444 75.3938 178.448 75.3938C178.452 75.3938 178.455 75.3938 178.459 75.3938C178.463 75.3938 178.467 75.3938 178.471 75.3938C178.474 75.3938 178.478 75.3938 178.482 75.3938C178.486 75.3938 178.489 75.3938 178.493 75.3938C178.497 75.3938 178.501 75.3938 178.505 75.3938C178.508 75.3938 178.512 75.3938 178.516 75.3938C178.52 75.3938 178.523 75.3938 178.527 75.3938C178.531 75.3938 178.535 75.3938 178.538 75.3938C178.542 75.3938 178.546 75.3938 178.55 75.3938C178.553 75.3938 178.557 75.3938 178.561 75.3938C178.564 75.3938 178.568 75.3938 178.572 75.3938C178.576 75.3938 178.579 75.3938 178.583 75.3938C178.587 75.3938 178.59 75.3938 178.594 75.3938C178.598 75.3938 178.602 75.3938 178.605 75.3938C178.609 75.3938 178.613 75.3938 178.616 75.3938C178.62 75.3938 178.624 75.3938 178.627 75.3938C178.631 75.3938 178.635 75.3938 178.638 75.3938C178.642 75.3938 178.646 75.3938 178.649 75.3938C178.653 75.3938 178.657 75.3938 178.66 75.3938C178.664 75.3938 178.668 75.3938 178.671 75.3938C178.675 75.3938 178.678 75.3938 178.682 75.3938C178.686 75.3938 178.689 75.3938 178.693 75.3938C178.697 75.3938 178.7 75.3938 178.704 75.3938C178.707 75.3938 178.711 75.3938 178.715 75.3938C178.718 75.3938 178.722 75.3938 178.725 75.3938C178.729 75.3938 178.733 75.3938 178.736 75.3938C178.74 75.3938 178.743 75.3938 178.747 75.3938C178.751 75.3938 178.754 75.3938 178.758 75.3938C178.761 75.3938 178.765 75.3938 178.768 75.3938C178.772 75.3938 178.775 75.3938 178.779 75.3938C178.783 75.3938 178.786 75.3938 178.79 75.3938C178.793 75.3938 178.797 75.3938 178.8 75.3938C178.804 75.3938 178.807 75.3938 178.811 75.3938C178.814 75.3938 178.818 75.3938 178.821 75.3938C178.825 75.3938 178.828 75.3938 178.832 75.3938C178.835 75.3938 178.839 75.3938 178.842 75.3938C178.846 75.3938 178.849 75.3938 178.853 75.3938C178.856 75.3938 178.86 75.3938 178.863 75.3938C178.867 75.3938 178.87 75.3938 178.874 75.3938C178.877 75.3938 178.881 75.3938 178.884 75.3938C178.888 75.3938 178.891 75.3938 178.895 75.3938C178.898 75.3938 178.902 75.3938 178.905 75.3938C178.908 75.3938 178.912 75.3938 178.915 75.3938C178.919 75.3938 178.922 75.3938 178.926 75.3938C178.929 75.3938 178.932 75.3938 178.936 75.3938C178.939 75.3938 178.943 75.3938 178.946 75.3938C178.95 75.3938 178.953 75.3938 178.956 75.3938C178.96 75.3938 178.963 75.3938 178.967 75.3938C178.97 75.3938 178.973 75.3938 178.977 75.3938C178.98 75.3938 178.983 75.3938 178.987 75.3938C178.99 75.3938 178.994 75.3938 178.997 75.3938C179 75.3938 179.004 75.3938 179.007 75.3938C179.01 75.3938 179.014 75.3938 179.017 75.3938C179.02 75.3938 179.024 75.3938 179.027 75.3938C179.03 75.3938 179.034 75.3938 179.037 75.3938C179.04 75.3938 179.044 75.3938 179.047 75.3938C179.05 75.3938 179.054 75.3938 179.057 75.3938C179.06 75.3938 179.064 75.3938 179.067 75.3938C179.07 75.3938 179.074 75.3938 179.077 75.3938C179.08 75.3938 179.084 75.3938 179.087 75.3938C179.09 75.3938 179.093 75.3938 179.097 75.3938C179.1 75.3938 179.103 75.3938 179.107 75.3938C179.11 75.3938 179.113 75.3938 179.116 75.3938C179.12 75.3938 179.123 75.3938 179.126 75.3938C179.129 75.3938 179.133 75.3938 179.136 75.3938C179.139 75.3938 179.142 75.3938 179.146 75.3938C179.149 75.3938 179.152 75.3938 179.155 75.3938C179.158 75.3938 179.162 75.3938 179.165 75.3938C179.168 75.3938 179.171 75.3938 179.175 75.3938C179.178 75.3938 179.181 75.3938 179.184 75.3938C179.187 75.3938 179.191 75.3938 179.194 75.3938C179.197 75.3938 179.2 75.3938 179.203 75.3938C179.207 75.3938 179.21 75.3938 179.213 75.3938C179.216 75.3938 179.219 75.3938 179.222 75.3938C179.226 75.3938 179.229 75.3938 179.232 75.3938C179.235 75.3938 179.238 75.3938 179.241 75.3938C179.245 75.3938 179.248 75.3938 179.251 75.3938C179.254 75.3938 179.257 75.3938 179.26 75.3938C179.263 75.3938 179.266 75.3938 179.27 75.3938C179.273 75.3938 179.276 75.3938 179.279 75.3938C179.282 75.3938 179.285 75.3938 179.288 75.3938C179.291 75.3938 179.295 75.3938 179.298 75.3938C179.301 75.3938 179.304 75.3938 179.307 75.3938C179.31 75.3938 179.313 75.3938 179.316 75.3938C179.319 75.3938 179.322 75.3938 179.325 75.3938C179.328 75.3938 179.332 75.3938 179.335 75.3938C179.338 75.3938 179.341 75.3938 179.344 75.3938C179.347 75.3938 179.35 75.3938 179.353 75.3938C179.356 75.3938 179.359 75.3938 179.362 75.3938C179.365 75.3938 179.368 75.3938 179.371 75.3938C179.374 75.3938 179.377 75.3938 179.38 75.3938C179.383 75.3938 179.386 75.3938 179.389 75.3938C179.392 75.3938 179.395 75.3938 179.398 75.3938C179.401 75.3938 179.404 75.3938 179.407 75.3938C179.41 75.3938 179.413 75.3938 179.416 75.3938C179.419 75.3938 179.422 75.3938 179.425 75.3938C179.428 75.3938 179.431 75.3938 179.434 75.3938C179.437 75.3938 179.44 75.3938 179.443 75.3938C179.446 75.3938 179.449 75.3938 179.452 75.3938C179.455 75.3938 179.458 75.3938 179.461 75.3938C179.464 75.3938 179.467 75.3938 179.469 75.3938C179.472 75.3938 179.475 75.3938 179.478 75.3938C179.481 75.3938 179.484 75.3938 179.487 75.3938C179.49 75.3938 179.493 75.3938 179.496 75.3938C179.499 75.3938 179.502 75.3938 179.504 75.3938C179.507 75.3938 179.51 75.3938 179.513 75.3938C179.516 75.3938 179.519 75.3938 179.522 75.3938C179.525 75.3938 179.528 75.3938 179.53 75.3938C179.533 75.3938 179.536 75.3938 179.539 75.3938C179.542 75.3938 179.545 75.3938 179.548 75.3938C179.55 75.3938 179.553 75.3938 179.556 75.3938C179.559 75.3938 179.562 75.3938 179.565 75.3938C179.568 75.3938 179.57 75.3938 179.573 75.3938C179.576 75.3938 179.579 75.3938 179.582 75.3938C179.584 75.3938 179.587 75.3938 179.59 75.3938C179.593 75.3938 179.596 75.3938 179.599 75.3938C179.601 75.3938 179.604 75.3938 179.607 75.3938C179.61 75.3938 179.612 75.3938 179.615 75.3938C179.618 75.3938 179.621 75.3938 179.624 75.3938C179.626 75.3938 179.629 75.3938 179.632 75.3938C179.635 75.3938 179.637 75.3938 179.64 75.3938C179.643 75.3938 179.646 75.3938 179.648 75.3938C179.651 75.3938 179.654 75.3938 179.657 75.3938C179.659 75.3938 179.662 75.3938 179.665 75.3938C179.668 75.3938 179.67 75.3938 179.673 75.3938C179.676 75.3938 179.679 75.3938 179.681 75.3938C179.684 75.3938 179.687 75.3938 179.689 75.3938C179.692 75.3938 179.695 75.3938 179.698 75.3938C179.7 75.3938 179.703 75.3938 179.706 75.3938C179.708 75.3938 179.711 75.3938 179.714 75.3938C179.716 75.3938 179.719 75.3938 179.722 75.3938C179.724 75.3938 179.727 75.3938 179.73 75.3938C179.732 75.3938 179.735 75.3938 179.738 75.3938C179.74 75.3938 179.743 75.3938 179.746 75.3938C179.748 75.3938 179.751 75.3938 179.754 75.3938C179.756 75.3938 179.759 75.3938 179.761 75.3938C179.764 75.3938 179.767 75.3938 179.769 75.3938C179.772 75.3938 179.775 75.3938 179.777 75.3938C179.78 75.3938 179.782 75.3938 179.785 75.3938C179.788 75.3938 179.79 75.3938 179.793 75.3938C179.795 75.3938 179.798 75.3938 179.801 75.3938C179.803 75.3938 179.806 75.3938 179.808 75.3938C179.811 75.3938 179.813 75.3938 179.816 75.3938C179.819 75.3938 179.821 75.3938 179.824 75.3938C179.826 75.3938 179.829 75.3938 179.831 75.3938C179.834 75.3938 179.836 75.3938 179.839 75.3938C179.842 75.3938 179.844 75.3938 179.847 75.3938C179.849 75.3938 179.852 75.3938 179.854 75.3938C179.857 75.3938 179.859 75.3938 179.862 75.3938C179.864 75.3938 179.867 75.3938 179.869 75.3938C179.872 75.3938 179.874 75.3938 179.877 75.3938C179.879 75.3938 179.882 75.3938 179.884 75.3938C179.887 75.3938 179.889 75.3938 179.892 75.3938C179.894 75.3938 179.897 75.3938 179.899 75.3938C179.902 75.3938 179.904 75.3938 179.907 75.3938C179.909 75.3938 179.911 75.3938 179.914 75.3938C179.916 75.3938 179.919 75.3938 179.921 75.3938C179.924 75.3938 179.926 75.3938 179.929 75.3938C179.931 75.3938 179.933 75.3938 179.936 75.3938C179.938 75.3938 179.941 75.3938 179.943 75.3938C179.946 75.3938 179.948 75.3938 179.95 75.3938C179.953 75.3938 179.955 75.3938 179.958 75.3938C179.96 75.3938 179.962 75.3938 179.965 75.3938C179.967 75.3938 179.97 75.3938 179.972 75.3938C179.974 75.3938 179.977 75.3938 179.979 75.3938C179.981 75.3938 179.984 75.3938 179.986 75.3938C179.989 75.3938 179.991 75.3938 179.993 75.3938C179.996 75.3938 179.998 75.3938 180 75.3938C180.003 75.3938 180.005 75.3938 180.007 75.3938C180.01 75.3938 180.012 75.3938 180.014 75.3938C180.017 75.3938 180.019 75.3938 180.021 75.3938C180.024 75.3938 180.026 75.3938 180.028 75.3938C180.031 75.3938 180.033 75.3938 180.035 75.3938C180.038 75.3938 180.04 75.3938 180.042 75.3938C180.044 75.3938 180.047 75.3938 180.049 75.3938C180.051 75.3938 180.054 75.3938 180.056 75.3938C180.058 75.3938 180.06 75.3938 180.063 75.3938C180.065 75.3938 180.067 75.3938 180.07 75.3938C180.072 75.3938 180.074 75.3938 180.076 75.3938C180.079 75.3938 180.081 75.3938 180.083 75.3938C180.085 75.3938 180.088 75.3938 180.09 75.3938C180.092 75.3938 180.094 75.3938 180.096 75.3938C180.099 75.3938 180.101 75.3938 180.103 75.3938C180.105 75.3938 180.108 75.3938 180.11 75.3938C180.112 75.3938 180.114 75.3938 180.116 75.3938C180.119 75.3938 180.121 75.3938 180.123 75.3938C180.125 75.3938 180.127 75.3938 180.13 75.3938C180.132 75.3938 180.134 75.3938 180.136 75.3938C180.138 75.3938 180.14 75.3938 180.143 75.3938C180.145 75.3938 180.147 75.3938 180.149 75.3938C180.151 75.3938 180.153 75.3938 180.156 75.3938C180.158 75.3938 180.16 75.3938 180.162 75.3938C180.164 75.3938 180.166 75.3938 180.168 75.3938C180.171 75.3938 180.173 75.3938 180.175 75.3938C180.177 75.3938 180.179 75.3938 180.181 75.3938C180.183 75.3938 180.185 75.3938 180.187 75.3938C180.19 75.3938 180.192 75.3938 180.194 75.3938C180.196 75.3938 180.198 75.3938 180.2 75.3938C180.202 75.3938 180.204 75.3938 180.206 75.3938C180.208 75.3938 180.21 75.3938 180.213 75.3938C180.215 75.3938 180.217 75.3938 180.219 75.3938C180.221 75.3938 180.223 75.3938 180.225 75.3938C180.227 75.3938 180.229 75.3938 180.231 75.3938C180.233 75.3938 180.235 75.3938 180.237 75.3938C180.239 75.3938 180.241 75.3938 180.243 75.3938C180.245 75.3938 180.247 75.3938 180.249 75.3938C180.251 75.3938 180.253 75.3938 180.255 75.3938C180.257 75.3938 180.259 75.3938 180.261 75.3938C180.263 75.3938 180.265 75.3938 180.267 75.3938C180.269 75.3938 180.271 75.3938 180.273 75.3938C180.275 75.3938 180.277 75.3938 180.279 75.3938C180.281 75.3938 180.283 75.3938 180.285 75.3938C180.287 75.3938 180.289 75.3938 180.291 75.3938C180.293 75.3938 180.295 75.3938 180.297 75.3938C180.299 75.3938 180.301 75.3938 180.303 75.3938C180.305 75.3938 180.307 75.3938 180.309 75.3938C180.311 75.3938 180.312 75.3938 180.314 75.3938C180.316 75.3938 180.318 75.3938 180.32 75.3938C180.322 75.3938 180.324 75.3938 180.326 75.3938C180.328 75.3938 180.33 75.3938 180.332 75.3938C180.333 75.3938 180.335 75.3938 180.337 75.3938C180.339 75.3938 180.341 75.3938 180.343 75.3938C180.345 75.3938 180.347 75.3938 180.349 75.3938C180.35 75.3938 180.352 75.3938 180.354 75.3938C180.356 75.3938 180.358 75.3938 180.36 75.3938C180.362 75.3938 180.363 75.3938 180.365 75.3938C180.367 75.3938 180.369 75.3938 180.371 75.3938C180.373 75.3938 180.374 75.3938 180.376 75.3938C180.378 75.3938 180.38 75.3938 180.382 75.3938C180.384 75.3938 180.385 75.3938 180.387 75.3938C180.389 75.3938 180.391 75.3938 180.393 75.3938C180.394 75.3938 180.396 75.3938 180.398 75.3938C180.4 75.3938 180.402 75.3938 180.403 75.3938C180.405 75.3938 180.407 75.3938 180.409 75.3938C180.41 75.3938 180.412 75.3938 180.414 75.3938C180.416 75.3938 180.418 75.3938 180.419 75.3938C180.421 75.3938 180.423 75.3938 180.425 75.3938C180.426 75.3938 180.428 75.3938 180.43 75.3938C180.432 75.3938 180.433 75.3938 180.435 75.3938C180.437 75.3938 180.438 75.3938 180.44 75.3938C180.442 75.3938 180.444 75.3938 180.445 75.3938C180.447 75.3938 180.449 75.3938 180.45 75.3938C180.452 75.3938 180.454 75.3938 180.456 75.3938C180.457 75.3938 180.459 75.3938 180.461 75.3938C180.462 75.3938 180.464 75.3938 180.466 75.3938C180.467 75.3938 180.469 75.3938 180.471 75.3938C180.472 75.3938 180.474 75.3938 180.476 75.3938C180.477 75.3938 180.479 75.3938 180.481 75.3938C180.482 75.3938 180.484 75.3938 180.486 75.3938C180.487 75.3938 180.489 75.3938 180.491 75.3938C180.492 75.3938 180.494 75.3938 180.495 75.3938C180.497 75.3938 180.499 75.3938 180.5 75.3938C180.502 75.3938 180.504 75.3938 180.505 75.3938C180.507 75.3938 180.508 75.3938 180.51 75.3938C180.512 75.3938 180.513 75.3938 180.515 75.3938C180.516 75.3938 180.518 75.3938 180.52 75.3938C180.521 75.3938 180.523 75.3938 180.524 75.3938C180.526 75.3938 180.527 75.3938 180.529 75.3938C180.531 75.3938 180.532 75.3938 180.534 75.3938C180.535 75.3938 180.537 75.3938 180.538 75.3938C180.54 75.3938 180.541 75.3938 180.543 75.3938C180.545 75.3938 180.546 75.3938 180.548 75.3938C180.549 75.3938 180.551 75.3938 180.552 75.3938C180.554 75.3938 180.555 75.3938 180.557 75.3938C180.558 75.3938 180.56 75.3938 180.561 75.3938C180.563 75.3938 180.564 75.3938 180.566 75.3938C180.567 75.3938 180.569 75.3938 180.57 75.3938C180.572 75.3938 180.573 75.3938 180.575 75.3938C180.576 75.3938 180.578 75.3938 180.579 75.3938C180.581 75.3938 180.582 75.3938 180.584 75.3938C180.585 75.3938 180.586 75.3938 180.588 75.3938C180.589 75.3938 180.591 75.3938 180.592 75.3938C180.594 75.3938 180.595 75.3938 180.597 75.3938C180.598 75.3938 180.599 75.3938 180.601 75.3938C180.602 75.3938 180.604 75.3938 180.605 75.3938C180.607 75.3938 180.608 75.3938 180.609 75.3938C180.611 75.3938 180.612 75.3938 180.614 75.3938C180.615 75.3938 180.616 75.3938 180.618 75.3938C180.619 75.3938 180.621 75.3938 180.622 75.3938C180.623 75.3938 180.625 75.3938 180.626 75.3938C180.627 75.3938 180.629 75.3938 180.63 75.3938C180.632 75.3938 180.633 75.3938 180.634 75.3938C180.636 75.3938 180.637 75.3938 180.638 75.3938C180.64 75.3938 180.641 75.3938 180.642 75.3938C180.644 75.3938 180.645 75.3938 180.646 75.3938C180.648 75.3938 180.649 75.3938 180.65 75.3938C180.652 75.3938 180.653 75.3938 180.654 75.3938C180.656 75.3938 180.657 75.3938 180.658 75.3938C180.66 75.3938 180.661 75.3938 180.662 75.3938C180.663 75.3938 180.665 75.3938 180.666 75.3938C180.667 75.3938 180.669 75.3938 180.67 75.3938C180.671 75.3938 180.672 75.3938 180.674 75.3938C180.675 75.3938 180.676 75.3938 180.678 75.3938C180.679 75.3938 180.68 75.3938 180.681 75.3938C180.683 75.3938 180.684 75.3938 180.685 75.3938C180.686 75.3938 180.688 75.3938 180.689 75.3938C180.69 75.3938 180.691 75.3938 180.692 75.3938C180.694 75.3938 180.695 75.3938 180.696 75.3938C180.697 75.3938 180.699 75.3938 180.7 75.3938C180.701 75.3938 180.702 75.3938 180.703 75.3938C180.705 75.3938 180.706 75.3938 180.707 75.3938C180.708 75.3938 180.709 75.3938 180.711 75.3938C180.712 75.3938 180.713 75.3938 180.714 75.3938C180.715 75.3938 180.716 75.3938 180.718 75.3938C180.719 75.3938 180.72 75.3938 180.721 75.3938C180.722 75.3938 180.723 75.3938 180.725 75.3938C180.726 75.3938 180.727 75.3938 180.728 75.3938C180.729 75.3938 180.73 75.3938 180.731 75.3938C180.732 75.3938 180.734 75.3938 180.735 75.3938C180.736 75.3938 180.737 75.3938 180.738 75.3938C180.739 75.3938 180.74 75.3938 180.741 75.3938C180.743 75.3938 180.744 75.3938 180.745 75.3938C180.746 75.3938 180.747 75.3938 180.748 75.3938C180.749 75.3938 180.75 75.3938 180.751 75.3938C180.752 75.3938 180.753 75.3938 180.754 75.3938C180.756 75.3938 180.757 75.3938 180.758 75.3938C180.759 75.3938 180.76 75.3938 180.761 75.3938C180.762 75.3938 180.763 75.3938 180.764 75.3938C180.765 75.3938 180.766 75.3938 180.767 75.3938C180.768 75.3938 180.769 75.3938 180.77 75.3938C180.771 75.3938 180.772 75.3938 180.773 75.3938C180.774 75.3938 180.775 75.3938 180.776 75.3938C180.777 75.3938 180.778 75.3938 180.779 75.3938C180.78 75.3938 180.781 75.3938 180.782 75.3938C180.783 75.3938 180.784 75.3938 180.785 75.3938C180.786 75.3938 180.787 75.3938 180.788 75.3938C180.789 75.3938 180.79 75.3938 180.791 75.3938C180.792 75.3938 180.793 75.3938 180.794 75.3938C180.795 75.3938 180.796 75.3938 180.797 75.3938C180.798 75.3938 180.799 75.3938 180.8 75.3938C180.801 75.3938 180.802 75.3938 180.803 75.3938C180.803 75.3938 180.804 75.3938 180.805 75.3938C180.806 75.3938 180.807 75.3938 180.808 75.3938C180.809 75.3938 180.81 75.3938 180.811 75.3938C180.812 75.3938 180.813 75.3938 180.813 75.3938C180.814 75.3938 180.815 75.3938 180.816 75.3938C180.817 75.3938 180.818 75.3938 180.819 75.3938C180.82 75.3938 180.821 75.3938 180.821 75.3938C180.822 75.3938 180.823 75.3938 180.824 75.3938C180.825 75.3938 180.826 75.3938 180.827 75.3938C180.827 75.3938 180.828 75.3938 180.829 75.3938C180.83 75.3938 180.831 75.3938 180.832 75.3938C180.832 75.3938 180.833 75.3938 180.834 75.3938C180.835 75.3938 180.836 75.3938 180.837 75.3938C180.837 75.3938 180.838 75.3938 180.839 75.3938C180.84 75.3938 180.841 75.3938 180.841 75.3938C180.842 75.3938 180.843 75.3938 180.844 75.3938C180.845 75.3938 180.845 75.3938 180.846 75.3938C180.847 75.3938 180.848 75.3938 180.849 75.3938C180.849 75.3938 180.85 75.3938 180.851 75.3938C180.852 75.3938 180.852 75.3938 180.853 75.3938C180.854 75.3938 180.855 75.3938 180.855 75.3938C180.856 75.3938 180.857 75.3938 180.858 75.3938C180.858 75.3938 180.859 75.3938 180.86 75.3938C180.861 75.3938 180.861 75.3938 180.862 75.3938C180.863 75.3938 180.863 75.3938 180.864 75.3938C180.865 75.3938 180.866 75.3938 180.866 75.3938C180.867 75.3938 180.868 75.3938 180.868 75.3938C180.869 75.3938 180.87 75.3938 180.87 75.3938C180.871 75.3938 180.872 75.3938 180.873 75.3938C180.873 75.3938 180.874 75.3938 180.875 75.3938C180.875 75.3938 180.876 75.3938 180.877 75.3938C180.877 75.3938 180.878 75.3938 180.879 75.3938C180.879 75.3938 180.88 75.3938 180.88 75.3938C180.881 75.3938 180.882 75.3938 180.882 75.3938C180.883 75.3938 180.884 75.3938 180.884 75.3938C180.885 75.3938 180.886 75.3938 180.886 75.3938C180.887 75.3938 180.887 75.3938 180.888 75.3938C180.889 75.3938 180.889 75.3938 180.89 75.3938C180.89 75.3938 180.891 75.3938 180.892 75.3938C180.892 75.3938 180.893 75.3938 180.893 75.3938C180.894 75.3938 180.895 75.3938 180.895 75.3938C180.896 75.3938 180.896 75.3938 180.897 75.3938C180.897 75.3938 180.898 75.3938 180.898 75.3938C180.899 75.3938 180.9 75.3938 180.9 75.3938C180.901 75.3938 180.901 75.3938 180.902 75.3938C180.902 75.3938 180.903 75.3938 180.903 75.3938C180.904 75.3938 180.904 75.3938 180.905 75.3938C180.905 75.3938 180.906 75.3938 180.907 75.3938C180.907 75.3938 180.908 75.3938 180.908 75.3938C180.909 75.3938 180.909 75.3938 180.91 75.3938C180.91 75.3938 180.911 75.3938 180.911 75.3938C180.912 75.3938 180.912 75.3938 180.912 75.3938C180.913 75.3938 180.913 75.3938 180.914 75.3938C180.914 75.3938 180.915 75.3938 180.915 75.3938C180.916 75.3938 180.916 75.3938 180.917 75.3938C180.917 75.3938 180.918 75.3938 180.918 75.3938C180.918 75.3938 180.919 75.3938 180.919 75.3938C180.92 75.3938 180.92 75.3938 180.921 75.3938C180.921 75.3938 180.921 75.3938 180.922 75.3938C180.922 75.3938 180.923 75.3938 180.923 75.3938C180.924 75.3938 180.924 75.3938 180.924 75.3938C180.925 75.3938 180.925 75.3938 180.926 75.3938C180.926 75.3938 180.926 75.3938 180.927 75.3938C180.927 75.3938 180.927 75.3938 180.928 75.3938C180.928 75.3938 180.929 75.3938 180.929 75.3938C180.929 75.3938 180.93 75.3938 180.93 75.3938C180.93 75.3938 180.931 75.3938 180.931 75.3938C180.931 75.3938 180.932 75.3938 180.932 75.3938C180.932 75.3938 180.933 75.3938 180.933 75.3938C180.933 75.3938 180.934 75.3938 180.934 75.3938C180.934 75.3938 180.935 75.3938 180.935 75.3938C180.935 75.3938 180.936 75.3938 180.936 75.3938C180.936 75.3938 180.937 75.3938 180.937 75.3938C180.937 75.3938 180.937 75.3938 180.938 75.3938C180.938 75.3938 180.938 75.3938 180.939 75.3938C180.939 75.3938 180.939 75.3938 180.939 75.3938C180.94 75.3938 180.94 75.3938 180.94 75.3938C180.94 75.3938 180.941 75.3938 180.941 75.3938C180.941 75.3938 180.941 75.3938 180.942 75.3938C180.942 75.3938 180.942 75.3938 180.942 75.3938C180.943 75.3938 180.943 75.3938 180.943 75.3938C180.943 75.3938 180.944 75.3938 180.944 75.3938C180.944 75.3938 180.944 75.3938 180.944 75.3938C180.945 75.3938 180.945 75.3938 180.945 75.3938C180.945 75.3938 180.945 75.3938 180.946 75.3938C180.946 75.3938 180.946 75.3938 180.946 75.3938C180.946 75.3938 180.947 75.3938 180.947 75.3938C180.947 75.3938 180.947 75.3938 180.947 75.3938C180.947 75.3938 180.948 75.3938 180.948 75.3938C180.948 75.3938 180.948 75.3938 180.948 75.3938C180.948 75.3938 180.948 75.3938 180.949 75.3938C180.949 75.3938 180.949 75.3938 180.949 75.3938C180.949 75.3938 180.949 75.3938 180.949 75.3938C180.95 75.3938 180.95 75.3938 180.95 75.3938C180.95 75.3938 180.95 75.3938 180.95 75.3938C180.95 75.3938 180.95 75.3938 180.95 75.3938C180.95 75.3938 180.951 75.3938 180.951 75.3938C180.951 75.3938 180.951 75.3938 180.951 75.3938C180.951 75.3938 180.951 75.3938 180.951 75.3938C180.951 75.3938 180.951 75.3938 180.951 75.3938C180.951 75.3938 180.951 75.3938 180.951 75.3938C180.952 75.3938 180.952 75.3938 180.952 75.3938C180.952 75.3938 180.952 75.3938 180.952 75.3938C180.952 75.3938 180.952 75.3938 180.952 75.3938C180.952 75.3938 180.952 75.3938 180.952 75.3938C180.952 75.3938 180.952 75.3938 180.952 75.3938C180.952 75.3938 180.952 75.3938 180.952 75.0938ZM235.138 62.7656L235.434 62.8094L235.456 62.6602L235.35 62.5535L235.138 62.7656ZM232.606 63.7969L232.897 63.8718L232.897 63.8696L232.606 63.7969ZM234.716 76.5L234.928 76.7121L235.016 76.6243V76.5H234.716ZM231.763 35.0625L231.535 34.8676L231.412 35.0112L231.488 35.1839L231.763 35.0625ZM237.247 30.7031L237.378 30.9731L237.381 30.9715L237.247 30.7031ZM254.028 32.3438L254.233 32.1246L254.228 32.12L254.028 32.3438ZM261.013 81.4688L261.307 81.4099L261.281 81.283L261.172 81.2144L261.013 81.4688ZM257.028 93.5625L256.825 93.3416L256.825 93.3418L257.028 93.5625ZM241.888 95.2969L242.038 95.0372L242.036 95.0359L241.888 95.2969ZM237.481 90.4219L237.759 90.3083L237.683 90.1219H237.481V90.4219ZM236.403 93.6094L236.14 93.754L236.145 93.7619L236.15 93.7696L236.403 93.6094ZM237.903 95.2031L238.056 95.4611L238.442 95.2323L238.083 94.9631L237.903 95.2031ZM219.575 94.125L219.433 94.3894L219.436 94.3909L219.575 94.125ZM211.372 85.8281L211.635 85.6834L211.634 85.6824L211.372 85.8281ZM214.559 51.6562L214.346 51.4456L214.345 51.4463L214.559 51.6562ZM242.544 47.1562L242.407 47.4235L242.602 47.5226L242.756 47.3684L242.544 47.1562ZM233.028 42.7031H232.728V43.0031H233.028V42.7031ZM235.138 62.7656L235.35 62.5535C234.982 62.1854 234.531 61.9969 234.013 61.9969V62.2969V62.5969C234.37 62.5969 234.669 62.7209 234.925 62.9778L235.138 62.7656ZM234.013 62.2969V61.9969C233.586 61.9969 233.218 62.156 232.927 62.4667C232.644 62.7681 232.447 63.1976 232.315 63.7241L232.606 63.7969L232.897 63.8696C233.016 63.3962 233.178 63.0756 233.364 62.8771C233.542 62.6878 233.751 62.5969 234.013 62.5969V62.2969ZM232.606 63.7969L232.316 63.7219C232.055 64.7337 231.931 66.7566 231.931 69.75H232.231H232.531C232.531 66.7434 232.658 64.7976 232.897 63.8718L232.606 63.7969ZM232.231 69.75H231.931V74.5312H232.231H232.531V69.75H232.231ZM232.231 74.5312H231.931C231.931 75.3826 232.038 76.0523 232.306 76.4736L232.559 76.3125L232.813 76.1514C232.643 75.8852 232.531 75.3674 232.531 74.5312H232.231ZM232.559 76.3125L232.306 76.4736C232.593 76.9243 233.062 77.1281 233.638 77.1281V76.8281V76.5281C233.213 76.5281 232.963 76.3882 232.813 76.1514L232.559 76.3125ZM233.638 76.8281V77.1281C234.17 77.1281 234.627 77.0134 234.928 76.7121L234.716 76.5L234.504 76.2879C234.367 76.4241 234.105 76.5281 233.638 76.5281V76.8281ZM234.716 76.5H235.016V70.2188H234.716H234.416V76.5H234.716ZM234.716 70.2188H235.016C235.016 67.1634 235.156 64.6953 235.434 62.8094L235.138 62.7656L234.841 62.7218C234.557 64.6485 234.416 67.1491 234.416 70.2188H234.716ZM231.763 35.0625L231.991 35.2574C233.624 33.3468 235.42 31.9214 237.378 30.9731L237.247 30.7031L237.116 30.4331C235.074 31.4224 233.214 32.9032 231.535 34.8676L231.763 35.0625ZM237.247 30.7031L237.381 30.9715C239.327 29.9987 241.824 29.5031 244.888 29.5031V29.2031V28.9031C241.764 28.9031 239.167 29.4076 237.113 30.4348L237.247 30.7031ZM244.888 29.2031V29.5031C248.579 29.5031 251.55 30.532 253.828 32.5675L254.028 32.3438L254.228 32.12C251.819 29.968 248.696 28.9031 244.888 28.9031V29.2031ZM254.028 32.3438L253.823 32.5629C256.159 34.7471 257.338 37.6938 257.338 41.4375H257.638H257.938C257.938 37.5562 256.71 34.4404 254.233 32.1246L254.028 32.3438ZM257.638 41.4375H257.338V72.375H257.638H257.938V41.4375H257.638ZM257.638 72.375H257.338C257.338 77.0567 258.466 80.2306 260.854 81.7231L261.013 81.4688L261.172 81.2144C259.06 79.8944 257.938 77.0058 257.938 72.375H257.638ZM261.013 81.4688L260.718 81.5276C260.743 81.6505 260.759 81.9188 260.759 82.3594H261.059H261.359C261.359 81.925 261.345 81.5995 261.307 81.4099L261.013 81.4688ZM261.059 82.3594H260.759V83.2031H261.059H261.359V82.3594H261.059ZM261.059 83.2031H260.759C260.759 87.5762 259.438 90.9417 256.825 93.3416L257.028 93.5625L257.231 93.7834C259.994 91.2458 261.359 87.705 261.359 83.2031H261.059ZM257.028 93.5625L256.825 93.3418C254.51 95.4738 251.647 96.5437 248.216 96.5437V96.8438V97.1438C251.784 97.1438 254.796 96.0262 257.231 93.7832L257.028 93.5625ZM248.216 96.8438V96.5437C245.821 96.5437 243.766 96.0375 242.038 95.0372L241.888 95.2969L241.737 95.5565C243.572 96.6187 245.735 97.1438 248.216 97.1438V96.8438ZM241.888 95.2969L242.036 95.0359C239.995 93.8788 238.575 92.3034 237.759 90.3083L237.481 90.4219L237.204 90.5355C238.075 92.6654 239.592 94.34 241.74 95.5578L241.888 95.2969ZM237.481 90.4219V90.1219C236.906 90.1219 236.419 90.2614 236.077 90.5933C235.733 90.9269 235.588 91.4046 235.588 91.9688H235.888H236.188C236.188 91.5017 236.307 91.2059 236.495 91.0239C236.684 90.8402 236.994 90.7219 237.481 90.7219V90.4219ZM235.888 91.9688H235.588C235.588 92.5077 235.784 93.1058 236.14 93.754L236.403 93.6094L236.666 93.4648C236.335 92.8629 236.188 92.3673 236.188 91.9688H235.888ZM236.403 93.6094L236.15 93.7696C236.546 94.3975 237.072 94.9549 237.723 95.4431L237.903 95.2031L238.083 94.9631C237.484 94.5138 237.01 94.0088 236.657 93.4492L236.403 93.6094ZM237.903 95.2031L237.75 94.9451C235.967 96.003 233.634 96.5437 230.731 96.5437V96.8438V97.1438C233.704 97.1438 236.152 96.5907 238.056 95.4611L237.903 95.2031ZM230.731 96.8438V96.5437C226.81 96.5437 223.139 95.6489 219.714 93.8591L219.575 94.125L219.436 94.3909C222.948 96.2261 226.715 97.1438 230.731 97.1438V96.8438ZM219.575 94.125L219.717 93.8606C216.334 92.0464 213.64 89.3244 211.635 85.6834L211.372 85.8281L211.109 85.9729C213.166 89.7069 215.941 92.5161 219.433 94.3894L219.575 94.125ZM211.372 85.8281L211.634 85.6824C209.321 81.5178 208.156 76.4613 208.156 70.5H207.856H207.556C207.556 76.5387 208.736 81.7009 211.11 85.9738L211.372 85.8281ZM207.856 70.5H208.156C208.156 62.5576 210.373 56.3593 214.774 51.8662L214.559 51.6562L214.345 51.4463C209.808 56.0782 207.556 62.4424 207.556 70.5H207.856ZM214.559 51.6562L214.773 51.8669C219.211 47.3669 224.866 45.1125 231.763 45.1125V44.8125V44.5125C224.721 44.5125 218.907 46.8206 214.346 51.4456L214.559 51.6562ZM231.763 44.8125V45.1125C235.85 45.1125 239.395 45.8864 242.407 47.4235L242.544 47.1562L242.68 46.889C239.568 45.3011 235.926 44.5125 231.763 44.5125V44.8125ZM242.544 47.1562L242.756 47.3684C243.139 46.9858 243.359 46.5543 243.359 46.0781H243.059H242.759C242.759 46.3519 242.637 46.6392 242.332 46.9441L242.544 47.1562ZM243.059 46.0781H243.359C243.359 45.474 242.998 44.9613 242.402 44.5337C241.808 44.1067 240.939 43.7318 239.816 43.3998L239.731 43.6875L239.646 43.9752C240.743 44.2994 241.538 44.6512 242.052 45.021C242.567 45.3903 242.759 45.7447 242.759 46.0781H243.059ZM239.731 43.6875L239.816 43.3998C237.571 42.7356 235.308 42.4031 233.028 42.4031V42.7031V43.0031C235.249 43.0031 237.454 43.3269 239.646 43.9752L239.731 43.6875ZM233.028 42.7031H233.328C233.328 39.4938 232.904 36.9004 232.037 34.9411L231.763 35.0625L231.488 35.1839C232.309 37.0371 232.728 39.5375 232.728 42.7031H233.028ZM289.183 53.8125H289.483V53.7054L289.415 53.6225L289.183 53.8125ZM292.558 81.4688L292.852 81.4099L292.826 81.283L292.717 81.2144L292.558 81.4688ZM288.854 93.5625L288.651 93.3423L288.648 93.3446L288.854 93.5625ZM270.058 93.5625L269.859 93.7876L269.86 93.7883L270.058 93.5625ZM265.323 50.9062L265.148 50.663L265.023 50.7529V50.9062H265.323ZM269.214 48.9844L269.353 49.2504L269.867 48.9818L269.35 48.7173L269.214 48.9844ZM265.558 45.4219L265.304 45.5829L265.306 45.585L265.558 45.4219ZM286.792 29.8594L286.579 30.0702L286.581 30.0728L286.792 29.8594ZM287.729 47.5781L287.959 47.7708L287.961 47.7693L287.729 47.5781ZM280.651 51.9375L280.589 51.6441L280.351 51.6948V51.9375H280.651ZM286.886 51.8438L287.069 51.6066L286.888 51.4661L286.705 51.6043L286.886 51.8438ZM289.183 53.8125H288.883V72.375H289.183H289.483V53.8125H289.183ZM289.183 72.375H288.883C288.883 77.0567 290.011 80.2306 292.399 81.7231L292.558 81.4688L292.717 81.2144C290.605 79.8944 289.483 77.0058 289.483 72.375H289.183ZM292.558 81.4688L292.263 81.5276C292.288 81.6505 292.304 81.9188 292.304 82.3594H292.604H292.904C292.904 81.925 292.89 81.5995 292.852 81.4099L292.558 81.4688ZM292.604 82.3594H292.304V83.2031H292.604H292.904V82.3594H292.604ZM292.604 83.2031H292.304C292.304 87.7436 291.07 91.1043 288.651 93.3423L288.854 93.5625L289.058 93.7827C291.639 91.3957 292.904 87.8501 292.904 83.2031H292.604ZM288.854 93.5625L288.648 93.3446C286.403 95.4684 283.389 96.5437 279.573 96.5437V96.8438V97.1438C283.507 97.1438 286.681 96.0316 289.061 93.7804L288.854 93.5625ZM279.573 96.8438V96.5437C275.79 96.5437 272.692 95.469 270.255 93.3367L270.058 93.5625L269.86 93.7883C272.423 96.031 275.669 97.1438 279.573 97.1438V96.8438ZM270.058 93.5625L270.256 93.3374C267.181 90.6278 265.623 86.6576 265.623 81.375H265.323H265.023C265.023 86.7799 266.622 90.9347 269.859 93.7876L270.058 93.5625ZM265.323 81.375H265.623V50.9062H265.323H265.023V81.375H265.323ZM265.323 50.9062L265.499 51.1495C266.04 50.7587 266.626 50.443 267.258 50.2022L267.151 49.9219L267.045 49.6415C266.364 49.9007 265.732 50.2413 265.148 50.663L265.323 50.9062ZM267.151 49.9219L267.258 50.2022C267.927 49.9475 268.625 49.63 269.353 49.2504L269.214 48.9844L269.075 48.7184C268.365 49.0888 267.688 49.3963 267.045 49.6415L267.151 49.9219ZM269.214 48.9844L269.35 48.7173C268.067 48.0604 266.884 46.9163 265.809 45.2587L265.558 45.4219L265.306 45.585C266.419 47.3025 267.674 48.5333 269.077 49.2514L269.214 48.9844ZM265.558 45.4219L265.811 45.2608C264.751 43.5958 264.217 41.6531 264.217 39.4219H263.917H263.617C263.617 41.7531 264.177 43.8104 265.304 45.5829L265.558 45.4219ZM263.917 39.4219H264.217C264.217 35.5575 265.486 32.4195 268.016 29.9816L267.808 29.7656L267.599 29.5496C264.941 32.1117 263.617 35.4113 263.617 39.4219H263.917ZM267.808 29.7656L268.016 29.9816C270.551 27.5379 273.647 26.3156 277.323 26.3156V26.0156V25.7156C273.499 25.7156 270.252 26.9933 267.599 29.5496L267.808 29.7656ZM277.323 26.0156V26.3156C281.029 26.3156 284.107 27.5679 286.579 30.0702L286.792 29.8594L287.005 29.6485C284.415 27.0259 281.18 25.7156 277.323 25.7156V26.0156ZM286.792 29.8594L286.581 30.0728C289.082 32.5436 290.336 35.6523 290.336 39.4219H290.636H290.936C290.936 35.5039 289.626 32.2376 287.003 29.6459L286.792 29.8594ZM290.636 39.4219H290.336C290.336 42.4472 289.39 45.098 287.498 47.387L287.729 47.5781L287.961 47.7693C289.943 45.3707 290.936 42.5841 290.936 39.4219H290.636ZM287.729 47.5781L287.499 47.3855C285.602 49.65 283.3 51.0652 280.589 51.6441L280.651 51.9375L280.714 52.2309C283.565 51.6223 285.982 50.1312 287.959 47.7708L287.729 47.5781ZM280.651 51.9375H280.351C280.351 52.5609 280.469 53.0834 280.753 53.4554C281.048 53.8428 281.486 54.0188 282.011 54.0188V53.7188V53.4187C281.629 53.4187 281.387 53.2979 281.23 53.0914C281.06 52.8697 280.951 52.5016 280.951 51.9375H280.651ZM282.011 53.7188V54.0188C283.687 54.0188 285.374 53.3606 287.066 52.0832L286.886 51.8438L286.705 51.6043C285.085 52.8269 283.522 53.4187 282.011 53.4187V53.7188ZM286.886 51.8438L286.702 52.0809C287.96 53.0558 288.695 53.6905 288.95 54.0025L289.183 53.8125L289.415 53.6225C289.108 53.247 288.311 52.5692 287.069 51.6066L286.886 51.8438ZM302.353 89.9531L302.136 90.1605L302.137 90.1619L302.353 89.9531ZM303.337 49.7344L303.537 49.9577L303.537 49.9576L303.337 49.7344ZM337.79 48L337.61 48.2398L337.611 48.2406L337.79 48ZM340.649 70.3594L340.436 70.1486L340.436 70.1487L340.649 70.3594ZM323.54 71.4375L323.35 71.6697L323.354 71.6728L323.54 71.4375ZM319.884 64.875L320.181 64.8335L320.145 64.575H319.884V64.875ZM321.196 72.6562L321.393 72.4296L321.39 72.4274L321.196 72.6562ZM340.462 73.5469L340.714 73.3835L340.55 73.131L340.298 73.2958L340.462 73.5469ZM337.649 92.5781L337.84 92.8095L337.841 92.8093L337.649 92.5781ZM321.806 97.4531V97.1531C313.747 97.1531 307.346 94.6763 302.568 89.7444L302.353 89.9531L302.137 90.1619C307.047 95.23 313.614 97.7531 321.806 97.7531V97.4531ZM302.353 89.9531L302.569 89.7458C297.821 84.7817 295.434 78.1276 295.434 69.75H295.134H294.834C294.834 78.2474 297.259 85.062 302.136 90.1605L302.353 89.9531ZM295.134 69.75H295.434C295.434 61.3837 298.142 54.7983 303.537 49.9577L303.337 49.7344L303.137 49.5111C297.595 54.4829 294.834 61.2413 294.834 69.75H295.134ZM303.337 49.7344L303.537 49.9576C308.351 45.6379 314.37 43.4719 321.618 43.4719V43.1719V42.8719C314.241 42.8719 308.073 45.0808 303.137 49.5111L303.337 49.7344ZM321.618 43.1719V43.4719C328.067 43.4719 333.391 45.0679 337.61 48.2398L337.79 48L337.97 47.7602C333.627 44.4946 328.169 42.8719 321.618 42.8719V43.1719ZM337.79 48L337.611 48.2406C341.813 51.3695 343.912 55.6227 343.912 61.0312H344.212H344.512C344.512 55.4398 342.329 51.0055 337.969 47.7594L337.79 48ZM344.212 61.0312H343.912C343.912 64.7758 342.748 67.8059 340.436 70.1486L340.649 70.3594L340.863 70.5701C343.301 68.1004 344.512 64.9117 344.512 61.0312H344.212ZM340.649 70.3594L340.436 70.1487C338.157 72.4577 335.145 73.6219 331.368 73.6219V73.9219V74.2219C335.279 74.2219 338.454 73.011 340.863 70.5701L340.649 70.3594ZM331.368 73.9219V73.6219C328.299 73.6219 325.758 72.8097 323.726 71.2022L323.54 71.4375L323.354 71.6728C325.509 73.3778 328.188 74.2219 331.368 74.2219V73.9219ZM323.54 71.4375L323.73 71.2053C321.727 69.5666 320.546 67.4478 320.181 64.8335L319.884 64.875L319.587 64.9165C319.972 67.6772 321.228 69.9334 323.35 71.6697L323.54 71.4375ZM319.884 64.875V64.575C319.169 64.575 318.578 64.7034 318.16 65.0074C317.725 65.3243 317.521 65.7983 317.521 66.375H317.821H318.121C318.121 65.9517 318.262 65.6757 318.513 65.4926C318.783 65.2966 319.224 65.175 319.884 65.175V64.875ZM317.821 66.375H317.521C317.521 68.7688 318.706 70.9398 321.002 72.8851L321.196 72.6562L321.39 72.4274C319.186 70.5602 318.121 68.5437 318.121 66.375H317.821ZM321.196 72.6562L321 72.8829C323.655 75.1859 326.946 76.3313 330.853 76.3313V76.0312V75.7312C327.072 75.7312 323.926 74.6266 321.393 72.4296L321.196 72.6562ZM330.853 76.0312V76.3313C334.77 76.3313 338.034 75.494 340.626 73.7979L340.462 73.5469L340.298 73.2958C337.827 74.9123 334.685 75.7312 330.853 75.7312V76.0312ZM340.462 73.5469L340.21 73.7103C341.735 76.059 342.506 78.9214 342.506 82.3125H342.806H343.106C343.106 78.8286 342.313 75.8473 340.714 73.3835L340.462 73.5469ZM342.806 82.3125H342.506C342.506 86.2121 340.836 89.5528 337.458 92.347L337.649 92.5781L337.841 92.8093C341.338 89.916 343.106 86.4129 343.106 82.3125H342.806ZM337.649 92.5781L337.458 92.3468C333.589 95.5406 328.382 97.1531 321.806 97.1531V97.4531V97.7531C328.479 97.7531 333.835 96.1156 337.84 92.8095L337.649 92.5781Z" fill="#068D9D"/>
<path d="M365.199 67.3359C365.199 67.3359 364.975 72.1464 367.337 74.8196C370.314 78.1893 374.747 79.096 378.028 79.096C385.414 79.096 389.948 73.3836 391.926 66.2668C394.687 56.3316 388.094 47.1216 378.028 44.8848C368.406 42.7466 361.991 44.333 355.577 51.2994C351.269 55.9776 349.99 59.9616 349.162 66.2668C348.042 74.8008 349.11 80.944 354.508 87.6488C360.73 95.3795 368.119 97.7935 378.028 98.3398C389.498 98.9721 397.74 95.8098 405.824 87.6488C410.562 82.866 414.377 72.6814 414.377 72.6814" stroke="#173753" stroke-width="4"/>
<circle cx="414.377" cy="69.4741" r="4.41459" stroke="#7AE582" stroke-width="4"/>
<circle cx="365.199" cy="63.0595" r="4.41459" stroke="#7AE582" stroke-width="4"/>
</svg>
