<svg width="521" height="170" viewBox="0 0 521 170" fill="none" xmlns="http://www.w3.org/2000/svg">
<path fill-rule="evenodd" clip-rule="evenodd" d="M95 170C141.944 170 180 131.944 180 85C180 82.8018 179.917 80.6231 179.753 78.4669C178.873 76.6044 175.847 70.5 174 70.5C170.505 70.5 166.5 78 166.5 78C166.5 78 166 84 165 85.5C162.708 88.9375 161.456 85.3469 159.794 80.5842C158.259 76.1837 156.375 70.7828 153 69C150.572 67.7178 148.395 67.8631 146.151 68.0129C144.218 68.142 142.235 68.2744 140 67.5C138.855 67.1032 137.711 66.0313 136.672 65.0563C135.089 63.5723 133.745 62.3129 133 64C131.827 66.6551 138.5 69 138.5 69C138.5 69 143.5 71 143.5 73C143.5 75 133.5 83.5 130 82C128.232 81.2423 125.953 77.4223 123.809 73.8273C121.709 70.3057 119.737 67 118.5 67C116 67 118.456 77.5493 123 82C124.914 83.8751 127.864 84.3584 130.43 84.7786C132.898 85.183 135.01 85.529 135.5 87C136.464 89.8919 133.246 94.1775 128.983 99.857L128.5 100.5C125.86 106.839 124.804 111.432 129.5 117.5L123 122.5V127.5L120.5 130.5C120.5 130.5 114.25 141.633 108.5 140C103.675 138.63 102.809 131.602 102.321 127.643C102.265 127.188 102.214 126.774 102.162 126.413C102.085 125.873 101.691 125.196 101.227 124.4C100.522 123.19 99.6555 121.703 99.5 120C99.0958 115.574 100.662 110.413 100.662 110.413C97.0902 104.243 96.1259 101.674 96 97C96 97 92.6171 93.8847 90 94C88.3333 94.0734 86 95.5 86 95.5C86 95.5 83.987 94 82.5 94C81.0129 94 79 95.5 79 95.5C79 95.5 70.2678 90.8315 69.5 85.5C69.1925 83.3653 70 80 70 80C70 80 68.3704 75.2094 69.5 72.5C70.1676 70.8987 71.3757 70.2514 72.6582 69.5643C73.6304 69.0434 74.6453 68.4997 75.5 67.5C76.2235 66.6537 76.6011 65.7825 76.9642 64.9446C77.4314 63.8667 77.8747 62.844 79 62C81 60.5 93.5 57.5 94.5 58.5C94.7624 58.7625 95.0511 59.1842 95.3814 59.6669L95.3815 59.667C96.3098 61.0233 97.5675 62.8611 99.5 63C100.768 63.0911 101.551 62.4609 102.394 61.7832C102.999 61.2968 103.634 60.786 104.5 60.5C106.938 59.6951 109.016 60.2654 111.083 60.8328C113.264 61.4315 115.433 62.0268 118 61C119.893 60.2429 118.919 58.2633 118 57C117.314 56.0561 116.33 56.3917 115.26 56.7571C114.36 57.0642 113.399 57.3924 112.5 57C111.427 56.5317 110.91 55.0636 110.463 53.7948C109.955 52.3534 109.538 51.1692 108.5 52C107.814 52.549 108.043 53.4115 108.269 54.2657C108.499 55.1302 108.726 55.9862 108 56.5C106.884 57.2897 105.773 56.9978 104.5 56.5C103.082 55.9455 103.103 54.5671 103.124 53.1028C103.144 51.7951 103.164 50.4189 102.162 49.5C100.569 48.039 99.0044 46.6899 97 47.5C94.2688 48.6039 102.162 53 102.162 53C101.992 54.8687 101.278 56.4006 99.5 57C98.1916 57.4411 96.7412 57.6649 96 56.5C95.505 55.7223 96.6375 55.4193 97.6895 55.1379C98.6918 54.8697 99.621 54.6211 99 54C98.8024 53.8024 98.6008 53.5948 98.3932 53.3812L98.3925 53.3804C97.0247 51.9721 95.4011 50.3004 93 49.5C91.5 49 88.5 49.5 88.5 52C88.5 53.5251 86 55 86 55L82.5 58.5C82.5 58.5 77.9637 58.9212 76.5 57C75.285 55.4054 75.783 53.6113 76.2654 51.8738C76.3468 51.5805 76.4277 51.2888 76.5 51C76.8821 49.4712 78.5809 49.6659 80.2593 49.8582C81.5585 50.007 82.8454 50.1545 83.5 49.5C84.1991 48.8009 83.5185 47.8955 82.8281 46.9769C82.1755 46.1088 81.5141 45.2288 82 44.5C83.1435 42.7847 90 38 93.5 37.5C95.0105 37.2842 95.7709 37.6825 96.4409 38.0334C97.2285 38.4458 97.8911 38.7928 99.5 38C100.92 37.3005 101.516 36.1462 102.122 34.9719C102.684 33.8831 103.255 32.777 104.5 32C105.008 31.683 105.627 31.6146 106.205 31.5509C107.063 31.4562 107.828 31.3717 108 30.5C108.176 29.6044 107.286 29.7368 106.228 29.8938C105.2 30.0466 104.015 30.2227 103.5 29.5C103.063 28.8868 103.335 28.156 103.596 27.4571C103.876 26.706 104.142 25.9919 103.5 25.5C102.285 24.5696 100.998 25.6936 99.8163 26.7252C99.7099 26.8181 99.6045 26.9102 99.5 27C98.4048 27.9412 98.7157 29.7477 98.9918 31.3521C99.2868 33.0663 99.5421 34.5498 98 34.5C97.1316 34.472 96.6678 33.882 96.1934 33.2786C95.7506 32.7154 95.2986 32.1405 94.5 32C93.6262 31.8463 92.9494 32.3473 92.2934 32.8329C91.5798 33.3612 90.8909 33.8712 90 33.5C87.9449 32.6437 87.5543 30.0155 88.5 28C89.0159 26.9004 89.9482 26.6354 90.9697 26.345C91.6389 26.1548 92.3463 25.9537 93 25.5C94.2923 24.6029 95.0496 23.4716 95.7777 22.3837C96.7111 20.9892 97.5965 19.6662 99.5 19C102.08 18.0969 106.5 19 106.5 19C106.5 19 114.307 18.2325 114.5 21.5C114.55 22.3526 114.004 22.9159 113.467 23.4705C112.905 24.0499 112.353 24.6198 112.5 25.5C112.735 26.9116 113.579 25.8736 114.703 24.4905C115.665 23.3067 116.832 21.8702 118 21.5C118.483 21.3469 118.921 21.355 119.341 21.3628C119.905 21.3733 120.437 21.3832 121 21C122.034 20.296 121.652 19.2238 121.238 18.0618C120.876 17.0478 120.49 15.9655 121 15C122.703 11.7744 130.151 8.85532 130 12.5C129.956 13.5692 128.992 14.1592 128.077 14.7196C127.088 15.3252 126.156 15.8962 126.5 17C127.126 19.0076 129.605 19.9116 131.5 19C132.305 18.6127 132.425 17.8207 132.547 17.0137C132.663 16.2433 132.781 15.4592 133.5 15C134.849 14.1382 135.772 15.7726 136.709 17.4305C137.646 19.0896 138.596 20.7721 140 20C142.282 18.7443 142.5 15 141.5 14C141.421 13.9213 141.457 13.8859 141.596 13.8984C128.215 5.11136 112.204 0 95 0C79.4469 0 64.8695 4.17725 52.3284 11.471C53.788 11.346 55.441 11.2521 57.1645 11.1541C61.9408 10.8827 67.2583 10.5806 70.5 9.50002C75 8.00003 79.9999 9.00002 79.4999 11C79.2164 12.1343 78.2278 12.6428 77.0953 13.2254C76.2309 13.6701 75.2826 14.1579 74.4999 15C73.5576 16.014 73.215 17.2172 72.8877 18.367C72.4705 19.8324 72.078 21.211 70.5 22C68.1403 23.1798 66.2422 23.7817 64.415 24.3611C62.3705 25.0095 60.4146 25.6297 58 27C56.5983 27.7955 55.3695 29.0691 54.1974 30.284C52.0179 32.543 50.0345 34.5989 47.4999 33C46.6191 32.4443 46.3679 31.8623 46.0518 31.1299L46.0518 31.1299C45.905 30.7898 45.7442 30.4173 45.4999 30C44.3688 28.0676 45.4598 25.7702 46.4169 23.7545C47.463 21.5516 48.3493 19.6852 46 19C44.3887 18.5301 43.6291 19.1929 42.5691 20.118C42.2503 20.3962 41.9044 20.6981 41.4999 21C41.375 21.0932 41.2511 21.1845 41.1291 21.2743L41.129 21.2744C39.6774 22.3431 38.4905 23.2169 39 25C39.1798 25.6295 39.5411 25.8016 39.8644 25.9556C40.2228 26.1264 40.5345 26.2748 40.5 27C40.4556 27.9322 39.5563 27.7939 38.5406 27.6377C37.5969 27.4925 36.5526 27.3319 36 28C35.5014 28.6028 35.6317 29.3024 35.7614 29.9987C35.8927 30.7038 36.0233 31.4056 35.5 32C34.7297 32.8749 33.6108 32.4835 32.5631 32.117C31.4756 31.7366 30.4648 31.383 29.9999 32.5C29.3589 34.0403 29.4073 34.5034 31 35C31.596 35.1859 32.05 34.8516 32.508 34.5144C32.9559 34.1846 33.4076 33.8519 34 34C34.988 34.247 35.1392 35.0975 35.3062 36.0369C35.4256 36.7084 35.553 37.4254 36 38C36.3122 38.4015 36.6343 38.6604 36.9493 38.9135C37.3183 39.2101 37.6775 39.4988 38 40C38.8919 41.3865 38.9303 42.4988 38.984 44.0579L38.9841 44.0583L38.9841 44.0587C38.989 44.2019 38.9941 44.3488 39 44.5C39.0222 45.0719 39.1358 45.6578 39.2464 46.2278C39.5576 47.8322 39.8446 49.3111 38 50C36.4371 50.5837 34 48.5 34 48.5L33.5 45C33.5 45 30.2944 44.8878 29.5 46C28.9325 46.7945 29.5 48.5 29.5 48.5C29.5 48.5 33.3333 49.0416 32.5 50.5C31.1874 52.7969 28.3937 53.345 26.3283 53.7502L26.3283 53.7502C25.2465 53.9624 24.3645 54.1354 24 54.5C23.427 55.0729 22.9827 55.5046 22.6033 55.8733L22.6033 55.8734L22.6031 55.8735C21.9893 56.47 21.545 56.9016 21 57.5C20.2941 58.2749 19.7683 58.2585 19.2461 58.2422C18.7205 58.2258 18.1984 58.2095 17.4999 59C16.8571 59.7275 16.7067 60.4574 16.5465 61.2346C16.4314 61.793 16.3113 62.3759 15.9999 63C15.3585 64.2858 14.6514 64.7224 13.8902 65.1925C13.2728 65.5738 12.6197 65.9771 11.937 66.8732C10.6683 72.7141 10 78.779 10 85C10 87.0113 10.0699 89.0064 10.2073 90.9828C11.047 90.7864 18.8805 88.9879 22 89.5C24.3438 89.8848 25.0566 90.801 25.8815 91.8614C26.5454 92.7148 27.282 93.6617 29 94.5C30.0322 95.0037 30.9956 95.2541 31.9112 95.4921C33.3665 95.8703 34.7012 96.2171 36 97.5C36.9425 98.431 36.9857 99.2097 37.0294 99.9995C37.0722 100.772 37.1156 101.554 38 102.5C39.8301 104.457 41.716 104.556 43.8237 104.665C45.2616 104.74 46.8028 104.82 48.5 105.5C49.8805 106.053 52.4497 107.447 53.5 108.5C54.9808 109.984 54.0078 112.542 53.0702 115.007C52.5998 116.244 52.1383 117.457 51.9999 118.5C51.8411 119.697 51.7914 120.706 51.7463 121.62V121.62C51.6368 123.842 51.5546 125.511 50 128C49.0913 129.454 48.0351 129.832 46.9928 130.205C45.9221 130.588 44.8662 130.966 44 132.5C42.9883 134.291 43.2402 136.274 43.4924 138.259C43.7433 140.234 43.9944 142.21 42.9999 144C40.5 148.5 37.5 147.5 37.5 147.5C37.5 147.5 37.2789 147.341 36.8764 147.022C52.0772 161.273 72.5194 170 95 170ZM82 37C82.3041 36.2389 81.8749 35.3779 81.4863 34.5984C81.0366 33.6961 80.6413 32.903 81.5 32.5C82.6311 31.9692 83.1436 33.1482 83.6939 34.4142C83.9365 34.9722 84.1864 35.5472 84.5 36C84.6955 36.2825 84.9017 36.5188 85.0967 36.7423L85.0968 36.7423C85.5479 37.2593 85.939 37.7074 86 38.5C86.138 40.2949 83 42 83 42C83 42 80.7194 43.1622 80 42C79.3499 40.95 81 39.5 81 39.5C81 39.5 81.6376 37.9066 82 37ZM78.5 36.5C76.9912 36.2779 74.7189 38.0237 75.5 39L77.5 41.5C78.0218 42.1523 78.272 41.5414 78.5435 40.8783L78.5436 40.8782C78.6785 40.5489 78.8186 40.2067 79 40C79.6439 39.2662 80.5 38 80.5 38C80.5 38 79.4659 36.6422 78.5 36.5ZM166.039 87.0104L166.039 87.0097C166.102 86.0867 166.177 85 167 85C167.976 85 168.899 86.5289 169 87.5C169.117 88.6325 167.139 90 166 90C165.234 90 165.445 89.3814 165.702 88.6317C165.826 88.2668 165.962 87.8708 166 87.5C166.016 87.348 166.027 87.1824 166.039 87.0111L166.039 87.0104ZM133.715 113.476C133.27 114.405 132.691 115.61 131.5 117C129.441 119.402 129.502 119.449 130.065 119.889C130.323 120.09 130.686 120.373 131 121C131.407 121.813 131.221 122.968 131.031 124.148C130.755 125.869 130.469 127.645 132 128.5C134.809 130.068 135.845 125.523 136.656 121.965C136.774 121.448 136.887 120.953 137 120.5C137.133 119.968 137.297 119.392 137.466 118.799L137.466 118.799C138.383 115.586 139.451 111.843 136.5 111.5C134.761 111.298 134.392 112.067 133.715 113.476ZM13.0817 77.3725C13.2343 77.7779 13.4041 78.2291 13.9999 78.5C14.7658 78.8481 15.8568 78.7343 16.8278 78.633C18.1553 78.4945 19.2586 78.3794 19 79.5C18.8416 80.186 18.5423 80.5511 17.9999 81C16.7965 81.9959 15.4317 81.6248 13.9999 81C12.0641 80.1553 9.88787 76.5 11.9999 76.5C12.7534 76.5 12.9062 76.9059 13.0817 77.3725Z" fill="#173753"/>
<path d="M98.0118 67.4886C97.8218 67.658 97.724 67.7496 97.724 67.7496C97.724 67.7496 97.8086 67.6551 98.0118 67.4886C100.406 65.3538 117.437 50.8675 137.885 51.6854C154.618 52.3547 165.328 58.3788 165.328 58.3788L168.005 47L190.763 81.1365L159.973 77.7897L162.65 67.7496C162.65 67.7496 147.255 61.0562 135.876 61.0562C107.541 61.0562 99.5182 66.2535 98.0118 67.4886Z" fill="#7AE582"/>
<path d="M97.985 74.0615C97.8156 73.8715 97.724 73.7737 97.724 73.7737C97.724 73.7737 97.8185 73.8583 97.985 74.0615C100.12 76.4554 114.606 93.4864 113.788 113.934C113.119 130.668 107.095 141.377 107.095 141.377L118.474 144.055L84.3371 166.812L87.6839 136.023L97.724 138.7C97.724 138.7 104.417 123.305 104.417 111.926C104.417 83.5907 99.2201 75.568 97.985 74.0615Z" fill="#7AE582"/>
<path d="M92.7508 71.3574C92.9408 71.188 93.0386 71.0963 93.0386 71.0963C93.0386 71.0963 92.9539 71.1908 92.7508 71.3574C90.3568 73.4921 73.3259 87.9785 52.878 87.1605C36.1445 86.4912 25.435 80.4671 25.435 80.4671L22.7576 91.8459L-4.64509e-06 57.7095L30.7897 61.0562L28.1124 71.0963C28.1124 71.0963 43.5073 77.7898 54.8861 77.7898C83.2216 77.7898 91.2443 72.5925 92.7508 71.3574Z" fill="#7AE582"/>
<path d="M213.36 108.047C209.891 108.047 207.204 107.125 205.298 105.281C203.423 103.438 202.485 100.656 202.485 96.9375V51.0938C204.141 49.6875 206.157 48.6094 208.532 47.8594C210.938 47.0781 213.423 46.6875 215.985 46.6875C219.766 46.6875 222.969 47.625 225.594 49.5C228.438 51.625 229.86 54.5625 229.86 58.3125V83.9531C228.11 84.1094 226.391 84.6094 224.704 85.4531C223.016 86.2656 222.173 87.1094 222.173 87.9844C222.173 88.5156 222.469 88.9688 223.063 89.3438C226.157 86.75 230.751 85.4531 236.844 85.4531H247.954C250.016 89.0781 251.048 92.7812 251.048 96.5625C251.048 98.4375 250.719 100.516 250.063 102.797C249.407 105.078 248.532 106.828 247.438 108.047H213.36ZM301.858 84.7969C301.858 87.0469 302.108 88.8594 302.608 90.2344C303.108 91.6094 303.983 92.6875 305.233 93.4688C305.264 93.625 305.28 93.9219 305.28 94.3594V95.2031C305.28 99.6406 303.936 103.094 301.249 105.562C298.874 107.75 295.936 108.844 292.436 108.844C290.061 108.844 287.889 108.281 285.921 107.156C283.952 106.031 282.546 104.406 281.702 102.281C280.639 102.281 280.108 102.797 280.108 103.828C280.108 104.703 280.655 105.688 281.749 106.781C279.718 108.156 276.655 108.844 272.561 108.844C266.78 108.844 262.155 107.281 258.686 104.156C255.249 101 253.53 96.6094 253.53 90.9844C253.53 85.3281 255.358 80.9531 259.014 77.8594C262.358 75.0781 266.686 73.6875 271.999 73.6875C273.811 73.6875 275.561 73.8125 277.249 74.0625C278.374 74.2812 278.983 74.4062 279.077 74.4375C279.171 74.125 279.218 73.8594 279.218 73.6406C279.218 72.8281 278.53 72.2812 277.155 72C275.78 71.7188 273.983 71.5781 271.764 71.5781C267.046 71.5781 263.014 72.5312 259.671 74.4375C258.139 71.8438 257.374 68.5625 257.374 64.5938C257.374 62.3438 257.655 60.6719 258.218 59.5781C260.468 58.5469 263.327 57.6406 266.796 56.8594C270.264 56.0469 273.921 55.6406 277.764 55.6406C285.702 55.6406 291.702 57.375 295.764 60.8438C299.827 64.3125 301.858 69.2344 301.858 75.6094V84.7969ZM277.53 87.0938C276.218 87.0938 275.561 87.6875 275.561 88.875C275.561 90 276.327 90.5625 277.858 90.5625C278.921 90.5625 279.702 90.3125 280.202 89.8125C280.702 89.2812 280.952 88.375 280.952 87.0938C280.952 87.0938 279.811 87.0938 277.53 87.0938ZM335.138 74.7656C334.825 74.4531 334.45 74.2969 334.013 74.2969C333.325 74.2969 332.856 74.7969 332.606 75.7969C332.356 76.7656 332.231 78.75 332.231 81.75V86.5312C332.231 87.375 332.341 87.9688 332.559 88.3125C332.778 88.6562 333.138 88.8281 333.638 88.8281C334.138 88.8281 334.497 88.7188 334.716 88.5V82.2188C334.716 79.1562 334.856 76.6719 335.138 74.7656ZM331.763 47.0625C333.419 45.125 335.247 43.6719 337.247 42.7031C339.247 41.7031 341.794 41.2031 344.888 41.2031C348.638 41.2031 351.684 42.25 354.028 44.3438C356.434 46.5938 357.638 49.625 357.638 53.4375V84.375C357.638 89.0312 358.763 92.0625 361.013 93.4688C361.044 93.625 361.059 93.9219 361.059 94.3594V95.2031C361.059 99.6406 359.716 103.094 357.028 105.562C354.653 107.75 351.716 108.844 348.216 108.844C345.778 108.844 343.669 108.328 341.888 107.297C339.794 106.109 338.325 104.484 337.481 102.422C336.419 102.422 335.888 102.938 335.888 103.969C335.888 104.438 336.059 104.984 336.403 105.609C336.778 106.203 337.278 106.734 337.903 107.203C336.059 108.297 333.669 108.844 330.731 108.844C326.763 108.844 323.044 107.938 319.575 106.125C316.138 104.281 313.403 101.516 311.372 97.8281C309.028 93.6094 307.856 88.5 307.856 82.5C307.856 74.5 310.091 68.2188 314.559 63.6562C319.059 59.0938 324.794 56.8125 331.763 56.8125C335.888 56.8125 339.481 57.5938 342.544 59.1562C342.888 58.8125 343.059 58.4531 343.059 58.0781C343.059 57.1406 341.95 56.3438 339.731 55.6875C337.513 55.0312 335.278 54.7031 333.028 54.7031C333.028 51.5156 332.606 48.9688 331.763 47.0625ZM389.183 65.8125V84.375C389.183 89.0312 390.308 92.0625 392.558 93.4688C392.589 93.625 392.604 93.9219 392.604 94.3594V95.2031C392.604 99.7969 391.354 103.25 388.854 105.562C386.542 107.75 383.448 108.844 379.573 108.844C375.729 108.844 372.558 107.75 370.058 105.562C366.901 102.781 365.323 98.7188 365.323 93.375V62.9062C365.886 62.5 366.495 62.1719 367.151 61.9219C367.808 61.6719 368.495 61.3594 369.214 60.9844C367.87 60.2969 366.651 59.1094 365.558 57.4219C364.464 55.7031 363.917 53.7031 363.917 51.4219C363.917 47.4844 365.214 44.2656 367.808 41.7656C370.401 39.2656 373.573 38.0156 377.323 38.0156C381.104 38.0156 384.261 39.2969 386.792 41.8594C389.354 44.3906 390.636 47.5781 390.636 51.4219C390.636 54.5156 389.667 57.2344 387.729 59.5781C385.792 61.8906 383.433 63.3438 380.651 63.9375C380.651 65.125 381.104 65.7188 382.011 65.7188C383.604 65.7188 385.229 65.0938 386.886 63.8438C388.136 64.8125 388.901 65.4688 389.183 65.8125ZM421.806 109.453C413.681 109.453 407.196 106.953 402.353 101.953C397.54 96.9219 395.134 90.1875 395.134 81.75C395.134 73.3125 397.868 66.6406 403.337 61.7344C408.212 57.3594 414.306 55.1719 421.618 55.1719C428.118 55.1719 433.509 56.7812 437.79 60C442.071 63.1875 444.212 67.5312 444.212 73.0312C444.212 76.8438 443.024 79.9531 440.649 82.3594C438.306 84.7344 435.212 85.9219 431.368 85.9219C428.243 85.9219 425.634 85.0938 423.54 83.4375C421.478 81.75 420.259 79.5625 419.884 76.875C418.509 76.875 417.821 77.375 417.821 78.375C417.821 80.6562 418.946 82.75 421.196 84.6562C423.79 86.9062 427.009 88.0312 430.853 88.0312C434.728 88.0312 437.931 87.2031 440.462 85.5469C442.024 87.9531 442.806 90.875 442.806 94.3125C442.806 98.3125 441.087 101.734 437.649 104.578C433.712 107.828 428.431 109.453 421.806 109.453Z" fill="#068D9D"/>
<path d="M205.298 105.281L205.087 105.495L205.089 105.497L205.298 105.281ZM202.485 51.0938L202.291 50.8651L202.185 50.9549V51.0938H202.485ZM208.532 47.8594L208.622 48.1455L208.625 48.1447L208.532 47.8594ZM225.594 49.5L225.774 49.2596L225.769 49.2559L225.594 49.5ZM229.86 83.9531L229.887 84.2519L230.16 84.2275V83.9531H229.86ZM224.704 85.4531L224.834 85.7235L224.838 85.7215L224.704 85.4531ZM223.063 89.3438L222.903 89.5974L223.088 89.7143L223.256 89.5736L223.063 89.3438ZM247.954 85.4531L248.215 85.3048L248.128 85.1531H247.954V85.4531ZM247.438 108.047V108.347H247.572L247.661 108.247L247.438 108.047ZM213.36 107.747C209.944 107.747 207.341 106.84 205.506 105.066L205.089 105.497C207.067 107.41 209.838 108.347 213.36 108.347V107.747ZM205.508 105.067C203.711 103.3 202.785 100.61 202.785 96.9375H202.185C202.185 100.703 203.135 103.575 205.087 105.495L205.508 105.067ZM202.785 96.9375V51.0938H202.185V96.9375H202.785ZM202.679 51.3224C204.301 49.9455 206.28 48.8852 208.622 48.1454L208.442 47.5733C206.034 48.3336 203.982 49.4295 202.291 50.8651L202.679 51.3224ZM208.625 48.1447C211.001 47.3733 213.454 46.9875 215.985 46.9875V46.3875C213.392 46.3875 210.876 46.7829 208.439 47.574L208.625 48.1447ZM215.985 46.9875C219.715 46.9875 222.854 47.9114 225.42 49.7441L225.769 49.2559C223.085 47.3386 219.818 46.3875 215.985 46.3875V46.9875ZM225.415 49.7403C228.178 51.8051 229.56 54.6509 229.56 58.3125H230.16C230.16 54.4741 228.698 51.4449 225.774 49.2597L225.415 49.7403ZM229.56 58.3125V83.9531H230.16V58.3125H229.56ZM229.833 83.6543C228.043 83.8141 226.288 84.3255 224.57 85.1848L224.838 85.7215C226.494 84.8933 228.177 84.4046 229.887 84.2519L229.833 83.6543ZM224.574 85.1828C223.715 85.5964 223.049 86.0278 222.593 86.4832C222.136 86.9403 221.873 87.4419 221.873 87.9844H222.473C222.473 87.6519 222.631 87.294 223.018 86.9074C223.406 86.519 224.005 86.1224 224.834 85.7234L224.574 85.1828ZM221.873 87.9844C221.873 88.6509 222.254 89.1873 222.903 89.5974L223.223 89.0901C222.685 88.7502 222.473 88.3803 222.473 87.9844H221.873ZM223.256 89.5736C226.274 87.0433 230.787 85.7531 236.844 85.7531V85.1531C230.715 85.1531 226.04 86.4567 222.87 89.1139L223.256 89.5736ZM236.844 85.7531H247.954V85.1531H236.844V85.7531ZM247.693 85.6015C249.733 89.186 250.748 92.8385 250.748 96.5625H251.348C251.348 92.724 250.3 88.9702 248.215 85.3048L247.693 85.6015ZM250.748 96.5625C250.748 98.4032 250.425 100.453 249.775 102.714L250.352 102.88C251.014 100.578 251.348 98.4718 251.348 96.5625H250.748ZM249.775 102.714C249.126 104.97 248.268 106.673 247.215 107.847L247.661 108.247C248.796 106.983 249.688 105.186 250.352 102.88L249.775 102.714ZM247.438 107.747H213.36V108.347H247.438V107.747ZM305.233 93.4688L305.527 93.4099L305.502 93.283L305.392 93.2144L305.233 93.4688ZM301.249 105.562L301.046 105.342L301.046 105.342L301.249 105.562ZM281.702 102.281L281.981 102.171L281.906 101.981H281.702V102.281ZM281.749 106.781L281.917 107.03L282.218 106.826L281.961 106.569L281.749 106.781ZM258.686 104.156L258.483 104.377L258.486 104.379L258.686 104.156ZM259.014 77.8594L258.823 77.6287L258.821 77.6304L259.014 77.8594ZM277.249 74.0625L277.306 73.7677L277.293 73.7657L277.249 74.0625ZM279.077 74.4375L278.982 74.7221L279.275 74.8199L279.364 74.5237L279.077 74.4375ZM259.671 74.4375L259.412 74.59L259.563 74.8445L259.819 74.6981L259.671 74.4375ZM258.218 59.5781L258.093 59.3054L257.998 59.3486L257.951 59.4409L258.218 59.5781ZM266.796 56.8594L266.862 57.1521L266.864 57.1515L266.796 56.8594ZM280.202 89.8125L280.414 90.0247L280.42 90.0181L280.202 89.8125ZM280.952 87.0938H281.252V86.7937H280.952V87.0938ZM301.558 84.7969C301.558 87.0651 301.81 88.9163 302.326 90.3369L302.89 90.1319C302.407 88.8024 302.158 87.0287 302.158 84.7969H301.558ZM302.326 90.3369C302.849 91.7753 303.768 92.9067 305.074 93.7231L305.392 93.2144C304.199 92.4683 303.367 91.4434 302.89 90.1319L302.326 90.3369ZM304.939 93.5276C304.964 93.6505 304.98 93.9188 304.98 94.3594H305.58C305.58 93.925 305.565 93.5995 305.527 93.4099L304.939 93.5276ZM304.98 94.3594V95.2031H305.58V94.3594H304.98ZM304.98 95.2031C304.98 99.5762 303.658 102.942 301.046 105.342L301.452 105.783C304.214 103.246 305.58 99.705 305.58 95.2031H304.98ZM301.046 105.342C298.731 107.474 295.868 108.544 292.436 108.544V109.144C296.005 109.144 299.017 108.026 301.452 105.783L301.046 105.342ZM292.436 108.544C290.111 108.544 287.991 107.994 286.07 106.896L285.772 107.417C287.788 108.569 290.012 109.144 292.436 109.144V108.544ZM286.07 106.896C284.16 105.805 282.8 104.233 281.981 102.171L281.423 102.392C282.292 104.58 283.744 106.258 285.772 107.417L286.07 106.896ZM281.702 101.981C281.127 101.981 280.64 102.121 280.298 102.453C279.954 102.786 279.808 103.264 279.808 103.828H280.408C280.408 103.361 280.528 103.065 280.716 102.883C280.905 102.7 281.215 102.581 281.702 102.581V101.981ZM279.808 103.828C279.808 104.825 280.426 105.883 281.537 106.993L281.961 106.569C280.884 105.492 280.408 104.581 280.408 103.828H279.808ZM281.581 106.533C279.622 107.858 276.631 108.544 272.561 108.544V109.144C276.679 109.144 279.813 108.454 281.917 107.03L281.581 106.533ZM272.561 108.544C266.836 108.544 262.288 106.998 258.887 103.933L258.486 104.379C262.022 107.565 266.724 109.144 272.561 109.144V108.544ZM258.889 103.935C255.526 100.847 253.83 96.5441 253.83 90.9844H253.23C253.23 96.6747 254.972 101.153 258.483 104.377L258.889 103.935ZM253.83 90.9844C253.83 85.3987 255.632 81.1146 259.208 78.0884L258.821 77.6304C255.085 80.7916 253.23 85.2575 253.23 90.9844H253.83ZM259.206 78.09C262.485 75.3629 266.74 73.9875 271.999 73.9875V73.3875C266.632 73.3875 262.231 74.7934 258.823 77.6287L259.206 78.09ZM271.999 73.9875C273.798 73.9875 275.533 74.1115 277.205 74.3593L277.293 73.7657C275.59 73.5135 273.825 73.3875 271.999 73.3875V73.9875ZM277.192 74.357C277.754 74.4663 278.186 74.552 278.489 74.6142C278.641 74.6453 278.759 74.6703 278.845 74.6893C278.888 74.6989 278.921 74.7066 278.946 74.7127C278.974 74.7195 278.983 74.7224 278.982 74.7221L279.172 74.1529C279.103 74.13 278.903 74.0866 278.61 74.0264C278.304 73.9636 277.869 73.8775 277.306 73.768L277.192 74.357ZM279.364 74.5237C279.463 74.1955 279.518 73.8991 279.518 73.6406H278.918C278.918 73.8196 278.879 74.0545 278.79 74.3513L279.364 74.5237ZM279.518 73.6406C279.518 73.1348 279.297 72.7114 278.889 72.3863C278.492 72.071 277.924 71.8511 277.215 71.7061L277.095 72.2939C277.761 72.4301 278.224 72.6243 278.515 72.8559C278.794 73.0777 278.918 73.334 278.918 73.6406H279.518ZM277.215 71.7061C275.812 71.4192 273.993 71.2781 271.764 71.2781V71.8781C273.973 71.8781 275.748 72.0183 277.095 72.2939L277.215 71.7061ZM271.764 71.2781C267.005 71.2781 262.92 72.2396 259.522 74.1769L259.819 74.6981C263.109 72.8229 267.086 71.8781 271.764 71.8781V71.2781ZM259.929 74.285C258.432 71.7499 257.674 68.5254 257.674 64.5938H257.074C257.074 68.5996 257.846 71.9376 259.412 74.59L259.929 74.285ZM257.674 64.5938C257.674 62.3581 257.955 60.7445 258.484 59.7153L257.951 59.4409C257.355 60.5992 257.074 62.3294 257.074 64.5938H257.674ZM258.343 59.8508C260.567 58.8311 263.405 57.9305 266.862 57.152L266.73 56.5667C263.249 57.3507 260.368 58.2626 258.093 59.3054L258.343 59.8508ZM266.864 57.1515C270.309 56.3446 273.942 55.9406 277.764 55.9406V55.3406C273.899 55.3406 270.22 55.7491 266.727 56.5673L266.864 57.1515ZM277.764 55.9406C285.664 55.9406 291.582 57.6675 295.57 61.0719L295.959 60.6156C291.821 57.0825 285.74 55.3406 277.764 55.3406V55.9406ZM295.57 61.0719C299.552 64.4725 301.558 69.3035 301.558 75.6094H302.158C302.158 69.1653 300.102 64.1525 295.959 60.6156L295.57 61.0719ZM301.558 75.6094V84.7969H302.158V75.6094H301.558ZM277.53 86.7937C276.835 86.7937 276.257 86.9504 275.852 87.3166C275.442 87.6879 275.261 88.2268 275.261 88.875H275.861C275.861 88.3357 276.009 87.9839 276.255 87.7615C276.506 87.534 276.913 87.3938 277.53 87.3938V86.7937ZM275.261 88.875C275.261 89.513 275.483 90.0338 275.958 90.3824C276.415 90.7183 277.065 90.8625 277.858 90.8625V90.2625C277.12 90.2625 276.622 90.1254 276.313 89.8989C276.022 89.685 275.861 89.362 275.861 88.875H275.261ZM277.858 90.8625C278.961 90.8625 279.835 90.6037 280.414 90.0246L279.99 89.6004C279.569 90.0213 278.881 90.2625 277.858 90.2625V90.8625ZM280.42 90.0181C281 89.402 281.252 88.3985 281.252 87.0938H280.652C280.652 88.3515 280.404 89.1605 279.983 89.6069L280.42 90.0181ZM280.952 87.0938C280.952 86.7937 280.952 86.7937 280.952 86.7937C280.952 86.7937 280.952 86.7937 280.952 86.7937C280.952 86.7937 280.952 86.7937 280.952 86.7937C280.952 86.7937 280.952 86.7937 280.952 86.7937C280.952 86.7937 280.952 86.7937 280.952 86.7937C280.952 86.7937 280.952 86.7937 280.951 86.7937C280.951 86.7937 280.951 86.7937 280.951 86.7937C280.951 86.7937 280.951 86.7937 280.951 86.7937C280.951 86.7937 280.951 86.7937 280.951 86.7937C280.951 86.7937 280.951 86.7937 280.951 86.7937C280.951 86.7937 280.95 86.7937 280.95 86.7937C280.95 86.7937 280.95 86.7937 280.95 86.7937C280.95 86.7937 280.95 86.7937 280.95 86.7937C280.95 86.7937 280.95 86.7937 280.949 86.7937C280.949 86.7937 280.949 86.7937 280.949 86.7937C280.949 86.7937 280.949 86.7937 280.949 86.7937C280.948 86.7937 280.948 86.7937 280.948 86.7937C280.948 86.7937 280.948 86.7937 280.948 86.7937C280.948 86.7937 280.947 86.7937 280.947 86.7937C280.947 86.7937 280.947 86.7937 280.947 86.7937C280.947 86.7937 280.946 86.7937 280.946 86.7937C280.946 86.7937 280.946 86.7937 280.946 86.7937C280.945 86.7937 280.945 86.7937 280.945 86.7937C280.945 86.7937 280.945 86.7937 280.944 86.7937C280.944 86.7937 280.944 86.7937 280.944 86.7937C280.944 86.7937 280.943 86.7937 280.943 86.7937C280.943 86.7937 280.943 86.7937 280.942 86.7937C280.942 86.7937 280.942 86.7937 280.942 86.7937C280.941 86.7937 280.941 86.7937 280.941 86.7937C280.941 86.7937 280.94 86.7937 280.94 86.7937C280.94 86.7937 280.94 86.7937 280.939 86.7937C280.939 86.7937 280.939 86.7937 280.939 86.7937C280.938 86.7937 280.938 86.7937 280.938 86.7937C280.937 86.7937 280.937 86.7937 280.937 86.7937C280.937 86.7937 280.936 86.7937 280.936 86.7937C280.936 86.7937 280.935 86.7937 280.935 86.7937C280.935 86.7937 280.934 86.7937 280.934 86.7937C280.934 86.7937 280.933 86.7937 280.933 86.7937C280.933 86.7937 280.932 86.7937 280.932 86.7937C280.932 86.7937 280.931 86.7937 280.931 86.7937C280.931 86.7937 280.93 86.7937 280.93 86.7937C280.93 86.7937 280.929 86.7937 280.929 86.7937C280.929 86.7937 280.928 86.7937 280.928 86.7937C280.927 86.7937 280.927 86.7937 280.927 86.7937C280.926 86.7937 280.926 86.7937 280.926 86.7937C280.925 86.7937 280.925 86.7937 280.924 86.7937C280.924 86.7937 280.924 86.7937 280.923 86.7937C280.923 86.7937 280.922 86.7937 280.922 86.7937C280.921 86.7937 280.921 86.7937 280.921 86.7937C280.92 86.7937 280.92 86.7937 280.919 86.7937C280.919 86.7937 280.918 86.7937 280.918 86.7937C280.918 86.7937 280.917 86.7937 280.917 86.7937C280.916 86.7937 280.916 86.7937 280.915 86.7937C280.915 86.7937 280.914 86.7937 280.914 86.7937C280.913 86.7937 280.913 86.7937 280.912 86.7937C280.912 86.7937 280.912 86.7937 280.911 86.7937C280.911 86.7937 280.91 86.7937 280.91 86.7937C280.909 86.7937 280.909 86.7937 280.908 86.7937C280.908 86.7937 280.907 86.7937 280.907 86.7937C280.906 86.7937 280.905 86.7937 280.905 86.7937C280.904 86.7937 280.904 86.7937 280.903 86.7937C280.903 86.7937 280.902 86.7937 280.902 86.7937C280.901 86.7937 280.901 86.7937 280.9 86.7937C280.9 86.7937 280.899 86.7937 280.898 86.7937C280.898 86.7937 280.897 86.7937 280.897 86.7937C280.896 86.7937 280.896 86.7937 280.895 86.7937C280.895 86.7937 280.894 86.7937 280.893 86.7937C280.893 86.7937 280.892 86.7937 280.892 86.7937C280.891 86.7937 280.89 86.7937 280.89 86.7937C280.889 86.7937 280.889 86.7937 280.888 86.7937C280.887 86.7937 280.887 86.7937 280.886 86.7937C280.886 86.7937 280.885 86.7937 280.884 86.7937C280.884 86.7937 280.883 86.7937 280.882 86.7937C280.882 86.7937 280.881 86.7937 280.88 86.7937C280.88 86.7937 280.879 86.7937 280.879 86.7937C280.878 86.7937 280.877 86.7937 280.877 86.7937C280.876 86.7937 280.875 86.7937 280.875 86.7937C280.874 86.7937 280.873 86.7937 280.873 86.7937C280.872 86.7937 280.871 86.7937 280.87 86.7937C280.87 86.7937 280.869 86.7937 280.868 86.7937C280.868 86.7937 280.867 86.7937 280.866 86.7937C280.866 86.7937 280.865 86.7937 280.864 86.7937C280.863 86.7937 280.863 86.7937 280.862 86.7937C280.861 86.7937 280.861 86.7937 280.86 86.7937C280.859 86.7937 280.858 86.7937 280.858 86.7937C280.857 86.7937 280.856 86.7937 280.855 86.7937C280.855 86.7937 280.854 86.7937 280.853 86.7937C280.852 86.7937 280.852 86.7937 280.851 86.7937C280.85 86.7937 280.849 86.7937 280.849 86.7937C280.848 86.7937 280.847 86.7937 280.846 86.7937C280.845 86.7937 280.845 86.7937 280.844 86.7937C280.843 86.7937 280.842 86.7937 280.841 86.7937C280.841 86.7937 280.84 86.7937 280.839 86.7937C280.838 86.7937 280.837 86.7937 280.837 86.7937C280.836 86.7937 280.835 86.7937 280.834 86.7937C280.833 86.7937 280.832 86.7937 280.832 86.7937C280.831 86.7937 280.83 86.7937 280.829 86.7937C280.828 86.7937 280.827 86.7937 280.827 86.7937C280.826 86.7937 280.825 86.7937 280.824 86.7937C280.823 86.7937 280.822 86.7937 280.821 86.7937C280.821 86.7937 280.82 86.7937 280.819 86.7937C280.818 86.7937 280.817 86.7937 280.816 86.7937C280.815 86.7937 280.814 86.7937 280.813 86.7937C280.813 86.7937 280.812 86.7937 280.811 86.7937C280.81 86.7937 280.809 86.7937 280.808 86.7937C280.807 86.7937 280.806 86.7937 280.805 86.7937C280.804 86.7937 280.803 86.7937 280.803 86.7937C280.802 86.7937 280.801 86.7937 280.8 86.7937C280.799 86.7937 280.798 86.7937 280.797 86.7937C280.796 86.7937 280.795 86.7937 280.794 86.7937C280.793 86.7937 280.792 86.7937 280.791 86.7937C280.79 86.7937 280.789 86.7937 280.788 86.7937C280.787 86.7937 280.786 86.7937 280.785 86.7937C280.784 86.7937 280.783 86.7937 280.782 86.7937C280.781 86.7937 280.78 86.7937 280.779 86.7937C280.778 86.7937 280.777 86.7937 280.776 86.7937C280.775 86.7937 280.774 86.7937 280.773 86.7937C280.772 86.7937 280.771 86.7937 280.77 86.7937C280.769 86.7937 280.768 86.7937 280.767 86.7937C280.766 86.7937 280.765 86.7937 280.764 86.7937C280.763 86.7937 280.762 86.7937 280.761 86.7937C280.76 86.7937 280.759 86.7937 280.758 86.7937C280.757 86.7937 280.756 86.7937 280.754 86.7937C280.753 86.7937 280.752 86.7937 280.751 86.7937C280.75 86.7937 280.749 86.7937 280.748 86.7937C280.747 86.7937 280.746 86.7937 280.745 86.7937C280.744 86.7937 280.743 86.7937 280.741 86.7937C280.74 86.7937 280.739 86.7937 280.738 86.7937C280.737 86.7937 280.736 86.7937 280.735 86.7937C280.734 86.7937 280.732 86.7937 280.731 86.7937C280.73 86.7937 280.729 86.7937 280.728 86.7937C280.727 86.7937 280.726 86.7937 280.725 86.7937C280.723 86.7937 280.722 86.7937 280.721 86.7937C280.72 86.7937 280.719 86.7937 280.718 86.7937C280.716 86.7937 280.715 86.7937 280.714 86.7937C280.713 86.7937 280.712 86.7937 280.711 86.7937C280.709 86.7937 280.708 86.7937 280.707 86.7937C280.706 86.7937 280.705 86.7937 280.703 86.7937C280.702 86.7937 280.701 86.7937 280.7 86.7937C280.699 86.7937 280.697 86.7937 280.696 86.7937C280.695 86.7937 280.694 86.7937 280.692 86.7937C280.691 86.7937 280.69 86.7937 280.689 86.7937C280.688 86.7937 280.686 86.7937 280.685 86.7937C280.684 86.7937 280.683 86.7937 280.681 86.7937C280.68 86.7937 280.679 86.7937 280.678 86.7937C280.676 86.7937 280.675 86.7937 280.674 86.7937C280.672 86.7937 280.671 86.7937 280.67 86.7937C280.669 86.7937 280.667 86.7937 280.666 86.7937C280.665 86.7937 280.663 86.7937 280.662 86.7937C280.661 86.7937 280.66 86.7937 280.658 86.7937C280.657 86.7937 280.656 86.7937 280.654 86.7937C280.653 86.7937 280.652 86.7937 280.65 86.7937C280.649 86.7937 280.648 86.7937 280.646 86.7937C280.645 86.7937 280.644 86.7937 280.642 86.7937C280.641 86.7937 280.64 86.7937 280.638 86.7937C280.637 86.7937 280.636 86.7937 280.634 86.7937C280.633 86.7937 280.632 86.7937 280.63 86.7937C280.629 86.7937 280.627 86.7937 280.626 86.7937C280.625 86.7937 280.623 86.7937 280.622 86.7937C280.621 86.7937 280.619 86.7937 280.618 86.7937C280.616 86.7937 280.615 86.7937 280.614 86.7937C280.612 86.7937 280.611 86.7937 280.609 86.7937C280.608 86.7937 280.607 86.7937 280.605 86.7937C280.604 86.7937 280.602 86.7937 280.601 86.7937C280.599 86.7937 280.598 86.7937 280.597 86.7937C280.595 86.7937 280.594 86.7937 280.592 86.7937C280.591 86.7937 280.589 86.7937 280.588 86.7937C280.586 86.7937 280.585 86.7937 280.584 86.7937C280.582 86.7937 280.581 86.7937 280.579 86.7937C280.578 86.7937 280.576 86.7937 280.575 86.7937C280.573 86.7937 280.572 86.7937 280.57 86.7937C280.569 86.7937 280.567 86.7937 280.566 86.7937C280.564 86.7937 280.563 86.7937 280.561 86.7937C280.56 86.7937 280.558 86.7937 280.557 86.7937C280.555 86.7937 280.554 86.7937 280.552 86.7937C280.551 86.7937 280.549 86.7937 280.548 86.7937C280.546 86.7937 280.545 86.7937 280.543 86.7937C280.541 86.7937 280.54 86.7937 280.538 86.7937C280.537 86.7937 280.535 86.7937 280.534 86.7937C280.532 86.7937 280.531 86.7937 280.529 86.7937C280.527 86.7937 280.526 86.7937 280.524 86.7937C280.523 86.7937 280.521 86.7937 280.52 86.7937C280.518 86.7937 280.516 86.7937 280.515 86.7937C280.513 86.7937 280.512 86.7937 280.51 86.7937C280.508 86.7937 280.507 86.7937 280.505 86.7937C280.504 86.7937 280.502 86.7937 280.5 86.7937C280.499 86.7937 280.497 86.7937 280.495 86.7937C280.494 86.7937 280.492 86.7937 280.491 86.7937C280.489 86.7937 280.487 86.7937 280.486 86.7937C280.484 86.7937 280.482 86.7937 280.481 86.7937C280.479 86.7937 280.477 86.7937 280.476 86.7937C280.474 86.7937 280.472 86.7937 280.471 86.7937C280.469 86.7937 280.467 86.7937 280.466 86.7937C280.464 86.7937 280.462 86.7937 280.461 86.7937C280.459 86.7937 280.457 86.7937 280.456 86.7937C280.454 86.7937 280.452 86.7937 280.45 86.7937C280.449 86.7937 280.447 86.7937 280.445 86.7937C280.444 86.7937 280.442 86.7937 280.44 86.7937C280.438 86.7937 280.437 86.7937 280.435 86.7937C280.433 86.7937 280.432 86.7937 280.43 86.7937C280.428 86.7937 280.426 86.7937 280.425 86.7937C280.423 86.7937 280.421 86.7937 280.419 86.7937C280.418 86.7937 280.416 86.7937 280.414 86.7937C280.412 86.7937 280.41 86.7937 280.409 86.7937C280.407 86.7937 280.405 86.7937 280.403 86.7937C280.402 86.7937 280.4 86.7937 280.398 86.7937C280.396 86.7937 280.394 86.7937 280.393 86.7937C280.391 86.7937 280.389 86.7937 280.387 86.7937C280.385 86.7937 280.384 86.7937 280.382 86.7937C280.38 86.7937 280.378 86.7937 280.376 86.7937C280.374 86.7937 280.373 86.7937 280.371 86.7937C280.369 86.7937 280.367 86.7937 280.365 86.7937C280.363 86.7937 280.362 86.7937 280.36 86.7937C280.358 86.7937 280.356 86.7937 280.354 86.7937C280.352 86.7937 280.35 86.7937 280.349 86.7937C280.347 86.7937 280.345 86.7937 280.343 86.7937C280.341 86.7937 280.339 86.7937 280.337 86.7937C280.335 86.7937 280.333 86.7937 280.332 86.7937C280.33 86.7937 280.328 86.7937 280.326 86.7937C280.324 86.7937 280.322 86.7937 280.32 86.7937C280.318 86.7937 280.316 86.7937 280.314 86.7937C280.312 86.7937 280.311 86.7937 280.309 86.7937C280.307 86.7937 280.305 86.7937 280.303 86.7937C280.301 86.7937 280.299 86.7937 280.297 86.7937C280.295 86.7937 280.293 86.7937 280.291 86.7937C280.289 86.7937 280.287 86.7937 280.285 86.7937C280.283 86.7937 280.281 86.7937 280.279 86.7937C280.277 86.7937 280.275 86.7937 280.273 86.7937C280.271 86.7937 280.269 86.7937 280.267 86.7937C280.265 86.7937 280.263 86.7937 280.261 86.7937C280.259 86.7937 280.257 86.7937 280.255 86.7937C280.253 86.7937 280.251 86.7937 280.249 86.7937C280.247 86.7937 280.245 86.7937 280.243 86.7937C280.241 86.7937 280.239 86.7937 280.237 86.7937C280.235 86.7937 280.233 86.7937 280.231 86.7937C280.229 86.7937 280.227 86.7937 280.225 86.7937C280.223 86.7937 280.221 86.7937 280.219 86.7937C280.217 86.7937 280.215 86.7937 280.213 86.7937C280.21 86.7937 280.208 86.7937 280.206 86.7937C280.204 86.7937 280.202 86.7937 280.2 86.7937C280.198 86.7937 280.196 86.7937 280.194 86.7937C280.192 86.7937 280.19 86.7937 280.187 86.7937C280.185 86.7937 280.183 86.7937 280.181 86.7937C280.179 86.7937 280.177 86.7937 280.175 86.7937C280.173 86.7937 280.171 86.7937 280.168 86.7937C280.166 86.7937 280.164 86.7937 280.162 86.7937C280.16 86.7937 280.158 86.7937 280.156 86.7937C280.153 86.7937 280.151 86.7937 280.149 86.7937C280.147 86.7937 280.145 86.7937 280.143 86.7937C280.14 86.7937 280.138 86.7937 280.136 86.7937C280.134 86.7937 280.132 86.7937 280.13 86.7937C280.127 86.7937 280.125 86.7937 280.123 86.7937C280.121 86.7937 280.119 86.7937 280.116 86.7937C280.114 86.7937 280.112 86.7937 280.11 86.7937C280.108 86.7937 280.105 86.7937 280.103 86.7937C280.101 86.7937 280.099 86.7937 280.096 86.7937C280.094 86.7937 280.092 86.7937 280.09 86.7937C280.088 86.7937 280.085 86.7937 280.083 86.7937C280.081 86.7937 280.079 86.7937 280.076 86.7937C280.074 86.7937 280.072 86.7937 280.07 86.7937C280.067 86.7937 280.065 86.7937 280.063 86.7937C280.06 86.7937 280.058 86.7937 280.056 86.7937C280.054 86.7937 280.051 86.7937 280.049 86.7937C280.047 86.7937 280.044 86.7937 280.042 86.7937C280.04 86.7937 280.038 86.7937 280.035 86.7937C280.033 86.7937 280.031 86.7937 280.028 86.7937C280.026 86.7937 280.024 86.7937 280.021 86.7937C280.019 86.7937 280.017 86.7937 280.014 86.7937C280.012 86.7937 280.01 86.7937 280.007 86.7937C280.005 86.7937 280.003 86.7937 280 86.7937C279.998 86.7937 279.996 86.7937 279.993 86.7937C279.991 86.7937 279.989 86.7937 279.986 86.7937C279.984 86.7937 279.981 86.7937 279.979 86.7937C279.977 86.7937 279.974 86.7937 279.972 86.7937C279.97 86.7937 279.967 86.7937 279.965 86.7937C279.962 86.7937 279.96 86.7937 279.958 86.7937C279.955 86.7937 279.953 86.7937 279.95 86.7937C279.948 86.7937 279.946 86.7937 279.943 86.7937C279.941 86.7937 279.938 86.7937 279.936 86.7937C279.933 86.7937 279.931 86.7937 279.929 86.7937C279.926 86.7937 279.924 86.7937 279.921 86.7937C279.919 86.7937 279.916 86.7937 279.914 86.7937C279.911 86.7937 279.909 86.7937 279.907 86.7937C279.904 86.7937 279.902 86.7937 279.899 86.7937C279.897 86.7937 279.894 86.7937 279.892 86.7937C279.889 86.7937 279.887 86.7937 279.884 86.7937C279.882 86.7937 279.879 86.7937 279.877 86.7937C279.874 86.7937 279.872 86.7937 279.869 86.7937C279.867 86.7937 279.864 86.7937 279.862 86.7937C279.859 86.7937 279.857 86.7937 279.854 86.7937C279.852 86.7937 279.849 86.7937 279.847 86.7937C279.844 86.7937 279.842 86.7937 279.839 86.7937C279.836 86.7937 279.834 86.7937 279.831 86.7937C279.829 86.7937 279.826 86.7937 279.824 86.7937C279.821 86.7937 279.819 86.7937 279.816 86.7937C279.813 86.7937 279.811 86.7937 279.808 86.7937C279.806 86.7937 279.803 86.7937 279.801 86.7937C279.798 86.7937 279.795 86.7937 279.793 86.7937C279.79 86.7937 279.788 86.7937 279.785 86.7937C279.782 86.7937 279.78 86.7937 279.777 86.7937C279.775 86.7937 279.772 86.7937 279.769 86.7937C279.767 86.7937 279.764 86.7937 279.761 86.7937C279.759 86.7937 279.756 86.7937 279.754 86.7937C279.751 86.7937 279.748 86.7937 279.746 86.7937C279.743 86.7937 279.74 86.7937 279.738 86.7937C279.735 86.7937 279.732 86.7937 279.73 86.7937C279.727 86.7937 279.724 86.7937 279.722 86.7937C279.719 86.7937 279.716 86.7937 279.714 86.7937C279.711 86.7937 279.708 86.7937 279.706 86.7937C279.703 86.7937 279.7 86.7937 279.698 86.7937C279.695 86.7937 279.692 86.7937 279.689 86.7937C279.687 86.7937 279.684 86.7937 279.681 86.7937C279.679 86.7937 279.676 86.7937 279.673 86.7937C279.67 86.7937 279.668 86.7937 279.665 86.7937C279.662 86.7937 279.659 86.7937 279.657 86.7937C279.654 86.7937 279.651 86.7937 279.648 86.7937C279.646 86.7937 279.643 86.7937 279.64 86.7937C279.637 86.7937 279.635 86.7937 279.632 86.7937C279.629 86.7937 279.626 86.7937 279.624 86.7937C279.621 86.7937 279.618 86.7937 279.615 86.7937C279.612 86.7937 279.61 86.7937 279.607 86.7937C279.604 86.7937 279.601 86.7937 279.599 86.7937C279.596 86.7937 279.593 86.7937 279.59 86.7937C279.587 86.7937 279.584 86.7937 279.582 86.7937C279.579 86.7937 279.576 86.7937 279.573 86.7937C279.57 86.7937 279.568 86.7937 279.565 86.7937C279.562 86.7937 279.559 86.7937 279.556 86.7937C279.553 86.7937 279.55 86.7937 279.548 86.7937C279.545 86.7937 279.542 86.7937 279.539 86.7937C279.536 86.7937 279.533 86.7937 279.53 86.7937C279.528 86.7937 279.525 86.7937 279.522 86.7937C279.519 86.7937 279.516 86.7937 279.513 86.7937C279.51 86.7937 279.507 86.7937 279.504 86.7937C279.502 86.7937 279.499 86.7937 279.496 86.7937C279.493 86.7937 279.49 86.7937 279.487 86.7937C279.484 86.7937 279.481 86.7937 279.478 86.7937C279.475 86.7937 279.472 86.7937 279.469 86.7937C279.467 86.7937 279.464 86.7937 279.461 86.7937C279.458 86.7937 279.455 86.7937 279.452 86.7937C279.449 86.7937 279.446 86.7937 279.443 86.7937C279.44 86.7937 279.437 86.7937 279.434 86.7937C279.431 86.7937 279.428 86.7937 279.425 86.7937C279.422 86.7937 279.419 86.7937 279.416 86.7937C279.413 86.7937 279.41 86.7937 279.407 86.7937C279.404 86.7937 279.401 86.7937 279.398 86.7937C279.395 86.7937 279.392 86.7937 279.389 86.7937C279.386 86.7937 279.383 86.7937 279.38 86.7937C279.377 86.7937 279.374 86.7937 279.371 86.7937C279.368 86.7937 279.365 86.7937 279.362 86.7937C279.359 86.7937 279.356 86.7937 279.353 86.7937C279.35 86.7937 279.347 86.7937 279.344 86.7937C279.341 86.7937 279.338 86.7937 279.335 86.7937C279.332 86.7937 279.328 86.7937 279.325 86.7937C279.322 86.7937 279.319 86.7937 279.316 86.7937C279.313 86.7937 279.31 86.7937 279.307 86.7937C279.304 86.7937 279.301 86.7937 279.298 86.7937C279.295 86.7937 279.291 86.7937 279.288 86.7937C279.285 86.7937 279.282 86.7937 279.279 86.7937C279.276 86.7937 279.273 86.7937 279.27 86.7937C279.266 86.7937 279.263 86.7937 279.26 86.7937C279.257 86.7937 279.254 86.7937 279.251 86.7937C279.248 86.7937 279.245 86.7937 279.241 86.7937C279.238 86.7937 279.235 86.7937 279.232 86.7937C279.229 86.7937 279.226 86.7937 279.222 86.7937C279.219 86.7937 279.216 86.7937 279.213 86.7937C279.21 86.7937 279.207 86.7937 279.203 86.7937C279.2 86.7937 279.197 86.7937 279.194 86.7937C279.191 86.7937 279.187 86.7937 279.184 86.7937C279.181 86.7937 279.178 86.7937 279.175 86.7937C279.171 86.7937 279.168 86.7937 279.165 86.7937C279.162 86.7937 279.158 86.7937 279.155 86.7937C279.152 86.7937 279.149 86.7937 279.146 86.7937C279.142 86.7937 279.139 86.7937 279.136 86.7937C279.133 86.7937 279.129 86.7937 279.126 86.7937C279.123 86.7937 279.12 86.7937 279.116 86.7937C279.113 86.7937 279.11 86.7937 279.107 86.7937C279.103 86.7937 279.1 86.7937 279.097 86.7937C279.093 86.7937 279.09 86.7937 279.087 86.7937C279.084 86.7937 279.08 86.7937 279.077 86.7937C279.074 86.7937 279.07 86.7937 279.067 86.7937C279.064 86.7937 279.06 86.7937 279.057 86.7937C279.054 86.7937 279.05 86.7937 279.047 86.7937C279.044 86.7937 279.04 86.7937 279.037 86.7937C279.034 86.7937 279.03 86.7937 279.027 86.7937C279.024 86.7937 279.02 86.7937 279.017 86.7937C279.014 86.7937 279.01 86.7937 279.007 86.7937C279.004 86.7937 279 86.7937 278.997 86.7937C278.994 86.7937 278.99 86.7937 278.987 86.7937C278.983 86.7937 278.98 86.7937 278.977 86.7937C278.973 86.7937 278.97 86.7937 278.967 86.7937C278.963 86.7937 278.96 86.7937 278.956 86.7937C278.953 86.7937 278.95 86.7937 278.946 86.7937C278.943 86.7937 278.939 86.7937 278.936 86.7937C278.932 86.7937 278.929 86.7937 278.926 86.7937C278.922 86.7937 278.919 86.7937 278.915 86.7937C278.912 86.7937 278.908 86.7937 278.905 86.7937C278.902 86.7937 278.898 86.7937 278.895 86.7937C278.891 86.7937 278.888 86.7937 278.884 86.7937C278.881 86.7937 278.877 86.7937 278.874 86.7937C278.87 86.7937 278.867 86.7937 278.863 86.7937C278.86 86.7937 278.856 86.7937 278.853 86.7937C278.849 86.7937 278.846 86.7937 278.842 86.7937C278.839 86.7937 278.835 86.7937 278.832 86.7937C278.828 86.7937 278.825 86.7937 278.821 86.7937C278.818 86.7937 278.814 86.7937 278.811 86.7937C278.807 86.7937 278.804 86.7937 278.8 86.7937C278.797 86.7937 278.793 86.7937 278.79 86.7937C278.786 86.7937 278.783 86.7937 278.779 86.7937C278.775 86.7937 278.772 86.7937 278.768 86.7937C278.765 86.7937 278.761 86.7937 278.758 86.7937C278.754 86.7937 278.751 86.7937 278.747 86.7937C278.743 86.7937 278.74 86.7937 278.736 86.7937C278.733 86.7937 278.729 86.7937 278.725 86.7937C278.722 86.7937 278.718 86.7937 278.715 86.7937C278.711 86.7937 278.707 86.7937 278.704 86.7937C278.7 86.7937 278.697 86.7937 278.693 86.7937C278.689 86.7937 278.686 86.7937 278.682 86.7937C278.678 86.7937 278.675 86.7937 278.671 86.7937C278.668 86.7937 278.664 86.7937 278.66 86.7937C278.657 86.7937 278.653 86.7937 278.649 86.7937C278.646 86.7937 278.642 86.7937 278.638 86.7937C278.635 86.7937 278.631 86.7937 278.627 86.7937C278.624 86.7937 278.62 86.7937 278.616 86.7937C278.613 86.7937 278.609 86.7937 278.605 86.7937C278.602 86.7937 278.598 86.7937 278.594 86.7937C278.59 86.7937 278.587 86.7937 278.583 86.7937C278.579 86.7937 278.576 86.7937 278.572 86.7937C278.568 86.7937 278.564 86.7937 278.561 86.7937C278.557 86.7937 278.553 86.7937 278.55 86.7937C278.546 86.7937 278.542 86.7937 278.538 86.7937C278.535 86.7937 278.531 86.7937 278.527 86.7937C278.523 86.7937 278.52 86.7937 278.516 86.7937C278.512 86.7937 278.508 86.7937 278.505 86.7937C278.501 86.7937 278.497 86.7937 278.493 86.7937C278.489 86.7937 278.486 86.7937 278.482 86.7937C278.478 86.7937 278.474 86.7937 278.471 86.7937C278.467 86.7937 278.463 86.7937 278.459 86.7937C278.455 86.7937 278.452 86.7937 278.448 86.7937C278.444 86.7937 278.44 86.7937 278.436 86.7937C278.432 86.7937 278.429 86.7937 278.425 86.7937C278.421 86.7937 278.417 86.7937 278.413 86.7937C278.409 86.7937 278.406 86.7937 278.402 86.7937C278.398 86.7937 278.394 86.7937 278.39 86.7937C278.386 86.7937 278.383 86.7937 278.379 86.7937C278.375 86.7937 278.371 86.7937 278.367 86.7937C278.363 86.7937 278.359 86.7937 278.355 86.7937C278.352 86.7937 278.348 86.7937 278.344 86.7937C278.34 86.7937 278.336 86.7937 278.332 86.7937C278.328 86.7937 278.324 86.7937 278.32 86.7937C278.316 86.7937 278.313 86.7937 278.309 86.7937C278.305 86.7937 278.301 86.7937 278.297 86.7937C278.293 86.7937 278.289 86.7937 278.285 86.7937C278.281 86.7937 278.277 86.7937 278.273 86.7937C278.269 86.7937 278.265 86.7937 278.261 86.7937C278.257 86.7937 278.254 86.7937 278.25 86.7937C278.246 86.7937 278.242 86.7937 278.238 86.7937C278.234 86.7937 278.23 86.7937 278.226 86.7937C278.222 86.7937 278.218 86.7937 278.214 86.7937C278.21 86.7937 278.206 86.7937 278.202 86.7937C278.198 86.7937 278.194 86.7937 278.19 86.7937C278.186 86.7937 278.182 86.7937 278.178 86.7937C278.174 86.7937 278.17 86.7937 278.166 86.7937C278.162 86.7937 278.158 86.7937 278.154 86.7937C278.15 86.7937 278.146 86.7937 278.142 86.7937C278.138 86.7937 278.134 86.7937 278.129 86.7937C278.125 86.7937 278.121 86.7937 278.117 86.7937C278.113 86.7937 278.109 86.7937 278.105 86.7937C278.101 86.7937 278.097 86.7937 278.093 86.7937C278.089 86.7937 278.085 86.7937 278.081 86.7937C278.077 86.7937 278.073 86.7937 278.068 86.7937C278.064 86.7937 278.06 86.7937 278.056 86.7937C278.052 86.7937 278.048 86.7937 278.044 86.7937C278.04 86.7937 278.036 86.7937 278.032 86.7937C278.027 86.7937 278.023 86.7937 278.019 86.7937C278.015 86.7937 278.011 86.7937 278.007 86.7937C278.003 86.7937 277.999 86.7937 277.994 86.7937C277.99 86.7937 277.986 86.7937 277.982 86.7937C277.978 86.7937 277.974 86.7937 277.969 86.7937C277.965 86.7937 277.961 86.7937 277.957 86.7937C277.953 86.7937 277.949 86.7937 277.944 86.7937C277.94 86.7937 277.936 86.7937 277.932 86.7937C277.928 86.7937 277.924 86.7937 277.919 86.7937C277.915 86.7937 277.911 86.7937 277.907 86.7937C277.903 86.7937 277.898 86.7937 277.894 86.7937C277.89 86.7937 277.886 86.7937 277.881 86.7937C277.877 86.7937 277.873 86.7937 277.869 86.7937C277.865 86.7937 277.86 86.7937 277.856 86.7937C277.852 86.7937 277.848 86.7937 277.843 86.7937C277.839 86.7937 277.835 86.7937 277.831 86.7937C277.826 86.7937 277.822 86.7937 277.818 86.7937C277.814 86.7937 277.809 86.7937 277.805 86.7937C277.801 86.7937 277.796 86.7937 277.792 86.7937C277.788 86.7937 277.784 86.7937 277.779 86.7937C277.775 86.7937 277.771 86.7937 277.766 86.7937C277.762 86.7937 277.758 86.7937 277.754 86.7937C277.749 86.7937 277.745 86.7937 277.741 86.7937C277.736 86.7937 277.732 86.7937 277.728 86.7937C277.723 86.7937 277.719 86.7937 277.715 86.7937C277.71 86.7937 277.706 86.7937 277.702 86.7937C277.697 86.7937 277.693 86.7937 277.689 86.7937C277.684 86.7937 277.68 86.7937 277.676 86.7937C277.671 86.7937 277.667 86.7937 277.662 86.7937C277.658 86.7937 277.654 86.7937 277.649 86.7937C277.645 86.7937 277.641 86.7937 277.636 86.7937C277.632 86.7937 277.627 86.7937 277.623 86.7937C277.619 86.7937 277.614 86.7937 277.61 86.7937C277.605 86.7937 277.601 86.7937 277.597 86.7937C277.592 86.7937 277.588 86.7937 277.583 86.7937C277.579 86.7937 277.574 86.7937 277.57 86.7937C277.566 86.7937 277.561 86.7937 277.557 86.7937C277.552 86.7937 277.548 86.7937 277.543 86.7937C277.539 86.7937 277.535 86.7937 277.53 86.7937V87.3938C277.535 87.3938 277.539 87.3938 277.543 87.3938C277.548 87.3938 277.552 87.3938 277.557 87.3938C277.561 87.3938 277.566 87.3938 277.57 87.3938C277.574 87.3938 277.579 87.3938 277.583 87.3938C277.588 87.3938 277.592 87.3938 277.597 87.3938C277.601 87.3938 277.605 87.3938 277.61 87.3938C277.614 87.3938 277.619 87.3938 277.623 87.3938C277.627 87.3938 277.632 87.3938 277.636 87.3938C277.641 87.3938 277.645 87.3938 277.649 87.3938C277.654 87.3938 277.658 87.3938 277.662 87.3938C277.667 87.3938 277.671 87.3938 277.676 87.3938C277.68 87.3938 277.684 87.3938 277.689 87.3938C277.693 87.3938 277.697 87.3938 277.702 87.3938C277.706 87.3938 277.71 87.3938 277.715 87.3938C277.719 87.3938 277.723 87.3938 277.728 87.3938C277.732 87.3938 277.736 87.3938 277.741 87.3938C277.745 87.3938 277.749 87.3938 277.754 87.3938C277.758 87.3938 277.762 87.3938 277.766 87.3938C277.771 87.3938 277.775 87.3938 277.779 87.3938C277.784 87.3938 277.788 87.3938 277.792 87.3938C277.796 87.3938 277.801 87.3938 277.805 87.3938C277.809 87.3938 277.814 87.3938 277.818 87.3938C277.822 87.3938 277.826 87.3938 277.831 87.3938C277.835 87.3938 277.839 87.3938 277.843 87.3938C277.848 87.3938 277.852 87.3938 277.856 87.3938C277.86 87.3938 277.865 87.3938 277.869 87.3938C277.873 87.3938 277.877 87.3938 277.881 87.3938C277.886 87.3938 277.89 87.3938 277.894 87.3938C277.898 87.3938 277.903 87.3938 277.907 87.3938C277.911 87.3938 277.915 87.3938 277.919 87.3938C277.924 87.3938 277.928 87.3938 277.932 87.3938C277.936 87.3938 277.94 87.3938 277.944 87.3938C277.949 87.3938 277.953 87.3938 277.957 87.3938C277.961 87.3938 277.965 87.3938 277.969 87.3938C277.974 87.3938 277.978 87.3938 277.982 87.3938C277.986 87.3938 277.99 87.3938 277.994 87.3938C277.999 87.3938 278.003 87.3938 278.007 87.3938C278.011 87.3938 278.015 87.3938 278.019 87.3938C278.023 87.3938 278.027 87.3938 278.032 87.3938C278.036 87.3938 278.04 87.3938 278.044 87.3938C278.048 87.3938 278.052 87.3938 278.056 87.3938C278.06 87.3938 278.064 87.3938 278.068 87.3938C278.073 87.3938 278.077 87.3938 278.081 87.3938C278.085 87.3938 278.089 87.3938 278.093 87.3938C278.097 87.3938 278.101 87.3938 278.105 87.3938C278.109 87.3938 278.113 87.3938 278.117 87.3938C278.121 87.3938 278.125 87.3938 278.129 87.3938C278.134 87.3938 278.138 87.3938 278.142 87.3938C278.146 87.3938 278.15 87.3938 278.154 87.3938C278.158 87.3938 278.162 87.3938 278.166 87.3938C278.17 87.3938 278.174 87.3938 278.178 87.3938C278.182 87.3938 278.186 87.3938 278.19 87.3938C278.194 87.3938 278.198 87.3938 278.202 87.3938C278.206 87.3938 278.21 87.3938 278.214 87.3938C278.218 87.3938 278.222 87.3938 278.226 87.3938C278.23 87.3938 278.234 87.3938 278.238 87.3938C278.242 87.3938 278.246 87.3938 278.25 87.3938C278.254 87.3938 278.257 87.3938 278.261 87.3938C278.265 87.3938 278.269 87.3938 278.273 87.3938C278.277 87.3938 278.281 87.3938 278.285 87.3938C278.289 87.3938 278.293 87.3938 278.297 87.3938C278.301 87.3938 278.305 87.3938 278.309 87.3938C278.313 87.3938 278.316 87.3938 278.32 87.3938C278.324 87.3938 278.328 87.3938 278.332 87.3938C278.336 87.3938 278.34 87.3938 278.344 87.3938C278.348 87.3938 278.352 87.3938 278.355 87.3938C278.359 87.3938 278.363 87.3938 278.367 87.3938C278.371 87.3938 278.375 87.3938 278.379 87.3938C278.383 87.3938 278.386 87.3938 278.39 87.3938C278.394 87.3938 278.398 87.3938 278.402 87.3938C278.406 87.3938 278.409 87.3938 278.413 87.3938C278.417 87.3938 278.421 87.3938 278.425 87.3938C278.429 87.3938 278.432 87.3938 278.436 87.3938C278.44 87.3938 278.444 87.3938 278.448 87.3938C278.452 87.3938 278.455 87.3938 278.459 87.3938C278.463 87.3938 278.467 87.3938 278.471 87.3938C278.474 87.3938 278.478 87.3938 278.482 87.3938C278.486 87.3938 278.489 87.3938 278.493 87.3938C278.497 87.3938 278.501 87.3938 278.505 87.3938C278.508 87.3938 278.512 87.3938 278.516 87.3938C278.52 87.3938 278.523 87.3938 278.527 87.3938C278.531 87.3938 278.535 87.3938 278.538 87.3938C278.542 87.3938 278.546 87.3938 278.55 87.3938C278.553 87.3938 278.557 87.3938 278.561 87.3938C278.564 87.3938 278.568 87.3938 278.572 87.3938C278.576 87.3938 278.579 87.3938 278.583 87.3938C278.587 87.3938 278.59 87.3938 278.594 87.3938C278.598 87.3938 278.602 87.3938 278.605 87.3938C278.609 87.3938 278.613 87.3938 278.616 87.3938C278.62 87.3938 278.624 87.3938 278.627 87.3938C278.631 87.3938 278.635 87.3938 278.638 87.3938C278.642 87.3938 278.646 87.3938 278.649 87.3938C278.653 87.3938 278.657 87.3938 278.66 87.3938C278.664 87.3938 278.668 87.3938 278.671 87.3938C278.675 87.3938 278.678 87.3938 278.682 87.3938C278.686 87.3938 278.689 87.3938 278.693 87.3938C278.697 87.3938 278.7 87.3938 278.704 87.3938C278.707 87.3938 278.711 87.3938 278.715 87.3938C278.718 87.3938 278.722 87.3938 278.725 87.3938C278.729 87.3938 278.733 87.3938 278.736 87.3938C278.74 87.3938 278.743 87.3938 278.747 87.3938C278.751 87.3938 278.754 87.3938 278.758 87.3938C278.761 87.3938 278.765 87.3938 278.768 87.3938C278.772 87.3938 278.775 87.3938 278.779 87.3938C278.783 87.3938 278.786 87.3938 278.79 87.3938C278.793 87.3938 278.797 87.3938 278.8 87.3938C278.804 87.3938 278.807 87.3938 278.811 87.3938C278.814 87.3938 278.818 87.3938 278.821 87.3938C278.825 87.3938 278.828 87.3938 278.832 87.3938C278.835 87.3938 278.839 87.3938 278.842 87.3938C278.846 87.3938 278.849 87.3938 278.853 87.3938C278.856 87.3938 278.86 87.3938 278.863 87.3938C278.867 87.3938 278.87 87.3938 278.874 87.3938C278.877 87.3938 278.881 87.3938 278.884 87.3938C278.888 87.3938 278.891 87.3938 278.895 87.3938C278.898 87.3938 278.902 87.3938 278.905 87.3938C278.908 87.3938 278.912 87.3938 278.915 87.3938C278.919 87.3938 278.922 87.3938 278.926 87.3938C278.929 87.3938 278.932 87.3938 278.936 87.3938C278.939 87.3938 278.943 87.3938 278.946 87.3938C278.95 87.3938 278.953 87.3938 278.956 87.3938C278.96 87.3938 278.963 87.3938 278.967 87.3938C278.97 87.3938 278.973 87.3938 278.977 87.3938C278.98 87.3938 278.983 87.3938 278.987 87.3938C278.99 87.3938 278.994 87.3938 278.997 87.3938C279 87.3938 279.004 87.3938 279.007 87.3938C279.01 87.3938 279.014 87.3938 279.017 87.3938C279.02 87.3938 279.024 87.3938 279.027 87.3938C279.03 87.3938 279.034 87.3938 279.037 87.3938C279.04 87.3938 279.044 87.3938 279.047 87.3938C279.05 87.3938 279.054 87.3938 279.057 87.3938C279.06 87.3938 279.064 87.3938 279.067 87.3938C279.07 87.3938 279.074 87.3938 279.077 87.3938C279.08 87.3938 279.084 87.3938 279.087 87.3938C279.09 87.3938 279.093 87.3938 279.097 87.3938C279.1 87.3938 279.103 87.3938 279.107 87.3938C279.11 87.3938 279.113 87.3938 279.116 87.3938C279.12 87.3938 279.123 87.3938 279.126 87.3938C279.129 87.3938 279.133 87.3938 279.136 87.3938C279.139 87.3938 279.142 87.3938 279.146 87.3938C279.149 87.3938 279.152 87.3938 279.155 87.3938C279.158 87.3938 279.162 87.3938 279.165 87.3938C279.168 87.3938 279.171 87.3938 279.175 87.3938C279.178 87.3938 279.181 87.3938 279.184 87.3938C279.187 87.3938 279.191 87.3938 279.194 87.3938C279.197 87.3938 279.2 87.3938 279.203 87.3938C279.207 87.3938 279.21 87.3938 279.213 87.3938C279.216 87.3938 279.219 87.3938 279.222 87.3938C279.226 87.3938 279.229 87.3938 279.232 87.3938C279.235 87.3938 279.238 87.3938 279.241 87.3938C279.245 87.3938 279.248 87.3938 279.251 87.3938C279.254 87.3938 279.257 87.3938 279.26 87.3938C279.263 87.3938 279.266 87.3938 279.27 87.3938C279.273 87.3938 279.276 87.3938 279.279 87.3938C279.282 87.3938 279.285 87.3938 279.288 87.3938C279.291 87.3938 279.295 87.3938 279.298 87.3938C279.301 87.3938 279.304 87.3938 279.307 87.3938C279.31 87.3938 279.313 87.3938 279.316 87.3938C279.319 87.3938 279.322 87.3938 279.325 87.3938C279.328 87.3938 279.332 87.3938 279.335 87.3938C279.338 87.3938 279.341 87.3938 279.344 87.3938C279.347 87.3938 279.35 87.3938 279.353 87.3938C279.356 87.3938 279.359 87.3938 279.362 87.3938C279.365 87.3938 279.368 87.3938 279.371 87.3938C279.374 87.3938 279.377 87.3938 279.38 87.3938C279.383 87.3938 279.386 87.3938 279.389 87.3938C279.392 87.3938 279.395 87.3938 279.398 87.3938C279.401 87.3938 279.404 87.3938 279.407 87.3938C279.41 87.3938 279.413 87.3938 279.416 87.3938C279.419 87.3938 279.422 87.3938 279.425 87.3938C279.428 87.3938 279.431 87.3938 279.434 87.3938C279.437 87.3938 279.44 87.3938 279.443 87.3938C279.446 87.3938 279.449 87.3938 279.452 87.3938C279.455 87.3938 279.458 87.3938 279.461 87.3938C279.464 87.3938 279.467 87.3938 279.469 87.3938C279.472 87.3938 279.475 87.3938 279.478 87.3938C279.481 87.3938 279.484 87.3938 279.487 87.3938C279.49 87.3938 279.493 87.3938 279.496 87.3938C279.499 87.3938 279.502 87.3938 279.504 87.3938C279.507 87.3938 279.51 87.3938 279.513 87.3938C279.516 87.3938 279.519 87.3938 279.522 87.3938C279.525 87.3938 279.528 87.3938 279.53 87.3938C279.533 87.3938 279.536 87.3938 279.539 87.3938C279.542 87.3938 279.545 87.3938 279.548 87.3938C279.55 87.3938 279.553 87.3938 279.556 87.3938C279.559 87.3938 279.562 87.3938 279.565 87.3938C279.568 87.3938 279.57 87.3938 279.573 87.3938C279.576 87.3938 279.579 87.3938 279.582 87.3938C279.584 87.3938 279.587 87.3938 279.59 87.3938C279.593 87.3938 279.596 87.3938 279.599 87.3938C279.601 87.3938 279.604 87.3938 279.607 87.3938C279.61 87.3938 279.612 87.3938 279.615 87.3938C279.618 87.3938 279.621 87.3938 279.624 87.3938C279.626 87.3938 279.629 87.3938 279.632 87.3938C279.635 87.3938 279.637 87.3938 279.64 87.3938C279.643 87.3938 279.646 87.3938 279.648 87.3938C279.651 87.3938 279.654 87.3938 279.657 87.3938C279.659 87.3938 279.662 87.3938 279.665 87.3938C279.668 87.3938 279.67 87.3938 279.673 87.3938C279.676 87.3938 279.679 87.3938 279.681 87.3938C279.684 87.3938 279.687 87.3938 279.689 87.3938C279.692 87.3938 279.695 87.3938 279.698 87.3938C279.7 87.3938 279.703 87.3938 279.706 87.3938C279.708 87.3938 279.711 87.3938 279.714 87.3938C279.716 87.3938 279.719 87.3938 279.722 87.3938C279.724 87.3938 279.727 87.3938 279.73 87.3938C279.732 87.3938 279.735 87.3938 279.738 87.3938C279.74 87.3938 279.743 87.3938 279.746 87.3938C279.748 87.3938 279.751 87.3938 279.754 87.3938C279.756 87.3938 279.759 87.3938 279.761 87.3938C279.764 87.3938 279.767 87.3938 279.769 87.3938C279.772 87.3938 279.775 87.3938 279.777 87.3938C279.78 87.3938 279.782 87.3938 279.785 87.3938C279.788 87.3938 279.79 87.3938 279.793 87.3938C279.795 87.3938 279.798 87.3938 279.801 87.3938C279.803 87.3938 279.806 87.3938 279.808 87.3938C279.811 87.3938 279.813 87.3938 279.816 87.3938C279.819 87.3938 279.821 87.3938 279.824 87.3938C279.826 87.3938 279.829 87.3938 279.831 87.3938C279.834 87.3938 279.836 87.3938 279.839 87.3938C279.842 87.3938 279.844 87.3938 279.847 87.3938C279.849 87.3938 279.852 87.3938 279.854 87.3938C279.857 87.3938 279.859 87.3938 279.862 87.3938C279.864 87.3938 279.867 87.3938 279.869 87.3938C279.872 87.3938 279.874 87.3938 279.877 87.3938C279.879 87.3938 279.882 87.3938 279.884 87.3938C279.887 87.3938 279.889 87.3938 279.892 87.3938C279.894 87.3938 279.897 87.3938 279.899 87.3938C279.902 87.3938 279.904 87.3938 279.907 87.3938C279.909 87.3938 279.911 87.3938 279.914 87.3938C279.916 87.3938 279.919 87.3938 279.921 87.3938C279.924 87.3938 279.926 87.3938 279.929 87.3938C279.931 87.3938 279.933 87.3938 279.936 87.3938C279.938 87.3938 279.941 87.3938 279.943 87.3938C279.946 87.3938 279.948 87.3938 279.95 87.3938C279.953 87.3938 279.955 87.3938 279.958 87.3938C279.96 87.3938 279.962 87.3938 279.965 87.3938C279.967 87.3938 279.97 87.3938 279.972 87.3938C279.974 87.3938 279.977 87.3938 279.979 87.3938C279.981 87.3938 279.984 87.3938 279.986 87.3938C279.989 87.3938 279.991 87.3938 279.993 87.3938C279.996 87.3938 279.998 87.3938 280 87.3938C280.003 87.3938 280.005 87.3938 280.007 87.3938C280.01 87.3938 280.012 87.3938 280.014 87.3938C280.017 87.3938 280.019 87.3938 280.021 87.3938C280.024 87.3938 280.026 87.3938 280.028 87.3938C280.031 87.3938 280.033 87.3938 280.035 87.3938C280.038 87.3938 280.04 87.3938 280.042 87.3938C280.044 87.3938 280.047 87.3938 280.049 87.3938C280.051 87.3938 280.054 87.3938 280.056 87.3938C280.058 87.3938 280.06 87.3938 280.063 87.3938C280.065 87.3938 280.067 87.3938 280.07 87.3938C280.072 87.3938 280.074 87.3938 280.076 87.3938C280.079 87.3938 280.081 87.3938 280.083 87.3938C280.085 87.3938 280.088 87.3938 280.09 87.3938C280.092 87.3938 280.094 87.3938 280.096 87.3938C280.099 87.3938 280.101 87.3938 280.103 87.3938C280.105 87.3938 280.108 87.3938 280.11 87.3938C280.112 87.3938 280.114 87.3938 280.116 87.3938C280.119 87.3938 280.121 87.3938 280.123 87.3938C280.125 87.3938 280.127 87.3938 280.13 87.3938C280.132 87.3938 280.134 87.3938 280.136 87.3938C280.138 87.3938 280.14 87.3938 280.143 87.3938C280.145 87.3938 280.147 87.3938 280.149 87.3938C280.151 87.3938 280.153 87.3938 280.156 87.3938C280.158 87.3938 280.16 87.3938 280.162 87.3938C280.164 87.3938 280.166 87.3938 280.168 87.3938C280.171 87.3938 280.173 87.3938 280.175 87.3938C280.177 87.3938 280.179 87.3938 280.181 87.3938C280.183 87.3938 280.185 87.3938 280.187 87.3938C280.19 87.3938 280.192 87.3938 280.194 87.3938C280.196 87.3938 280.198 87.3938 280.2 87.3938C280.202 87.3938 280.204 87.3938 280.206 87.3938C280.208 87.3938 280.21 87.3938 280.213 87.3938C280.215 87.3938 280.217 87.3938 280.219 87.3938C280.221 87.3938 280.223 87.3938 280.225 87.3938C280.227 87.3938 280.229 87.3938 280.231 87.3938C280.233 87.3938 280.235 87.3938 280.237 87.3938C280.239 87.3938 280.241 87.3938 280.243 87.3938C280.245 87.3938 280.247 87.3938 280.249 87.3938C280.251 87.3938 280.253 87.3938 280.255 87.3938C280.257 87.3938 280.259 87.3938 280.261 87.3938C280.263 87.3938 280.265 87.3938 280.267 87.3938C280.269 87.3938 280.271 87.3938 280.273 87.3938C280.275 87.3938 280.277 87.3938 280.279 87.3938C280.281 87.3938 280.283 87.3938 280.285 87.3938C280.287 87.3938 280.289 87.3938 280.291 87.3938C280.293 87.3938 280.295 87.3938 280.297 87.3938C280.299 87.3938 280.301 87.3938 280.303 87.3938C280.305 87.3938 280.307 87.3938 280.309 87.3938C280.311 87.3938 280.312 87.3938 280.314 87.3938C280.316 87.3938 280.318 87.3938 280.32 87.3938C280.322 87.3938 280.324 87.3938 280.326 87.3938C280.328 87.3938 280.33 87.3938 280.332 87.3938C280.333 87.3938 280.335 87.3938 280.337 87.3938C280.339 87.3938 280.341 87.3938 280.343 87.3938C280.345 87.3938 280.347 87.3938 280.349 87.3938C280.35 87.3938 280.352 87.3938 280.354 87.3938C280.356 87.3938 280.358 87.3938 280.36 87.3938C280.362 87.3938 280.363 87.3938 280.365 87.3938C280.367 87.3938 280.369 87.3938 280.371 87.3938C280.373 87.3938 280.374 87.3938 280.376 87.3938C280.378 87.3938 280.38 87.3938 280.382 87.3938C280.384 87.3938 280.385 87.3938 280.387 87.3938C280.389 87.3938 280.391 87.3938 280.393 87.3938C280.394 87.3938 280.396 87.3938 280.398 87.3938C280.4 87.3938 280.402 87.3938 280.403 87.3938C280.405 87.3938 280.407 87.3938 280.409 87.3938C280.41 87.3938 280.412 87.3938 280.414 87.3938C280.416 87.3938 280.418 87.3938 280.419 87.3938C280.421 87.3938 280.423 87.3938 280.425 87.3938C280.426 87.3938 280.428 87.3938 280.43 87.3938C280.432 87.3938 280.433 87.3938 280.435 87.3938C280.437 87.3938 280.438 87.3938 280.44 87.3938C280.442 87.3938 280.444 87.3938 280.445 87.3938C280.447 87.3938 280.449 87.3938 280.45 87.3938C280.452 87.3938 280.454 87.3938 280.456 87.3938C280.457 87.3938 280.459 87.3938 280.461 87.3938C280.462 87.3938 280.464 87.3938 280.466 87.3938C280.467 87.3938 280.469 87.3938 280.471 87.3938C280.472 87.3938 280.474 87.3938 280.476 87.3938C280.477 87.3938 280.479 87.3938 280.481 87.3938C280.482 87.3938 280.484 87.3938 280.486 87.3938C280.487 87.3938 280.489 87.3938 280.491 87.3938C280.492 87.3938 280.494 87.3938 280.495 87.3938C280.497 87.3938 280.499 87.3938 280.5 87.3938C280.502 87.3938 280.504 87.3938 280.505 87.3938C280.507 87.3938 280.508 87.3938 280.51 87.3938C280.512 87.3938 280.513 87.3938 280.515 87.3938C280.516 87.3938 280.518 87.3938 280.52 87.3938C280.521 87.3938 280.523 87.3938 280.524 87.3938C280.526 87.3938 280.527 87.3938 280.529 87.3938C280.531 87.3938 280.532 87.3938 280.534 87.3938C280.535 87.3938 280.537 87.3938 280.538 87.3938C280.54 87.3938 280.541 87.3938 280.543 87.3938C280.545 87.3938 280.546 87.3938 280.548 87.3938C280.549 87.3938 280.551 87.3938 280.552 87.3938C280.554 87.3938 280.555 87.3938 280.557 87.3938C280.558 87.3938 280.56 87.3938 280.561 87.3938C280.563 87.3938 280.564 87.3938 280.566 87.3938C280.567 87.3938 280.569 87.3938 280.57 87.3938C280.572 87.3938 280.573 87.3938 280.575 87.3938C280.576 87.3938 280.578 87.3938 280.579 87.3938C280.581 87.3938 280.582 87.3938 280.584 87.3938C280.585 87.3938 280.586 87.3938 280.588 87.3938C280.589 87.3938 280.591 87.3938 280.592 87.3938C280.594 87.3938 280.595 87.3938 280.597 87.3938C280.598 87.3938 280.599 87.3938 280.601 87.3938C280.602 87.3938 280.604 87.3938 280.605 87.3938C280.607 87.3938 280.608 87.3938 280.609 87.3938C280.611 87.3938 280.612 87.3938 280.614 87.3938C280.615 87.3938 280.616 87.3938 280.618 87.3938C280.619 87.3938 280.621 87.3938 280.622 87.3938C280.623 87.3938 280.625 87.3938 280.626 87.3938C280.627 87.3938 280.629 87.3938 280.63 87.3938C280.632 87.3938 280.633 87.3938 280.634 87.3938C280.636 87.3938 280.637 87.3938 280.638 87.3938C280.64 87.3938 280.641 87.3938 280.642 87.3938C280.644 87.3938 280.645 87.3938 280.646 87.3938C280.648 87.3938 280.649 87.3938 280.65 87.3938C280.652 87.3938 280.653 87.3938 280.654 87.3938C280.656 87.3938 280.657 87.3938 280.658 87.3938C280.66 87.3938 280.661 87.3938 280.662 87.3938C280.663 87.3938 280.665 87.3938 280.666 87.3938C280.667 87.3938 280.669 87.3938 280.67 87.3938C280.671 87.3938 280.672 87.3938 280.674 87.3938C280.675 87.3938 280.676 87.3938 280.678 87.3938C280.679 87.3938 280.68 87.3938 280.681 87.3938C280.683 87.3938 280.684 87.3938 280.685 87.3938C280.686 87.3938 280.688 87.3938 280.689 87.3938C280.69 87.3938 280.691 87.3938 280.692 87.3938C280.694 87.3938 280.695 87.3938 280.696 87.3938C280.697 87.3938 280.699 87.3938 280.7 87.3938C280.701 87.3938 280.702 87.3938 280.703 87.3938C280.705 87.3938 280.706 87.3938 280.707 87.3938C280.708 87.3938 280.709 87.3938 280.711 87.3938C280.712 87.3938 280.713 87.3938 280.714 87.3938C280.715 87.3938 280.716 87.3938 280.718 87.3938C280.719 87.3938 280.72 87.3938 280.721 87.3938C280.722 87.3938 280.723 87.3938 280.725 87.3938C280.726 87.3938 280.727 87.3938 280.728 87.3938C280.729 87.3938 280.73 87.3938 280.731 87.3938C280.732 87.3938 280.734 87.3938 280.735 87.3938C280.736 87.3938 280.737 87.3938 280.738 87.3938C280.739 87.3938 280.74 87.3938 280.741 87.3938C280.743 87.3938 280.744 87.3938 280.745 87.3938C280.746 87.3938 280.747 87.3938 280.748 87.3938C280.749 87.3938 280.75 87.3938 280.751 87.3938C280.752 87.3938 280.753 87.3938 280.754 87.3938C280.756 87.3938 280.757 87.3938 280.758 87.3938C280.759 87.3938 280.76 87.3938 280.761 87.3938C280.762 87.3938 280.763 87.3938 280.764 87.3938C280.765 87.3938 280.766 87.3938 280.767 87.3938C280.768 87.3938 280.769 87.3938 280.77 87.3938C280.771 87.3938 280.772 87.3938 280.773 87.3938C280.774 87.3938 280.775 87.3938 280.776 87.3938C280.777 87.3938 280.778 87.3938 280.779 87.3938C280.78 87.3938 280.781 87.3938 280.782 87.3938C280.783 87.3938 280.784 87.3938 280.785 87.3938C280.786 87.3938 280.787 87.3938 280.788 87.3938C280.789 87.3938 280.79 87.3938 280.791 87.3938C280.792 87.3938 280.793 87.3938 280.794 87.3938C280.795 87.3938 280.796 87.3938 280.797 87.3938C280.798 87.3938 280.799 87.3938 280.8 87.3938C280.801 87.3938 280.802 87.3938 280.803 87.3938C280.803 87.3938 280.804 87.3938 280.805 87.3938C280.806 87.3938 280.807 87.3938 280.808 87.3938C280.809 87.3938 280.81 87.3938 280.811 87.3938C280.812 87.3938 280.813 87.3938 280.813 87.3938C280.814 87.3938 280.815 87.3938 280.816 87.3938C280.817 87.3938 280.818 87.3938 280.819 87.3938C280.82 87.3938 280.821 87.3938 280.821 87.3938C280.822 87.3938 280.823 87.3938 280.824 87.3938C280.825 87.3938 280.826 87.3938 280.827 87.3938C280.827 87.3938 280.828 87.3938 280.829 87.3938C280.83 87.3938 280.831 87.3938 280.832 87.3938C280.832 87.3938 280.833 87.3938 280.834 87.3938C280.835 87.3938 280.836 87.3938 280.837 87.3938C280.837 87.3938 280.838 87.3938 280.839 87.3938C280.84 87.3938 280.841 87.3938 280.841 87.3938C280.842 87.3938 280.843 87.3938 280.844 87.3938C280.845 87.3938 280.845 87.3938 280.846 87.3938C280.847 87.3938 280.848 87.3938 280.849 87.3938C280.849 87.3938 280.85 87.3938 280.851 87.3938C280.852 87.3938 280.852 87.3938 280.853 87.3938C280.854 87.3938 280.855 87.3938 280.855 87.3938C280.856 87.3938 280.857 87.3938 280.858 87.3938C280.858 87.3938 280.859 87.3938 280.86 87.3938C280.861 87.3938 280.861 87.3938 280.862 87.3938C280.863 87.3938 280.863 87.3938 280.864 87.3938C280.865 87.3938 280.866 87.3938 280.866 87.3938C280.867 87.3938 280.868 87.3938 280.868 87.3938C280.869 87.3938 280.87 87.3938 280.87 87.3938C280.871 87.3938 280.872 87.3938 280.873 87.3938C280.873 87.3938 280.874 87.3938 280.875 87.3938C280.875 87.3938 280.876 87.3938 280.877 87.3938C280.877 87.3938 280.878 87.3938 280.879 87.3938C280.879 87.3938 280.88 87.3938 280.88 87.3938C280.881 87.3938 280.882 87.3938 280.882 87.3938C280.883 87.3938 280.884 87.3938 280.884 87.3938C280.885 87.3938 280.886 87.3938 280.886 87.3938C280.887 87.3938 280.887 87.3938 280.888 87.3938C280.889 87.3938 280.889 87.3938 280.89 87.3938C280.89 87.3938 280.891 87.3938 280.892 87.3938C280.892 87.3938 280.893 87.3938 280.893 87.3938C280.894 87.3938 280.895 87.3938 280.895 87.3938C280.896 87.3938 280.896 87.3938 280.897 87.3938C280.897 87.3938 280.898 87.3938 280.898 87.3938C280.899 87.3938 280.9 87.3938 280.9 87.3938C280.901 87.3938 280.901 87.3938 280.902 87.3938C280.902 87.3938 280.903 87.3938 280.903 87.3938C280.904 87.3938 280.904 87.3938 280.905 87.3938C280.905 87.3938 280.906 87.3938 280.907 87.3938C280.907 87.3938 280.908 87.3938 280.908 87.3938C280.909 87.3938 280.909 87.3938 280.91 87.3938C280.91 87.3938 280.911 87.3938 280.911 87.3938C280.912 87.3938 280.912 87.3938 280.912 87.3938C280.913 87.3938 280.913 87.3938 280.914 87.3938C280.914 87.3938 280.915 87.3938 280.915 87.3938C280.916 87.3938 280.916 87.3938 280.917 87.3938C280.917 87.3938 280.918 87.3938 280.918 87.3938C280.918 87.3938 280.919 87.3938 280.919 87.3938C280.92 87.3938 280.92 87.3938 280.921 87.3938C280.921 87.3938 280.921 87.3938 280.922 87.3938C280.922 87.3938 280.923 87.3938 280.923 87.3938C280.924 87.3938 280.924 87.3938 280.924 87.3938C280.925 87.3938 280.925 87.3938 280.926 87.3938C280.926 87.3938 280.926 87.3938 280.927 87.3938C280.927 87.3938 280.927 87.3938 280.928 87.3938C280.928 87.3938 280.929 87.3938 280.929 87.3938C280.929 87.3938 280.93 87.3938 280.93 87.3938C280.93 87.3938 280.931 87.3938 280.931 87.3938C280.931 87.3938 280.932 87.3938 280.932 87.3938C280.932 87.3938 280.933 87.3938 280.933 87.3938C280.933 87.3938 280.934 87.3938 280.934 87.3938C280.934 87.3938 280.935 87.3938 280.935 87.3938C280.935 87.3938 280.936 87.3938 280.936 87.3938C280.936 87.3938 280.937 87.3938 280.937 87.3938C280.937 87.3938 280.937 87.3938 280.938 87.3938C280.938 87.3938 280.938 87.3938 280.939 87.3938C280.939 87.3938 280.939 87.3938 280.939 87.3938C280.94 87.3938 280.94 87.3938 280.94 87.3938C280.94 87.3938 280.941 87.3938 280.941 87.3938C280.941 87.3938 280.941 87.3938 280.942 87.3938C280.942 87.3938 280.942 87.3938 280.942 87.3938C280.943 87.3938 280.943 87.3938 280.943 87.3938C280.943 87.3938 280.944 87.3938 280.944 87.3938C280.944 87.3938 280.944 87.3938 280.944 87.3938C280.945 87.3938 280.945 87.3938 280.945 87.3938C280.945 87.3938 280.945 87.3938 280.946 87.3938C280.946 87.3938 280.946 87.3938 280.946 87.3938C280.946 87.3938 280.947 87.3938 280.947 87.3938C280.947 87.3938 280.947 87.3938 280.947 87.3938C280.947 87.3938 280.948 87.3938 280.948 87.3938C280.948 87.3938 280.948 87.3938 280.948 87.3938C280.948 87.3938 280.948 87.3938 280.949 87.3938C280.949 87.3938 280.949 87.3938 280.949 87.3938C280.949 87.3938 280.949 87.3938 280.949 87.3938C280.95 87.3938 280.95 87.3938 280.95 87.3938C280.95 87.3938 280.95 87.3938 280.95 87.3938C280.95 87.3938 280.95 87.3938 280.95 87.3938C280.95 87.3938 280.951 87.3938 280.951 87.3938C280.951 87.3938 280.951 87.3938 280.951 87.3938C280.951 87.3938 280.951 87.3938 280.951 87.3938C280.951 87.3938 280.951 87.3938 280.951 87.3938C280.951 87.3938 280.951 87.3938 280.951 87.3938C280.952 87.3938 280.952 87.3938 280.952 87.3938C280.952 87.3938 280.952 87.3938 280.952 87.3938C280.952 87.3938 280.952 87.3938 280.952 87.3938C280.952 87.3938 280.952 87.3938 280.952 87.3938C280.952 87.3938 280.952 87.3938 280.952 87.3938C280.952 87.3938 280.952 87.3938 280.952 87.0938ZM335.138 74.7656L335.434 74.8094L335.456 74.6602L335.35 74.5535L335.138 74.7656ZM332.606 75.7969L332.897 75.8718L332.897 75.8696L332.606 75.7969ZM334.716 88.5L334.928 88.7121L335.016 88.6243V88.5H334.716ZM331.763 47.0625L331.535 46.8676L331.412 47.0112L331.488 47.1839L331.763 47.0625ZM337.247 42.7031L337.378 42.9731L337.381 42.9715L337.247 42.7031ZM354.028 44.3438L354.233 44.1246L354.228 44.12L354.028 44.3438ZM361.013 93.4688L361.307 93.4099L361.281 93.283L361.172 93.2144L361.013 93.4688ZM357.028 105.562L356.825 105.342L356.825 105.342L357.028 105.562ZM341.888 107.297L342.038 107.037L342.036 107.036L341.888 107.297ZM337.481 102.422L337.759 102.308L337.683 102.122H337.481V102.422ZM336.403 105.609L336.14 105.754L336.145 105.762L336.15 105.77L336.403 105.609ZM337.903 107.203L338.056 107.461L338.442 107.232L338.083 106.963L337.903 107.203ZM319.575 106.125L319.433 106.389L319.436 106.391L319.575 106.125ZM311.372 97.8281L311.635 97.6834L311.634 97.6824L311.372 97.8281ZM314.559 63.6562L314.346 63.4456L314.345 63.4463L314.559 63.6562ZM342.544 59.1562L342.407 59.4235L342.602 59.5226L342.756 59.3684L342.544 59.1562ZM333.028 54.7031H332.728V55.0031H333.028V54.7031ZM335.35 74.5535C334.982 74.1854 334.531 73.9969 334.013 73.9969V74.5969C334.37 74.5969 334.669 74.7209 334.925 74.9778L335.35 74.5535ZM334.013 73.9969C333.586 73.9969 333.218 74.156 332.927 74.4667C332.644 74.7681 332.447 75.1976 332.315 75.7241L332.897 75.8696C333.016 75.3962 333.178 75.0756 333.364 74.8771C333.542 74.6878 333.751 74.5969 334.013 74.5969V73.9969ZM332.316 75.7219C332.055 76.7337 331.931 78.7566 331.931 81.75H332.531C332.531 78.7434 332.658 76.7976 332.897 75.8718L332.316 75.7219ZM331.931 81.75V86.5312H332.531V81.75H331.931ZM331.931 86.5312C331.931 87.3826 332.038 88.0523 332.306 88.4736L332.813 88.1514C332.643 87.8852 332.531 87.3674 332.531 86.5312H331.931ZM332.306 88.4736C332.593 88.9243 333.062 89.1281 333.638 89.1281V88.5281C333.213 88.5281 332.963 88.3882 332.813 88.1514L332.306 88.4736ZM333.638 89.1281C334.17 89.1281 334.627 89.0134 334.928 88.7121L334.504 88.2879C334.367 88.4241 334.105 88.5281 333.638 88.5281V89.1281ZM335.016 88.5V82.2188H334.416V88.5H335.016ZM335.016 82.2188C335.016 79.1634 335.156 76.6953 335.434 74.8094L334.841 74.7218C334.557 76.6485 334.416 79.1491 334.416 82.2188H335.016ZM331.991 47.2574C333.624 45.3468 335.42 43.9214 337.378 42.9731L337.116 42.4331C335.074 43.4224 333.214 44.9032 331.535 46.8676L331.991 47.2574ZM337.381 42.9715C339.327 41.9987 341.824 41.5031 344.888 41.5031V40.9031C341.764 40.9031 339.167 41.4076 337.113 42.4348L337.381 42.9715ZM344.888 41.5031C348.579 41.5031 351.55 42.532 353.828 44.5675L354.228 44.12C351.819 41.968 348.696 40.9031 344.888 40.9031V41.5031ZM353.823 44.5629C356.159 46.7471 357.338 49.6938 357.338 53.4375H357.938C357.938 49.5562 356.71 46.4404 354.233 44.1246L353.823 44.5629ZM357.338 53.4375V84.375H357.938V53.4375H357.338ZM357.338 84.375C357.338 89.0567 358.466 92.2306 360.854 93.7231L361.172 93.2144C359.06 91.8944 357.938 89.0058 357.938 84.375H357.338ZM360.718 93.5276C360.743 93.6505 360.759 93.9188 360.759 94.3594H361.359C361.359 93.925 361.345 93.5995 361.307 93.4099L360.718 93.5276ZM360.759 94.3594V95.2031H361.359V94.3594H360.759ZM360.759 95.2031C360.759 99.5762 359.438 102.942 356.825 105.342L357.231 105.783C359.994 103.246 361.359 99.705 361.359 95.2031H360.759ZM356.825 105.342C354.51 107.474 351.647 108.544 348.216 108.544V109.144C351.784 109.144 354.796 108.026 357.231 105.783L356.825 105.342ZM348.216 108.544C345.821 108.544 343.766 108.038 342.038 107.037L341.737 107.557C343.572 108.619 345.735 109.144 348.216 109.144V108.544ZM342.036 107.036C339.995 105.879 338.575 104.303 337.759 102.308L337.204 102.535C338.075 104.665 339.592 106.34 341.74 107.558L342.036 107.036ZM337.481 102.122C336.906 102.122 336.419 102.261 336.077 102.593C335.733 102.927 335.588 103.405 335.588 103.969H336.188C336.188 103.502 336.307 103.206 336.495 103.024C336.684 102.84 336.994 102.722 337.481 102.722V102.122ZM335.588 103.969C335.588 104.508 335.784 105.106 336.14 105.754L336.666 105.465C336.335 104.863 336.188 104.367 336.188 103.969H335.588ZM336.15 105.77C336.546 106.397 337.072 106.955 337.723 107.443L338.083 106.963C337.484 106.514 337.01 106.009 336.657 105.449L336.15 105.77ZM337.75 106.945C335.967 108.003 333.634 108.544 330.731 108.544V109.144C333.704 109.144 336.152 108.591 338.056 107.461L337.75 106.945ZM330.731 108.544C326.81 108.544 323.139 107.649 319.714 105.859L319.436 106.391C322.948 108.226 326.715 109.144 330.731 109.144V108.544ZM319.717 105.861C316.334 104.046 313.64 101.324 311.635 97.6834L311.109 97.9729C313.166 101.707 315.941 104.516 319.433 106.389L319.717 105.861ZM311.634 97.6824C309.321 93.5178 308.156 88.4613 308.156 82.5H307.556C307.556 88.5387 308.736 93.7009 311.11 97.9738L311.634 97.6824ZM308.156 82.5C308.156 74.5576 310.373 68.3593 314.774 63.8662L314.345 63.4463C309.808 68.0782 307.556 74.4424 307.556 82.5H308.156ZM314.773 63.8669C319.211 59.3669 324.866 57.1125 331.763 57.1125V56.5125C324.721 56.5125 318.907 58.8206 314.346 63.4456L314.773 63.8669ZM331.763 57.1125C335.85 57.1125 339.395 57.8864 342.407 59.4235L342.68 58.889C339.568 57.3011 335.926 56.5125 331.763 56.5125V57.1125ZM342.756 59.3684C343.139 58.9858 343.359 58.5543 343.359 58.0781H342.759C342.759 58.3519 342.637 58.6392 342.332 58.9441L342.756 59.3684ZM343.359 58.0781C343.359 57.474 342.998 56.9613 342.402 56.5337C341.808 56.1067 340.939 55.7318 339.816 55.3998L339.646 55.9752C340.743 56.2994 341.538 56.6512 342.052 57.021C342.567 57.3903 342.759 57.7447 342.759 58.0781H343.359ZM339.816 55.3998C337.571 54.7356 335.308 54.4031 333.028 54.4031V55.0031C335.249 55.0031 337.454 55.3269 339.646 55.9752L339.816 55.3998ZM333.328 54.7031C333.328 51.4938 332.904 48.9004 332.037 46.9411L331.488 47.1839C332.309 49.0371 332.728 51.5375 332.728 54.7031H333.328ZM389.183 65.8125H389.483V65.7054L389.415 65.6225L389.183 65.8125ZM392.558 93.4688L392.852 93.4099L392.826 93.283L392.717 93.2144L392.558 93.4688ZM388.854 105.562L388.651 105.342L388.648 105.345L388.854 105.562ZM370.058 105.562L369.859 105.788L369.86 105.788L370.058 105.562ZM365.323 62.9062L365.148 62.663L365.023 62.7529V62.9062H365.323ZM369.214 60.9844L369.353 61.2504L369.867 60.9818L369.35 60.7173L369.214 60.9844ZM365.558 57.4219L365.304 57.5829L365.306 57.585L365.558 57.4219ZM386.792 41.8594L386.579 42.0702L386.581 42.0728L386.792 41.8594ZM387.729 59.5781L387.959 59.7708L387.961 59.7693L387.729 59.5781ZM380.651 63.9375L380.589 63.6441L380.351 63.6948V63.9375H380.651ZM386.886 63.8438L387.069 63.6066L386.888 63.4661L386.705 63.6043L386.886 63.8438ZM388.883 65.8125V84.375H389.483V65.8125H388.883ZM388.883 84.375C388.883 89.0567 390.011 92.2306 392.399 93.7231L392.717 93.2144C390.605 91.8944 389.483 89.0058 389.483 84.375H388.883ZM392.263 93.5276C392.288 93.6505 392.304 93.9188 392.304 94.3594H392.904C392.904 93.925 392.89 93.5995 392.852 93.4099L392.263 93.5276ZM392.304 94.3594V95.2031H392.904V94.3594H392.304ZM392.304 95.2031C392.304 99.7436 391.07 103.104 388.651 105.342L389.058 105.783C391.639 103.396 392.904 99.8501 392.904 95.2031H392.304ZM388.648 105.345C386.403 107.468 383.389 108.544 379.573 108.544V109.144C383.507 109.144 386.681 108.032 389.061 105.78L388.648 105.345ZM379.573 108.544C375.79 108.544 372.692 107.469 370.255 105.337L369.86 105.788C372.423 108.031 375.669 109.144 379.573 109.144V108.544ZM370.256 105.337C367.181 102.628 365.623 98.6576 365.623 93.375H365.023C365.023 98.7799 366.622 102.935 369.859 105.788L370.256 105.337ZM365.623 93.375V62.9062H365.023V93.375H365.623ZM365.499 63.1495C366.04 62.7587 366.626 62.443 367.258 62.2022L367.045 61.6415C366.364 61.9007 365.732 62.2413 365.148 62.663L365.499 63.1495ZM367.258 62.2022C367.927 61.9475 368.625 61.63 369.353 61.2504L369.075 60.7184C368.365 61.0888 367.688 61.3963 367.045 61.6415L367.258 62.2022ZM369.35 60.7173C368.067 60.0604 366.884 58.9163 365.809 57.2587L365.306 57.585C366.419 59.3025 367.674 60.5333 369.077 61.2514L369.35 60.7173ZM365.811 57.2608C364.751 55.5958 364.217 53.6531 364.217 51.4219H363.617C363.617 53.7531 364.177 55.8104 365.304 57.5829L365.811 57.2608ZM364.217 51.4219C364.217 47.5575 365.486 44.4195 368.016 41.9816L367.599 41.5496C364.941 44.1117 363.617 47.4113 363.617 51.4219H364.217ZM368.016 41.9816C370.551 39.5379 373.647 38.3156 377.323 38.3156V37.7156C373.499 37.7156 370.252 38.9933 367.599 41.5496L368.016 41.9816ZM377.323 38.3156C381.029 38.3156 384.107 39.5679 386.579 42.0702L387.005 41.6485C384.415 39.0259 381.18 37.7156 377.323 37.7156V38.3156ZM386.581 42.0728C389.082 44.5436 390.336 47.6523 390.336 51.4219H390.936C390.936 47.5039 389.626 44.2376 387.003 41.6459L386.581 42.0728ZM390.336 51.4219C390.336 54.4472 389.39 57.098 387.498 59.387L387.961 59.7693C389.943 57.3707 390.936 54.5841 390.936 51.4219H390.336ZM387.499 59.3855C385.602 61.65 383.3 63.0652 380.589 63.6441L380.714 64.2309C383.565 63.6223 385.982 62.1312 387.959 59.7708L387.499 59.3855ZM380.351 63.9375C380.351 64.5609 380.469 65.0834 380.753 65.4554C381.048 65.8428 381.486 66.0188 382.011 66.0188V65.4187C381.629 65.4187 381.387 65.2979 381.23 65.0914C381.06 64.8697 380.951 64.5016 380.951 63.9375H380.351ZM382.011 66.0188C383.687 66.0188 385.374 65.3606 387.066 64.0832L386.705 63.6043C385.085 64.8269 383.522 65.4187 382.011 65.4187V66.0188ZM386.702 64.0809C387.96 65.0558 388.695 65.6905 388.95 66.0025L389.415 65.6225C389.108 65.247 388.311 64.5692 387.069 63.6066L386.702 64.0809ZM402.353 101.953L402.136 102.16L402.137 102.162L402.353 101.953ZM403.337 61.7344L403.537 61.9577L403.537 61.9576L403.337 61.7344ZM437.79 60L437.61 60.2398L437.611 60.2406L437.79 60ZM440.649 82.3594L440.436 82.1486L440.436 82.1487L440.649 82.3594ZM423.54 83.4375L423.35 83.6697L423.354 83.6728L423.54 83.4375ZM419.884 76.875L420.181 76.8335L420.145 76.575H419.884V76.875ZM421.196 84.6562L421.393 84.4296L421.39 84.4274L421.196 84.6562ZM440.462 85.5469L440.714 85.3835L440.55 85.131L440.298 85.2958L440.462 85.5469ZM437.649 104.578L437.84 104.809L437.841 104.809L437.649 104.578ZM421.806 109.153C413.747 109.153 407.346 106.676 402.568 101.744L402.137 102.162C407.047 107.23 413.614 109.753 421.806 109.753V109.153ZM402.569 101.746C397.821 96.7817 395.434 90.1276 395.434 81.75H394.834C394.834 90.2474 397.259 97.062 402.136 102.16L402.569 101.746ZM395.434 81.75C395.434 73.3837 398.142 66.7983 403.537 61.9577L403.137 61.5111C397.595 66.4829 394.834 73.2413 394.834 81.75H395.434ZM403.537 61.9576C408.351 57.6379 414.37 55.4719 421.618 55.4719V54.8719C414.241 54.8719 408.073 57.0808 403.137 61.5111L403.537 61.9576ZM421.618 55.4719C428.067 55.4719 433.391 57.0679 437.61 60.2398L437.97 59.7602C433.627 56.4946 428.169 54.8719 421.618 54.8719V55.4719ZM437.611 60.2406C441.813 63.3695 443.912 67.6227 443.912 73.0312H444.512C444.512 67.4398 442.329 63.0055 437.969 59.7594L437.611 60.2406ZM443.912 73.0312C443.912 76.7758 442.748 79.8059 440.436 82.1486L440.863 82.5701C443.301 80.1004 444.512 76.9117 444.512 73.0312H443.912ZM440.436 82.1487C438.157 84.4577 435.145 85.6219 431.368 85.6219V86.2219C435.279 86.2219 438.454 85.011 440.863 82.5701L440.436 82.1487ZM431.368 85.6219C428.299 85.6219 425.758 84.8097 423.726 83.2022L423.354 83.6728C425.509 85.3778 428.188 86.2219 431.368 86.2219V85.6219ZM423.73 83.2053C421.727 81.5666 420.546 79.4478 420.181 76.8335L419.587 76.9165C419.972 79.6772 421.228 81.9334 423.35 83.6697L423.73 83.2053ZM419.884 76.575C419.169 76.575 418.578 76.7034 418.16 77.0074C417.725 77.3243 417.521 77.7983 417.521 78.375H418.121C418.121 77.9517 418.262 77.6757 418.513 77.4926C418.783 77.2966 419.224 77.175 419.884 77.175V76.575ZM417.521 78.375C417.521 80.7688 418.706 82.9398 421.002 84.8851L421.39 84.4274C419.186 82.5602 418.121 80.5437 418.121 78.375H417.521ZM421 84.8829C423.655 87.1859 426.946 88.3313 430.853 88.3313V87.7312C427.072 87.7312 423.926 86.6266 421.393 84.4296L421 84.8829ZM430.853 88.3313C434.77 88.3313 438.034 87.494 440.626 85.7979L440.298 85.2958C437.827 86.9123 434.685 87.7312 430.853 87.7312V88.3313ZM440.21 85.7103C441.735 88.059 442.506 90.9214 442.506 94.3125H443.106C443.106 90.8286 442.313 87.8473 440.714 85.3835L440.21 85.7103ZM442.506 94.3125C442.506 98.2121 440.836 101.553 437.458 104.347L437.841 104.809C441.338 101.916 443.106 98.4129 443.106 94.3125H442.506ZM437.458 104.347C433.589 107.541 428.382 109.153 421.806 109.153V109.753C428.479 109.753 433.835 108.116 437.84 104.809L437.458 104.347Z" fill="#068D9D"/>
<path d="M465.199 79.3359C465.199 79.3359 464.975 84.1464 467.337 86.8196C470.314 90.1893 474.747 91.096 478.028 91.096C485.414 91.096 489.948 85.3836 491.926 78.2668C494.687 68.3316 488.094 59.1216 478.028 56.8848C468.406 54.7466 461.991 56.333 455.577 63.2994C451.269 67.9776 449.99 71.9616 449.162 78.2668C448.042 86.8008 449.11 92.944 454.508 99.6488C460.73 107.379 468.119 109.793 478.028 110.34C489.498 110.972 497.74 107.81 505.824 99.6488C510.562 94.866 514.377 84.6814 514.377 84.6814" stroke="#173753" stroke-width="4"/>
<circle cx="514.377" cy="81.4741" r="4.41459" stroke="#7AE582" stroke-width="4"/>
<circle cx="465.199" cy="75.0595" r="4.41459" stroke="#7AE582" stroke-width="4"/>
</svg>
