<svg width="321" height="145" viewBox="0 0 321 145" fill="none" xmlns="http://www.w3.org/2000/svg">
<path d="M12.5975 96.0469C9.12875 96.0469 6.44125 95.125 4.535 93.2812C2.66 91.4375 1.7225 88.6562 1.7225 84.9375V39.0938C3.37875 37.6875 5.39438 36.6094 7.76938 35.8594C10.1756 35.0781 12.66 34.6875 15.2225 34.6875C19.0038 34.6875 22.2069 35.625 24.8319 37.5C27.6756 39.625 29.0975 42.5625 29.0975 46.3125V71.9531C27.3475 72.1094 25.6288 72.6094 23.9413 73.4531C22.2538 74.2656 21.41 75.1094 21.41 75.9844C21.41 76.5156 21.7069 76.9688 22.3006 77.3438C25.3944 74.75 29.9881 73.4531 36.0819 73.4531H47.1913C49.2538 77.0781 50.285 80.7812 50.285 84.5625C50.285 86.4375 49.9569 88.5156 49.3006 90.7969C48.6444 93.0781 47.7694 94.8281 46.6756 96.0469H12.5975ZM101.096 72.7969C101.096 75.0469 101.346 76.8594 101.846 78.2344C102.346 79.6094 103.221 80.6875 104.471 81.4688C104.502 81.625 104.518 81.9219 104.518 82.3594V83.2031C104.518 87.6406 103.174 91.0938 100.486 93.5625C98.1113 95.75 95.1738 96.8438 91.6738 96.8438C89.2988 96.8438 87.1269 96.2812 85.1581 95.1562C83.1894 94.0312 81.7831 92.4062 80.9394 90.2812C79.8769 90.2812 79.3456 90.7969 79.3456 91.8281C79.3456 92.7031 79.8925 93.6875 80.9863 94.7812C78.955 96.1562 75.8925 96.8438 71.7988 96.8438C66.0175 96.8438 61.3925 95.2812 57.9238 92.1562C54.4863 89 52.7675 84.6094 52.7675 78.9844C52.7675 73.3281 54.5956 68.9531 58.2519 65.8594C61.5956 63.0781 65.9238 61.6875 71.2363 61.6875C73.0488 61.6875 74.7988 61.8125 76.4863 62.0625C77.6113 62.2812 78.2206 62.4062 78.3144 62.4375C78.4081 62.125 78.455 61.8594 78.455 61.6406C78.455 60.8281 77.7675 60.2812 76.3925 60C75.0175 59.7188 73.2206 59.5781 71.0019 59.5781C66.2831 59.5781 62.2519 60.5312 58.9081 62.4375C57.3769 59.8438 56.6113 56.5625 56.6113 52.5938C56.6113 50.3438 56.8925 48.6719 57.455 47.5781C59.705 46.5469 62.5644 45.6406 66.0331 44.8594C69.5019 44.0469 73.1581 43.6406 77.0019 43.6406C84.9394 43.6406 90.9394 45.375 95.0019 48.8438C99.0644 52.3125 101.096 57.2344 101.096 63.6094V72.7969ZM76.7675 75.0938C75.455 75.0938 74.7988 75.6875 74.7988 76.875C74.7988 78 75.5644 78.5625 77.0956 78.5625C78.1581 78.5625 78.9394 78.3125 79.4394 77.8125C79.9394 77.2812 80.1894 76.375 80.1894 75.0938C80.1894 75.0938 79.0488 75.0938 76.7675 75.0938ZM134.375 62.7656C134.062 62.4531 133.688 62.2969 133.25 62.2969C132.562 62.2969 132.094 62.7969 131.844 63.7969C131.594 64.7656 131.469 66.75 131.469 69.75V74.5312C131.469 75.375 131.578 75.9688 131.797 76.3125C132.016 76.6562 132.375 76.8281 132.875 76.8281C133.375 76.8281 133.734 76.7188 133.953 76.5V70.2188C133.953 67.1562 134.094 64.6719 134.375 62.7656ZM131 35.0625C132.656 33.125 134.484 31.6719 136.484 30.7031C138.484 29.7031 141.031 29.2031 144.125 29.2031C147.875 29.2031 150.922 30.25 153.266 32.3438C155.672 34.5938 156.875 37.625 156.875 41.4375V72.375C156.875 77.0312 158 80.0625 160.25 81.4688C160.281 81.625 160.297 81.9219 160.297 82.3594V83.2031C160.297 87.6406 158.953 91.0938 156.266 93.5625C153.891 95.75 150.953 96.8438 147.453 96.8438C145.016 96.8438 142.906 96.3281 141.125 95.2969C139.031 94.1094 137.562 92.4844 136.719 90.4219C135.656 90.4219 135.125 90.9375 135.125 91.9688C135.125 92.4375 135.297 92.9844 135.641 93.6094C136.016 94.2031 136.516 94.7344 137.141 95.2031C135.297 96.2969 132.906 96.8438 129.969 96.8438C126 96.8438 122.281 95.9375 118.812 94.125C115.375 92.2812 112.641 89.5156 110.609 85.8281C108.266 81.6094 107.094 76.5 107.094 70.5C107.094 62.5 109.328 56.2188 113.797 51.6562C118.297 47.0938 124.031 44.8125 131 44.8125C135.125 44.8125 138.719 45.5938 141.781 47.1562C142.125 46.8125 142.297 46.4531 142.297 46.0781C142.297 45.1406 141.188 44.3438 138.969 43.6875C136.75 43.0312 134.516 42.7031 132.266 42.7031C132.266 39.5156 131.844 36.9688 131 35.0625ZM188.42 53.8125V72.375C188.42 77.0312 189.545 80.0625 191.795 81.4688C191.826 81.625 191.842 81.9219 191.842 82.3594V83.2031C191.842 87.7969 190.592 91.25 188.092 93.5625C185.779 95.75 182.686 96.8438 178.811 96.8438C174.967 96.8438 171.795 95.75 169.295 93.5625C166.139 90.7812 164.561 86.7188 164.561 81.375V50.9062C165.123 50.5 165.732 50.1719 166.389 49.9219C167.045 49.6719 167.732 49.3594 168.451 48.9844C167.107 48.2969 165.889 47.1094 164.795 45.4219C163.701 43.7031 163.154 41.7031 163.154 39.4219C163.154 35.4844 164.451 32.2656 167.045 29.7656C169.639 27.2656 172.811 26.0156 176.561 26.0156C180.342 26.0156 183.498 27.2969 186.029 29.8594C188.592 32.3906 189.873 35.5781 189.873 39.4219C189.873 42.5156 188.904 45.2344 186.967 47.5781C185.029 49.8906 182.67 51.3438 179.889 51.9375C179.889 53.125 180.342 53.7188 181.248 53.7188C182.842 53.7188 184.467 53.0938 186.123 51.8438C187.373 52.8125 188.139 53.4688 188.42 53.8125ZM221.043 97.4531C212.918 97.4531 206.434 94.9531 201.59 89.9531C196.777 84.9219 194.371 78.1875 194.371 69.75C194.371 61.3125 197.106 54.6406 202.574 49.7344C207.449 45.3594 213.543 43.1719 220.856 43.1719C227.356 43.1719 232.746 44.7812 237.027 48C241.309 51.1875 243.449 55.5312 243.449 61.0312C243.449 64.8438 242.262 67.9531 239.887 70.3594C237.543 72.7344 234.449 73.9219 230.606 73.9219C227.481 73.9219 224.871 73.0938 222.777 71.4375C220.715 69.75 219.496 67.5625 219.121 64.875C217.746 64.875 217.059 65.375 217.059 66.375C217.059 68.6562 218.184 70.75 220.434 72.6562C223.027 74.9062 226.246 76.0312 230.09 76.0312C233.965 76.0312 237.168 75.2031 239.699 73.5469C241.262 75.9531 242.043 78.875 242.043 82.3125C242.043 86.3125 240.324 89.7344 236.887 92.5781C232.949 95.8281 227.668 97.4531 221.043 97.4531Z" fill="#068D9D"/>
<path d="M4.535 93.2812L4.32465 93.4952L4.32644 93.4969L4.535 93.2812ZM1.7225 39.0938L1.52833 38.8651L1.4225 38.9549V39.0938H1.7225ZM7.76938 35.8594L7.85972 36.1455L7.86202 36.1447L7.76938 35.8594ZM24.8319 37.5L25.0115 37.2596L25.0063 37.2559L24.8319 37.5ZM29.0975 71.9531L29.1242 72.2519L29.3975 72.2275V71.9531H29.0975ZM23.9413 73.4531L24.0714 73.7235L24.0754 73.7215L23.9413 73.4531ZM22.3006 77.3438L22.1404 77.5974L22.3256 77.7143L22.4934 77.5736L22.3006 77.3438ZM47.1913 73.4531L47.452 73.3048L47.3657 73.1531H47.1913V73.4531ZM46.6756 96.0469V96.3469H46.8095L46.8989 96.2472L46.6756 96.0469ZM12.5975 95.7469C9.18178 95.7469 6.57827 94.8402 4.74357 93.0656L4.32644 93.4969C6.30423 95.4098 9.07572 96.3469 12.5975 96.3469V95.7469ZM4.74535 93.0673C2.94798 91.2999 2.0225 88.6096 2.0225 84.9375H1.4225C1.4225 88.7029 2.37203 91.5751 4.32466 93.4952L4.74535 93.0673ZM2.0225 84.9375V39.0938H1.4225V84.9375H2.0225ZM1.91667 39.3224C3.53835 37.9455 5.51727 36.8852 7.85972 36.1454L7.67904 35.5733C5.27149 36.3336 3.21916 37.4295 1.52833 38.8651L1.91667 39.3224ZM7.86202 36.1447C10.238 35.3733 12.6911 34.9875 15.2225 34.9875V34.3875C12.629 34.3875 10.1133 34.7829 7.67674 35.574L7.86202 36.1447ZM15.2225 34.9875C18.9523 34.9875 22.0917 35.9114 24.6575 37.7441L25.0063 37.2559C22.322 35.3386 19.0552 34.3875 15.2225 34.3875V34.9875ZM24.6523 37.7403C27.4154 39.8051 28.7975 42.6509 28.7975 46.3125H29.3975C29.3975 42.4741 27.9358 39.4449 25.0115 37.2597L24.6523 37.7403ZM28.7975 46.3125V71.9531H29.3975V46.3125H28.7975ZM29.0708 71.6543C27.2807 71.8141 25.5257 72.3255 23.8071 73.1848L24.0754 73.7215C25.7318 72.8933 27.4143 72.4046 29.1242 72.2519L29.0708 71.6543ZM23.8111 73.1828C22.9522 73.5964 22.286 74.0278 21.8307 74.4832C21.3735 74.9403 21.11 75.4419 21.11 75.9844H21.71C21.71 75.6519 21.8684 75.294 22.2549 74.9074C22.6434 74.519 23.2428 74.1224 24.0714 73.7234L23.8111 73.1828ZM21.11 75.9844C21.11 76.6509 21.4911 77.1873 22.1404 77.5974L22.4608 77.0901C21.9226 76.7502 21.71 76.3803 21.71 75.9844H21.11ZM22.4934 77.5736C25.5115 75.0433 30.0241 73.7531 36.0819 73.7531V73.1531C29.9522 73.1531 25.2772 74.4567 22.1079 77.1139L22.4934 77.5736ZM36.0819 73.7531H47.1913V73.1531H36.0819V73.7531ZM46.9305 73.6015C48.97 77.186 49.985 80.8385 49.985 84.5625H50.585C50.585 80.724 49.5375 76.9702 47.452 73.3048L46.9305 73.6015ZM49.985 84.5625C49.985 86.4032 49.6628 88.4528 49.0123 90.7139L49.5889 90.8798C50.251 88.5784 50.585 86.4718 50.585 84.5625H49.985ZM49.0123 90.7139C48.3634 92.9698 47.5054 94.6732 46.4524 95.8465L46.8989 96.2472C48.0334 94.9831 48.9254 93.1865 49.5889 90.8798L49.0123 90.7139ZM46.6756 95.7469H12.5975V96.3469H46.6756V95.7469ZM104.471 81.4688L104.765 81.4099L104.739 81.283L104.63 81.2144L104.471 81.4688ZM100.486 93.5625L100.283 93.3416L100.283 93.3418L100.486 93.5625ZM80.9394 90.2812L81.2182 90.1705L81.143 89.9812H80.9394V90.2812ZM80.9863 94.7812L81.1544 95.0297L81.4553 94.826L81.1984 94.5691L80.9863 94.7812ZM57.9238 92.1562L57.7208 92.3772L57.723 92.3791L57.9238 92.1562ZM58.2519 65.8594L58.06 65.6287L58.0581 65.6304L58.2519 65.8594ZM76.4863 62.0625L76.5436 61.7677L76.5302 61.7657L76.4863 62.0625ZM78.3144 62.4375L78.2195 62.7221L78.5129 62.8199L78.6017 62.5237L78.3144 62.4375ZM58.9081 62.4375L58.6498 62.59L58.8 62.8445L59.0567 62.6981L58.9081 62.4375ZM57.455 47.5781L57.33 47.3054L57.2357 47.3486L57.1882 47.4409L57.455 47.5781ZM66.0331 44.8594L66.099 45.1521L66.1015 45.1515L66.0331 44.8594ZM79.4394 77.8125L79.6516 78.0247L79.6578 78.0181L79.4394 77.8125ZM80.1894 75.0938H80.4894V74.7937H80.1894V75.0938ZM100.796 72.7969C100.796 75.0651 101.047 76.9163 101.564 78.3369L102.128 78.1319C101.644 76.8024 101.396 75.0287 101.396 72.7969H100.796ZM101.564 78.3369C102.087 79.7753 103.005 80.9067 104.312 81.7231L104.63 81.2144C103.436 80.4683 102.604 79.4434 102.128 78.1319L101.564 78.3369ZM104.176 81.5276C104.201 81.6505 104.218 81.9188 104.218 82.3594H104.818C104.818 81.925 104.803 81.5995 104.765 81.4099L104.176 81.5276ZM104.218 82.3594V83.2031H104.818V82.3594H104.218ZM104.218 83.2031C104.218 87.5762 102.896 90.9417 100.283 93.3416L100.689 93.7834C103.452 91.2458 104.818 87.705 104.818 83.2031H104.218ZM100.283 93.3418C97.9683 95.4738 95.1053 96.5437 91.6738 96.5437V97.1438C95.2422 97.1438 98.2542 96.0262 100.689 93.7832L100.283 93.3418ZM91.6738 96.5437C89.3484 96.5437 87.2282 95.9936 85.307 94.8958L85.0093 95.4167C87.0255 96.5689 89.2491 97.1438 91.6738 97.1438V96.5437ZM85.307 94.8958C83.3978 93.8048 82.0371 92.2329 81.2182 90.1705L80.6606 90.392C81.5292 92.5796 82.981 94.2577 85.0093 95.4167L85.307 94.8958ZM80.9394 89.9812C80.3641 89.9812 79.8771 90.1208 79.5351 90.4527C79.1915 90.7862 79.0456 91.2639 79.0456 91.8281H79.6456C79.6456 91.3611 79.7654 91.0653 79.953 90.8832C80.1423 90.6996 80.4522 90.5813 80.9394 90.5813V89.9812ZM79.0456 91.8281C79.0456 92.8253 79.6639 93.8831 80.7741 94.9934L81.1984 94.5691C80.1211 93.4919 79.6456 92.581 79.6456 91.8281H79.0456ZM80.8181 94.5328C78.8597 95.8585 75.8686 96.5437 71.7988 96.5437V97.1438C75.9164 97.1438 79.0503 96.454 81.1544 95.0297L80.8181 94.5328ZM71.7988 96.5437C66.0732 96.5437 61.5259 94.9976 58.1246 91.9334L57.723 92.3791C61.2591 95.5649 65.9618 97.1438 71.7988 97.1438V96.5437ZM58.1267 91.9353C54.7636 88.8474 53.0675 84.5441 53.0675 78.9844H52.4675C52.4675 84.6747 54.2089 89.1526 57.7209 92.3772L58.1267 91.9353ZM53.0675 78.9844C53.0675 73.3987 54.8692 69.1146 58.4457 66.0884L58.0581 65.6304C54.3221 68.7916 52.4675 73.2575 52.4675 78.9844H53.0675ZM58.4437 66.09C61.7224 63.3629 65.9778 61.9875 71.2363 61.9875V61.3875C65.8697 61.3875 61.4689 62.7934 58.06 65.6287L58.4437 66.09ZM71.2363 61.9875C73.0349 61.9875 74.7702 62.1115 76.4423 62.3593L76.5302 61.7657C74.8273 61.5135 73.0626 61.3875 71.2363 61.3875V61.9875ZM76.429 62.357C76.9912 62.4663 77.4236 62.552 77.7267 62.6142C77.8785 62.6453 77.9967 62.6703 78.0823 62.6893C78.1252 62.6989 78.1587 62.7066 78.1835 62.7127C78.211 62.7195 78.2204 62.7224 78.2195 62.7221L78.4092 62.1529C78.3405 62.13 78.1405 62.0866 77.8473 62.0264C77.5411 61.9636 77.1063 61.8775 76.5435 61.768L76.429 62.357ZM78.6017 62.5237C78.7002 62.1955 78.755 61.8991 78.755 61.6406H78.155C78.155 61.8196 78.1161 62.0545 78.027 62.3513L78.6017 62.5237ZM78.755 61.6406C78.755 61.1348 78.5348 60.7114 78.1261 60.3863C77.7297 60.071 77.1617 59.8511 76.4526 59.7061L76.3324 60.2939C76.9983 60.4301 77.4615 60.6243 77.7526 60.8559C78.0315 61.0777 78.155 61.334 78.155 61.6406H78.755ZM76.4526 59.7061C75.0499 59.4192 73.2306 59.2781 71.0019 59.2781V59.8781C73.2106 59.8781 74.9851 60.0183 76.3324 60.2939L76.4526 59.7061ZM71.0019 59.2781C66.2427 59.2781 62.1577 60.2396 58.7595 62.1769L59.0567 62.6981C62.346 60.8229 66.3235 59.8781 71.0019 59.8781V59.2781ZM59.1665 62.285C57.6698 59.7499 56.9113 56.5254 56.9113 52.5938H56.3113C56.3113 56.5996 57.0839 59.9376 58.6498 62.59L59.1665 62.285ZM56.9113 52.5938C56.9113 50.3581 57.1925 48.7445 57.7218 47.7153L57.1882 47.4409C56.5925 48.5992 56.3113 50.3294 56.3113 52.5938H56.9113ZM57.58 47.8508C59.8048 46.8311 62.6426 45.9305 66.099 45.152L65.9672 44.5667C62.4861 45.3507 59.6052 46.2626 57.33 47.3054L57.58 47.8508ZM66.1015 45.1515C69.5462 44.3446 73.1794 43.9406 77.0019 43.9406V43.3406C73.1369 43.3406 69.4576 43.7491 65.9647 44.5673L66.1015 45.1515ZM77.0019 43.9406C84.9016 43.9406 90.8199 45.6675 94.8071 49.0719L95.1967 48.6156C91.0588 45.0825 84.9771 43.3406 77.0019 43.3406V43.9406ZM94.8071 49.0719C98.7898 52.4725 100.796 57.3035 100.796 63.6094H101.396C101.396 57.1653 99.3389 52.1525 95.1967 48.6156L94.8071 49.0719ZM100.796 63.6094V72.7969H101.396V63.6094H100.796ZM76.7675 74.7937C76.072 74.7937 75.4944 74.9504 75.0897 75.3166C74.6792 75.6879 74.4988 76.2268 74.4988 76.875H75.0988C75.0988 76.3357 75.2464 75.9839 75.4922 75.7615C75.7437 75.534 76.1505 75.3938 76.7675 75.3938V74.7937ZM74.4988 76.875C74.4988 77.513 74.7208 78.0338 75.1953 78.3824C75.6526 78.7183 76.3021 78.8625 77.0956 78.8625V78.2625C76.3579 78.2625 75.859 78.1254 75.5506 77.8989C75.2595 77.685 75.0988 77.362 75.0988 76.875H74.4988ZM77.0956 78.8625C78.1982 78.8625 79.0724 78.6037 79.6515 78.0246L79.2272 77.6004C78.8063 78.0213 78.1181 78.2625 77.0956 78.2625V78.8625ZM79.6578 78.0181C80.2378 77.402 80.4894 76.3985 80.4894 75.0938H79.8894C79.8894 76.3515 79.641 77.1605 79.2209 77.6069L79.6578 78.0181ZM80.1894 75.0938C80.1894 74.7937 80.1894 74.7937 80.1894 74.7937C80.1894 74.7937 80.1893 74.7937 80.1893 74.7937C80.1893 74.7937 80.1893 74.7937 80.1893 74.7937C80.1892 74.7937 80.1892 74.7937 80.1892 74.7937C80.1891 74.7937 80.1891 74.7937 80.1891 74.7937C80.189 74.7937 80.189 74.7937 80.1889 74.7937C80.1889 74.7937 80.1888 74.7937 80.1887 74.7937C80.1887 74.7937 80.1886 74.7937 80.1885 74.7937C80.1885 74.7937 80.1884 74.7937 80.1883 74.7937C80.1882 74.7937 80.1882 74.7937 80.1881 74.7937C80.188 74.7937 80.1879 74.7937 80.1878 74.7937C80.1877 74.7937 80.1876 74.7937 80.1875 74.7937C80.1874 74.7937 80.1873 74.7937 80.1872 74.7937C80.1871 74.7937 80.1869 74.7937 80.1868 74.7937C80.1867 74.7937 80.1866 74.7937 80.1864 74.7937C80.1863 74.7937 80.1862 74.7937 80.186 74.7937C80.1859 74.7937 80.1858 74.7937 80.1856 74.7937C80.1855 74.7937 80.1853 74.7937 80.1851 74.7937C80.185 74.7937 80.1848 74.7937 80.1847 74.7937C80.1845 74.7937 80.1843 74.7937 80.1842 74.7937C80.184 74.7937 80.1838 74.7937 80.1836 74.7937C80.1834 74.7937 80.1833 74.7937 80.1831 74.7937C80.1829 74.7937 80.1827 74.7937 80.1825 74.7937C80.1823 74.7937 80.1821 74.7937 80.1819 74.7937C80.1816 74.7937 80.1814 74.7937 80.1812 74.7937C80.181 74.7937 80.1808 74.7937 80.1806 74.7937C80.1803 74.7937 80.1801 74.7937 80.1799 74.7937C80.1796 74.7937 80.1794 74.7937 80.1791 74.7937C80.1789 74.7937 80.1787 74.7937 80.1784 74.7937C80.1781 74.7937 80.1779 74.7937 80.1776 74.7937C80.1774 74.7937 80.1771 74.7937 80.1768 74.7937C80.1766 74.7937 80.1763 74.7937 80.176 74.7937C80.1757 74.7937 80.1754 74.7937 80.1752 74.7937C80.1749 74.7937 80.1746 74.7937 80.1743 74.7937C80.174 74.7937 80.1737 74.7937 80.1734 74.7937C80.1731 74.7937 80.1728 74.7937 80.1725 74.7937C80.1721 74.7937 80.1718 74.7937 80.1715 74.7937C80.1712 74.7937 80.1709 74.7937 80.1705 74.7937C80.1702 74.7937 80.1699 74.7937 80.1695 74.7937C80.1692 74.7937 80.1688 74.7937 80.1685 74.7937C80.1681 74.7937 80.1678 74.7937 80.1674 74.7937C80.1671 74.7937 80.1667 74.7937 80.1664 74.7937C80.166 74.7937 80.1656 74.7937 80.1652 74.7937C80.1649 74.7937 80.1645 74.7937 80.1641 74.7937C80.1637 74.7937 80.1633 74.7937 80.1629 74.7937C80.1626 74.7937 80.1622 74.7937 80.1618 74.7937C80.1614 74.7937 80.161 74.7937 80.1605 74.7937C80.1601 74.7937 80.1597 74.7937 80.1593 74.7937C80.1589 74.7937 80.1585 74.7937 80.158 74.7937C80.1576 74.7937 80.1572 74.7937 80.1567 74.7937C80.1563 74.7937 80.1559 74.7937 80.1554 74.7937C80.155 74.7937 80.1545 74.7937 80.1541 74.7937C80.1536 74.7937 80.1532 74.7937 80.1527 74.7937C80.1522 74.7937 80.1518 74.7937 80.1513 74.7937C80.1508 74.7937 80.1504 74.7937 80.1499 74.7937C80.1494 74.7937 80.1489 74.7937 80.1484 74.7937C80.148 74.7937 80.1475 74.7937 80.147 74.7937C80.1465 74.7937 80.146 74.7937 80.1455 74.7937C80.145 74.7937 80.1445 74.7937 80.1439 74.7937C80.1434 74.7937 80.1429 74.7937 80.1424 74.7937C80.1419 74.7937 80.1413 74.7937 80.1408 74.7937C80.1403 74.7937 80.1397 74.7937 80.1392 74.7937C80.1387 74.7937 80.1381 74.7937 80.1376 74.7937C80.137 74.7937 80.1365 74.7937 80.1359 74.7937C80.1354 74.7937 80.1348 74.7937 80.1342 74.7937C80.1337 74.7937 80.1331 74.7937 80.1325 74.7937C80.1319 74.7937 80.1314 74.7937 80.1308 74.7937C80.1302 74.7937 80.1296 74.7937 80.129 74.7937C80.1284 74.7937 80.1278 74.7937 80.1272 74.7937C80.1266 74.7937 80.126 74.7937 80.1254 74.7937C80.1248 74.7937 80.1242 74.7937 80.1236 74.7937C80.123 74.7937 80.1223 74.7937 80.1217 74.7937C80.1211 74.7937 80.1205 74.7937 80.1198 74.7937C80.1192 74.7937 80.1185 74.7937 80.1179 74.7937C80.1173 74.7937 80.1166 74.7937 80.116 74.7937C80.1153 74.7937 80.1146 74.7937 80.114 74.7937C80.1133 74.7937 80.1127 74.7937 80.112 74.7937C80.1113 74.7937 80.1106 74.7937 80.11 74.7937C80.1093 74.7937 80.1086 74.7937 80.1079 74.7937C80.1072 74.7937 80.1065 74.7937 80.1058 74.7937C80.1051 74.7937 80.1044 74.7937 80.1037 74.7937C80.103 74.7937 80.1023 74.7937 80.1016 74.7937C80.1009 74.7937 80.1002 74.7937 80.0995 74.7937C80.0987 74.7937 80.098 74.7937 80.0973 74.7937C80.0965 74.7937 80.0958 74.7937 80.0951 74.7937C80.0943 74.7937 80.0936 74.7937 80.0928 74.7937C80.0921 74.7937 80.0913 74.7937 80.0906 74.7937C80.0898 74.7937 80.0891 74.7937 80.0883 74.7937C80.0875 74.7937 80.0868 74.7937 80.086 74.7937C80.0852 74.7937 80.0844 74.7937 80.0836 74.7937C80.0829 74.7937 80.0821 74.7937 80.0813 74.7937C80.0805 74.7937 80.0797 74.7937 80.0789 74.7937C80.0781 74.7937 80.0773 74.7937 80.0765 74.7937C80.0757 74.7937 80.0749 74.7937 80.074 74.7937C80.0732 74.7937 80.0724 74.7937 80.0716 74.7937C80.0707 74.7937 80.0699 74.7937 80.0691 74.7937C80.0682 74.7937 80.0674 74.7937 80.0666 74.7937C80.0657 74.7937 80.0649 74.7937 80.064 74.7937C80.0632 74.7937 80.0623 74.7937 80.0614 74.7937C80.0606 74.7937 80.0597 74.7937 80.0588 74.7937C80.058 74.7937 80.0571 74.7937 80.0562 74.7937C80.0553 74.7937 80.0545 74.7937 80.0536 74.7937C80.0527 74.7937 80.0518 74.7937 80.0509 74.7937C80.05 74.7937 80.0491 74.7937 80.0482 74.7937C80.0473 74.7937 80.0464 74.7937 80.0455 74.7937C80.0445 74.7937 80.0436 74.7937 80.0427 74.7937C80.0418 74.7937 80.0409 74.7937 80.0399 74.7937C80.039 74.7937 80.0381 74.7937 80.0371 74.7937C80.0362 74.7937 80.0352 74.7937 80.0343 74.7937C80.0333 74.7937 80.0324 74.7937 80.0314 74.7937C80.0305 74.7937 80.0295 74.7937 80.0285 74.7937C80.0276 74.7937 80.0266 74.7937 80.0256 74.7937C80.0247 74.7937 80.0237 74.7937 80.0227 74.7937C80.0217 74.7937 80.0207 74.7937 80.0197 74.7937C80.0187 74.7937 80.0177 74.7937 80.0167 74.7937C80.0157 74.7937 80.0147 74.7937 80.0137 74.7937C80.0127 74.7937 80.0117 74.7937 80.0107 74.7937C80.0097 74.7937 80.0086 74.7937 80.0076 74.7937C80.0066 74.7937 80.0056 74.7937 80.0045 74.7937C80.0035 74.7937 80.0025 74.7937 80.0014 74.7937C80.0004 74.7937 79.9993 74.7937 79.9983 74.7937C79.9972 74.7937 79.9962 74.7937 79.9951 74.7937C79.994 74.7937 79.993 74.7937 79.9919 74.7937C79.9908 74.7937 79.9897 74.7937 79.9887 74.7937C79.9876 74.7937 79.9865 74.7937 79.9854 74.7937C79.9843 74.7937 79.9832 74.7937 79.9821 74.7937C79.981 74.7937 79.9799 74.7937 79.9788 74.7937C79.9777 74.7937 79.9766 74.7937 79.9755 74.7937C79.9744 74.7937 79.9733 74.7937 79.9722 74.7937C79.971 74.7937 79.9699 74.7937 79.9688 74.7937C79.9676 74.7937 79.9665 74.7937 79.9654 74.7937C79.9642 74.7937 79.9631 74.7937 79.9619 74.7937C79.9608 74.7937 79.9596 74.7937 79.9585 74.7937C79.9573 74.7937 79.9562 74.7937 79.955 74.7937C79.9538 74.7937 79.9527 74.7937 79.9515 74.7937C79.9503 74.7937 79.9491 74.7937 79.9479 74.7937C79.9468 74.7937 79.9456 74.7937 79.9444 74.7937C79.9432 74.7937 79.942 74.7937 79.9408 74.7937C79.9396 74.7937 79.9384 74.7937 79.9372 74.7937C79.936 74.7937 79.9347 74.7937 79.9335 74.7937C79.9323 74.7937 79.9311 74.7937 79.9299 74.7937C79.9286 74.7937 79.9274 74.7937 79.9262 74.7937C79.9249 74.7937 79.9237 74.7937 79.9224 74.7937C79.9212 74.7937 79.92 74.7937 79.9187 74.7937C79.9174 74.7937 79.9162 74.7937 79.9149 74.7937C79.9137 74.7937 79.9124 74.7937 79.9111 74.7937C79.9099 74.7937 79.9086 74.7937 79.9073 74.7937C79.906 74.7937 79.9047 74.7937 79.9035 74.7937C79.9022 74.7937 79.9009 74.7937 79.8996 74.7937C79.8983 74.7937 79.897 74.7937 79.8957 74.7937C79.8944 74.7937 79.8931 74.7937 79.8917 74.7937C79.8904 74.7937 79.8891 74.7937 79.8878 74.7937C79.8865 74.7937 79.8851 74.7937 79.8838 74.7937C79.8825 74.7937 79.8811 74.7937 79.8798 74.7937C79.8785 74.7937 79.8771 74.7937 79.8758 74.7937C79.8744 74.7937 79.8731 74.7937 79.8717 74.7937C79.8704 74.7937 79.869 74.7937 79.8676 74.7937C79.8663 74.7937 79.8649 74.7937 79.8635 74.7937C79.8621 74.7937 79.8608 74.7937 79.8594 74.7937C79.858 74.7937 79.8566 74.7937 79.8552 74.7937C79.8538 74.7937 79.8524 74.7937 79.851 74.7937C79.8496 74.7937 79.8482 74.7937 79.8468 74.7937C79.8454 74.7937 79.844 74.7937 79.8426 74.7937C79.8411 74.7937 79.8397 74.7937 79.8383 74.7937C79.8369 74.7937 79.8354 74.7937 79.834 74.7937C79.8326 74.7937 79.8311 74.7937 79.8297 74.7937C79.8282 74.7937 79.8268 74.7937 79.8253 74.7937C79.8239 74.7937 79.8224 74.7937 79.821 74.7937C79.8195 74.7937 79.818 74.7937 79.8166 74.7937C79.8151 74.7937 79.8136 74.7937 79.8121 74.7937C79.8107 74.7937 79.8092 74.7937 79.8077 74.7937C79.8062 74.7937 79.8047 74.7937 79.8032 74.7937C79.8017 74.7937 79.8002 74.7937 79.7987 74.7937C79.7972 74.7937 79.7957 74.7937 79.7942 74.7937C79.7927 74.7937 79.7911 74.7937 79.7896 74.7937C79.7881 74.7937 79.7866 74.7937 79.785 74.7937C79.7835 74.7937 79.782 74.7937 79.7804 74.7937C79.7789 74.7937 79.7773 74.7937 79.7758 74.7937C79.7742 74.7937 79.7727 74.7937 79.7711 74.7937C79.7696 74.7937 79.768 74.7937 79.7664 74.7937C79.7649 74.7937 79.7633 74.7937 79.7617 74.7937C79.7602 74.7937 79.7586 74.7937 79.757 74.7937C79.7554 74.7937 79.7538 74.7937 79.7522 74.7937C79.7506 74.7937 79.749 74.7937 79.7474 74.7937C79.7458 74.7937 79.7442 74.7937 79.7426 74.7937C79.741 74.7937 79.7394 74.7937 79.7378 74.7937C79.7362 74.7937 79.7345 74.7937 79.7329 74.7937C79.7313 74.7937 79.7297 74.7937 79.728 74.7937C79.7264 74.7937 79.7247 74.7937 79.7231 74.7937C79.7215 74.7937 79.7198 74.7937 79.7181 74.7937C79.7165 74.7937 79.7148 74.7937 79.7132 74.7937C79.7115 74.7937 79.7098 74.7937 79.7082 74.7937C79.7065 74.7937 79.7048 74.7937 79.7032 74.7937C79.7015 74.7937 79.6998 74.7937 79.6981 74.7937C79.6964 74.7937 79.6947 74.7937 79.693 74.7937C79.6913 74.7937 79.6896 74.7937 79.6879 74.7937C79.6862 74.7937 79.6845 74.7937 79.6828 74.7937C79.6811 74.7937 79.6794 74.7937 79.6776 74.7937C79.6759 74.7937 79.6742 74.7937 79.6724 74.7937C79.6707 74.7937 79.669 74.7937 79.6672 74.7937C79.6655 74.7937 79.6638 74.7937 79.662 74.7937C79.6603 74.7937 79.6585 74.7937 79.6567 74.7937C79.655 74.7937 79.6532 74.7937 79.6515 74.7937C79.6497 74.7937 79.6479 74.7937 79.6461 74.7937C79.6444 74.7937 79.6426 74.7937 79.6408 74.7937C79.639 74.7937 79.6372 74.7937 79.6354 74.7937C79.6336 74.7937 79.6319 74.7937 79.6301 74.7937C79.6282 74.7937 79.6264 74.7937 79.6246 74.7937C79.6228 74.7937 79.621 74.7937 79.6192 74.7937C79.6174 74.7937 79.6155 74.7937 79.6137 74.7937C79.6119 74.7937 79.6101 74.7937 79.6082 74.7937C79.6064 74.7937 79.6045 74.7937 79.6027 74.7937C79.6009 74.7937 79.599 74.7937 79.5972 74.7937C79.5953 74.7937 79.5934 74.7937 79.5916 74.7937C79.5897 74.7937 79.5879 74.7937 79.586 74.7937C79.5841 74.7937 79.5822 74.7937 79.5804 74.7937C79.5785 74.7937 79.5766 74.7937 79.5747 74.7937C79.5728 74.7937 79.5709 74.7937 79.569 74.7937C79.5671 74.7937 79.5652 74.7937 79.5633 74.7937C79.5614 74.7937 79.5595 74.7937 79.5576 74.7937C79.5557 74.7937 79.5538 74.7937 79.5518 74.7937C79.5499 74.7937 79.548 74.7937 79.5461 74.7937C79.5441 74.7937 79.5422 74.7937 79.5402 74.7937C79.5383 74.7937 79.5364 74.7937 79.5344 74.7937C79.5325 74.7937 79.5305 74.7937 79.5285 74.7937C79.5266 74.7937 79.5246 74.7937 79.5227 74.7937C79.5207 74.7937 79.5187 74.7937 79.5167 74.7937C79.5148 74.7937 79.5128 74.7937 79.5108 74.7937C79.5088 74.7937 79.5068 74.7937 79.5048 74.7937C79.5028 74.7937 79.5009 74.7937 79.4989 74.7937C79.4968 74.7937 79.4948 74.7937 79.4928 74.7937C79.4908 74.7937 79.4888 74.7937 79.4868 74.7937C79.4848 74.7937 79.4827 74.7937 79.4807 74.7937C79.4787 74.7937 79.4767 74.7937 79.4746 74.7937C79.4726 74.7937 79.4705 74.7937 79.4685 74.7937C79.4665 74.7937 79.4644 74.7937 79.4624 74.7937C79.4603 74.7937 79.4582 74.7937 79.4562 74.7937C79.4541 74.7937 79.4521 74.7937 79.45 74.7937C79.4479 74.7937 79.4458 74.7937 79.4438 74.7937C79.4417 74.7937 79.4396 74.7937 79.4375 74.7937C79.4354 74.7937 79.4333 74.7937 79.4312 74.7937C79.4291 74.7937 79.427 74.7937 79.4249 74.7937C79.4228 74.7937 79.4207 74.7937 79.4186 74.7937C79.4165 74.7937 79.4144 74.7937 79.4122 74.7937C79.4101 74.7937 79.408 74.7937 79.4058 74.7937C79.4037 74.7937 79.4016 74.7937 79.3994 74.7937C79.3973 74.7937 79.3952 74.7937 79.393 74.7937C79.3909 74.7937 79.3887 74.7937 79.3865 74.7937C79.3844 74.7937 79.3822 74.7937 79.3801 74.7937C79.3779 74.7937 79.3757 74.7937 79.3735 74.7937C79.3714 74.7937 79.3692 74.7937 79.367 74.7937C79.3648 74.7937 79.3626 74.7937 79.3604 74.7937C79.3582 74.7937 79.356 74.7937 79.3538 74.7937C79.3516 74.7937 79.3494 74.7937 79.3472 74.7937C79.345 74.7937 79.3428 74.7937 79.3406 74.7937C79.3384 74.7937 79.3361 74.7937 79.3339 74.7937C79.3317 74.7937 79.3294 74.7937 79.3272 74.7937C79.325 74.7937 79.3227 74.7937 79.3205 74.7937C79.3182 74.7937 79.316 74.7937 79.3137 74.7937C79.3115 74.7937 79.3092 74.7937 79.307 74.7937C79.3047 74.7937 79.3024 74.7937 79.3002 74.7937C79.2979 74.7937 79.2956 74.7937 79.2933 74.7937C79.2911 74.7937 79.2888 74.7937 79.2865 74.7937C79.2842 74.7937 79.2819 74.7937 79.2796 74.7937C79.2773 74.7937 79.275 74.7937 79.2727 74.7937C79.2704 74.7937 79.2681 74.7937 79.2658 74.7937C79.2635 74.7937 79.2611 74.7937 79.2588 74.7937C79.2565 74.7937 79.2542 74.7937 79.2518 74.7937C79.2495 74.7937 79.2472 74.7937 79.2448 74.7937C79.2425 74.7937 79.2401 74.7937 79.2378 74.7937C79.2354 74.7937 79.2331 74.7937 79.2307 74.7937C79.2284 74.7937 79.226 74.7937 79.2236 74.7937C79.2213 74.7937 79.2189 74.7937 79.2165 74.7937C79.2141 74.7937 79.2118 74.7937 79.2094 74.7937C79.207 74.7937 79.2046 74.7937 79.2022 74.7937C79.1998 74.7937 79.1974 74.7937 79.195 74.7937C79.1926 74.7937 79.1902 74.7937 79.1878 74.7937C79.1854 74.7937 79.183 74.7937 79.1806 74.7937C79.1781 74.7937 79.1757 74.7937 79.1733 74.7937C79.1709 74.7937 79.1684 74.7937 79.166 74.7937C79.1636 74.7937 79.1611 74.7937 79.1587 74.7937C79.1562 74.7937 79.1538 74.7937 79.1513 74.7937C79.1489 74.7937 79.1464 74.7937 79.1439 74.7937C79.1415 74.7937 79.139 74.7937 79.1365 74.7937C79.1341 74.7937 79.1316 74.7937 79.1291 74.7937C79.1266 74.7937 79.1241 74.7937 79.1217 74.7937C79.1192 74.7937 79.1167 74.7937 79.1142 74.7937C79.1117 74.7937 79.1092 74.7937 79.1067 74.7937C79.1042 74.7937 79.1017 74.7937 79.0991 74.7937C79.0966 74.7937 79.0941 74.7937 79.0916 74.7937C79.0891 74.7937 79.0865 74.7937 79.084 74.7937C79.0815 74.7937 79.0789 74.7937 79.0764 74.7937C79.0738 74.7937 79.0713 74.7937 79.0688 74.7937C79.0662 74.7937 79.0637 74.7937 79.0611 74.7937C79.0585 74.7937 79.056 74.7937 79.0534 74.7937C79.0508 74.7937 79.0483 74.7937 79.0457 74.7937C79.0431 74.7937 79.0405 74.7937 79.0379 74.7937C79.0354 74.7937 79.0328 74.7937 79.0302 74.7937C79.0276 74.7937 79.025 74.7937 79.0224 74.7937C79.0198 74.7937 79.0172 74.7937 79.0146 74.7937C79.012 74.7937 79.0093 74.7937 79.0067 74.7937C79.0041 74.7937 79.0015 74.7937 78.9989 74.7937C78.9962 74.7937 78.9936 74.7937 78.991 74.7937C78.9883 74.7937 78.9857 74.7937 78.983 74.7937C78.9804 74.7937 78.9777 74.7937 78.9751 74.7937C78.9724 74.7937 78.9698 74.7937 78.9671 74.7937C78.9644 74.7937 78.9618 74.7937 78.9591 74.7937C78.9564 74.7937 78.9538 74.7937 78.9511 74.7937C78.9484 74.7937 78.9457 74.7937 78.943 74.7937C78.9403 74.7937 78.9376 74.7937 78.9349 74.7937C78.9322 74.7937 78.9295 74.7937 78.9268 74.7937C78.9241 74.7937 78.9214 74.7937 78.9187 74.7937C78.916 74.7937 78.9133 74.7937 78.9105 74.7937C78.9078 74.7937 78.9051 74.7937 78.9024 74.7937C78.8996 74.7937 78.8969 74.7937 78.8942 74.7937C78.8914 74.7937 78.8887 74.7937 78.8859 74.7937C78.8832 74.7937 78.8804 74.7937 78.8777 74.7937C78.8749 74.7937 78.8721 74.7937 78.8694 74.7937C78.8666 74.7937 78.8638 74.7937 78.861 74.7937C78.8583 74.7937 78.8555 74.7937 78.8527 74.7937C78.8499 74.7937 78.8471 74.7937 78.8443 74.7937C78.8415 74.7937 78.8387 74.7937 78.8359 74.7937C78.8331 74.7937 78.8303 74.7937 78.8275 74.7937C78.8247 74.7937 78.8219 74.7937 78.8191 74.7937C78.8163 74.7937 78.8134 74.7937 78.8106 74.7937C78.8078 74.7937 78.8049 74.7937 78.8021 74.7937C78.7993 74.7937 78.7964 74.7937 78.7936 74.7937C78.7907 74.7937 78.7879 74.7937 78.785 74.7937C78.7822 74.7937 78.7793 74.7937 78.7765 74.7937C78.7736 74.7937 78.7707 74.7937 78.7679 74.7937C78.765 74.7937 78.7621 74.7937 78.7592 74.7937C78.7564 74.7937 78.7535 74.7937 78.7506 74.7937C78.7477 74.7937 78.7448 74.7937 78.7419 74.7937C78.739 74.7937 78.7361 74.7937 78.7332 74.7937C78.7303 74.7937 78.7274 74.7937 78.7245 74.7937C78.7215 74.7937 78.7186 74.7937 78.7157 74.7937C78.7128 74.7937 78.7098 74.7937 78.7069 74.7937C78.704 74.7937 78.701 74.7937 78.6981 74.7937C78.6952 74.7937 78.6922 74.7937 78.6893 74.7937C78.6863 74.7937 78.6834 74.7937 78.6804 74.7937C78.6774 74.7937 78.6745 74.7937 78.6715 74.7937C78.6685 74.7937 78.6656 74.7937 78.6626 74.7937C78.6596 74.7937 78.6566 74.7937 78.6537 74.7937C78.6507 74.7937 78.6477 74.7937 78.6447 74.7937C78.6417 74.7937 78.6387 74.7937 78.6357 74.7937C78.6327 74.7937 78.6297 74.7937 78.6267 74.7937C78.6237 74.7937 78.6206 74.7937 78.6176 74.7937C78.6146 74.7937 78.6116 74.7937 78.6086 74.7937C78.6055 74.7937 78.6025 74.7937 78.5995 74.7937C78.5964 74.7937 78.5934 74.7937 78.5903 74.7937C78.5873 74.7937 78.5842 74.7937 78.5812 74.7937C78.5781 74.7937 78.5751 74.7937 78.572 74.7937C78.5689 74.7937 78.5659 74.7937 78.5628 74.7937C78.5597 74.7937 78.5567 74.7937 78.5536 74.7937C78.5505 74.7937 78.5474 74.7937 78.5443 74.7937C78.5412 74.7937 78.5381 74.7937 78.535 74.7937C78.5319 74.7937 78.5288 74.7937 78.5257 74.7937C78.5226 74.7937 78.5195 74.7937 78.5164 74.7937C78.5133 74.7937 78.5102 74.7937 78.507 74.7937C78.5039 74.7937 78.5008 74.7937 78.4977 74.7937C78.4945 74.7937 78.4914 74.7937 78.4882 74.7937C78.4851 74.7937 78.482 74.7937 78.4788 74.7937C78.4757 74.7937 78.4725 74.7937 78.4693 74.7937C78.4662 74.7937 78.463 74.7937 78.4599 74.7937C78.4567 74.7937 78.4535 74.7937 78.4503 74.7937C78.4472 74.7937 78.444 74.7937 78.4408 74.7937C78.4376 74.7937 78.4344 74.7937 78.4312 74.7937C78.428 74.7937 78.4248 74.7937 78.4216 74.7937C78.4184 74.7937 78.4152 74.7937 78.412 74.7937C78.4088 74.7937 78.4056 74.7937 78.4024 74.7937C78.3991 74.7937 78.3959 74.7937 78.3927 74.7937C78.3895 74.7937 78.3862 74.7937 78.383 74.7937C78.3798 74.7937 78.3765 74.7937 78.3733 74.7937C78.37 74.7937 78.3668 74.7937 78.3635 74.7937C78.3603 74.7937 78.357 74.7937 78.3537 74.7937C78.3505 74.7937 78.3472 74.7937 78.3439 74.7937C78.3407 74.7937 78.3374 74.7937 78.3341 74.7937C78.3308 74.7937 78.3275 74.7937 78.3243 74.7937C78.321 74.7937 78.3177 74.7937 78.3144 74.7937C78.3111 74.7937 78.3078 74.7937 78.3045 74.7937C78.3012 74.7937 78.2978 74.7937 78.2945 74.7937C78.2912 74.7937 78.2879 74.7937 78.2846 74.7937C78.2812 74.7937 78.2779 74.7937 78.2746 74.7937C78.2713 74.7937 78.2679 74.7937 78.2646 74.7937C78.2612 74.7937 78.2579 74.7937 78.2545 74.7937C78.2512 74.7937 78.2478 74.7937 78.2445 74.7937C78.2411 74.7937 78.2377 74.7937 78.2344 74.7937C78.231 74.7937 78.2276 74.7937 78.2243 74.7937C78.2209 74.7937 78.2175 74.7937 78.2141 74.7937C78.2107 74.7937 78.2073 74.7937 78.204 74.7937C78.2006 74.7937 78.1972 74.7937 78.1938 74.7937C78.1904 74.7937 78.1869 74.7937 78.1835 74.7937C78.1801 74.7937 78.1767 74.7937 78.1733 74.7937C78.1699 74.7937 78.1664 74.7937 78.163 74.7937C78.1596 74.7937 78.1562 74.7937 78.1527 74.7937C78.1493 74.7937 78.1458 74.7937 78.1424 74.7937C78.1389 74.7937 78.1355 74.7937 78.132 74.7937C78.1286 74.7937 78.1251 74.7937 78.1217 74.7937C78.1182 74.7937 78.1147 74.7937 78.1113 74.7937C78.1078 74.7937 78.1043 74.7937 78.1008 74.7937C78.0973 74.7937 78.0939 74.7937 78.0904 74.7937C78.0869 74.7937 78.0834 74.7937 78.0799 74.7937C78.0764 74.7937 78.0729 74.7937 78.0694 74.7937C78.0659 74.7937 78.0624 74.7937 78.0589 74.7937C78.0553 74.7937 78.0518 74.7937 78.0483 74.7937C78.0448 74.7937 78.0412 74.7937 78.0377 74.7937C78.0342 74.7937 78.0306 74.7937 78.0271 74.7937C78.0235 74.7937 78.02 74.7937 78.0165 74.7937C78.0129 74.7937 78.0093 74.7937 78.0058 74.7937C78.0022 74.7937 77.9987 74.7937 77.9951 74.7937C77.9915 74.7937 77.988 74.7937 77.9844 74.7937C77.9808 74.7937 77.9772 74.7937 77.9736 74.7937C77.9701 74.7937 77.9665 74.7937 77.9629 74.7937C77.9593 74.7937 77.9557 74.7937 77.9521 74.7937C77.9485 74.7937 77.9449 74.7937 77.9413 74.7937C77.9376 74.7937 77.934 74.7937 77.9304 74.7937C77.9268 74.7937 77.9232 74.7937 77.9195 74.7937C77.9159 74.7937 77.9123 74.7937 77.9086 74.7937C77.905 74.7937 77.9014 74.7937 77.8977 74.7937C77.8941 74.7937 77.8904 74.7937 77.8868 74.7937C77.8831 74.7937 77.8794 74.7937 77.8758 74.7937C77.8721 74.7937 77.8684 74.7937 77.8648 74.7937C77.8611 74.7937 77.8574 74.7937 77.8537 74.7937C77.8501 74.7937 77.8464 74.7937 77.8427 74.7937C77.839 74.7937 77.8353 74.7937 77.8316 74.7937C77.8279 74.7937 77.8242 74.7937 77.8205 74.7937C77.8168 74.7937 77.8131 74.7937 77.8094 74.7937C77.8056 74.7937 77.8019 74.7937 77.7982 74.7937C77.7945 74.7937 77.7907 74.7937 77.787 74.7937C77.7833 74.7937 77.7795 74.7937 77.7758 74.7937C77.7721 74.7937 77.7683 74.7937 77.7646 74.7937C77.7608 74.7937 77.7571 74.7937 77.7533 74.7937C77.7495 74.7937 77.7458 74.7937 77.742 74.7937C77.7382 74.7937 77.7345 74.7937 77.7307 74.7937C77.7269 74.7937 77.7231 74.7937 77.7193 74.7937C77.7156 74.7937 77.7118 74.7937 77.708 74.7937C77.7042 74.7937 77.7004 74.7937 77.6966 74.7937C77.6928 74.7937 77.689 74.7937 77.6852 74.7937C77.6813 74.7937 77.6775 74.7937 77.6737 74.7937C77.6699 74.7937 77.6661 74.7937 77.6622 74.7937C77.6584 74.7937 77.6546 74.7937 77.6507 74.7937C77.6469 74.7937 77.6431 74.7937 77.6392 74.7937C77.6354 74.7937 77.6315 74.7937 77.6277 74.7937C77.6238 74.7937 77.6199 74.7937 77.6161 74.7937C77.6122 74.7937 77.6083 74.7937 77.6045 74.7937C77.6006 74.7937 77.5967 74.7937 77.5928 74.7937C77.589 74.7937 77.5851 74.7937 77.5812 74.7937C77.5773 74.7937 77.5734 74.7937 77.5695 74.7937C77.5656 74.7937 77.5617 74.7937 77.5578 74.7937C77.5539 74.7937 77.55 74.7937 77.5461 74.7937C77.5421 74.7937 77.5382 74.7937 77.5343 74.7937C77.5304 74.7937 77.5264 74.7937 77.5225 74.7937C77.5186 74.7937 77.5146 74.7937 77.5107 74.7937C77.5068 74.7937 77.5028 74.7937 77.4989 74.7937C77.4949 74.7937 77.491 74.7937 77.487 74.7937C77.483 74.7937 77.4791 74.7937 77.4751 74.7937C77.4711 74.7937 77.4672 74.7937 77.4632 74.7937C77.4592 74.7937 77.4552 74.7937 77.4512 74.7937C77.4473 74.7937 77.4433 74.7937 77.4393 74.7937C77.4353 74.7937 77.4313 74.7937 77.4273 74.7937C77.4233 74.7937 77.4193 74.7937 77.4153 74.7937C77.4112 74.7937 77.4072 74.7937 77.4032 74.7937C77.3992 74.7937 77.3952 74.7937 77.3911 74.7937C77.3871 74.7937 77.3831 74.7937 77.379 74.7937C77.375 74.7937 77.3709 74.7937 77.3669 74.7937C77.3629 74.7937 77.3588 74.7937 77.3547 74.7937C77.3507 74.7937 77.3466 74.7937 77.3426 74.7937C77.3385 74.7937 77.3344 74.7937 77.3304 74.7937C77.3263 74.7937 77.3222 74.7937 77.3181 74.7937C77.3141 74.7937 77.31 74.7937 77.3059 74.7937C77.3018 74.7937 77.2977 74.7937 77.2936 74.7937C77.2895 74.7937 77.2854 74.7937 77.2813 74.7937C77.2772 74.7937 77.2731 74.7937 77.2689 74.7937C77.2648 74.7937 77.2607 74.7937 77.2566 74.7937C77.2525 74.7937 77.2483 74.7937 77.2442 74.7937C77.2401 74.7937 77.2359 74.7937 77.2318 74.7937C77.2276 74.7937 77.2235 74.7937 77.2193 74.7937C77.2152 74.7937 77.211 74.7937 77.2069 74.7937C77.2027 74.7937 77.1986 74.7937 77.1944 74.7937C77.1902 74.7937 77.186 74.7937 77.1819 74.7937C77.1777 74.7937 77.1735 74.7937 77.1693 74.7937C77.1651 74.7937 77.1609 74.7937 77.1568 74.7937C77.1526 74.7937 77.1484 74.7937 77.1442 74.7937C77.14 74.7937 77.1357 74.7937 77.1315 74.7937C77.1273 74.7937 77.1231 74.7937 77.1189 74.7937C77.1147 74.7937 77.1104 74.7937 77.1062 74.7937C77.102 74.7937 77.0977 74.7937 77.0935 74.7937C77.0893 74.7937 77.085 74.7937 77.0808 74.7937C77.0765 74.7937 77.0723 74.7937 77.068 74.7937C77.0638 74.7937 77.0595 74.7937 77.0553 74.7937C77.051 74.7937 77.0467 74.7937 77.0424 74.7937C77.0382 74.7937 77.0339 74.7937 77.0296 74.7937C77.0253 74.7937 77.021 74.7937 77.0168 74.7937C77.0125 74.7937 77.0082 74.7937 77.0039 74.7937C76.9996 74.7937 76.9953 74.7937 76.991 74.7937C76.9867 74.7937 76.9823 74.7937 76.978 74.7937C76.9737 74.7937 76.9694 74.7937 76.9651 74.7937C76.9607 74.7937 76.9564 74.7937 76.9521 74.7937C76.9477 74.7937 76.9434 74.7937 76.9391 74.7937C76.9347 74.7937 76.9304 74.7937 76.926 74.7937C76.9217 74.7937 76.9173 74.7937 76.913 74.7937C76.9086 74.7937 76.9042 74.7937 76.8999 74.7937C76.8955 74.7937 76.8911 74.7937 76.8867 74.7937C76.8824 74.7937 76.878 74.7937 76.8736 74.7937C76.8692 74.7937 76.8648 74.7937 76.8604 74.7937C76.856 74.7937 76.8516 74.7937 76.8472 74.7937C76.8428 74.7937 76.8384 74.7937 76.834 74.7937C76.8296 74.7937 76.8252 74.7937 76.8208 74.7937C76.8163 74.7937 76.8119 74.7937 76.8075 74.7937C76.8031 74.7937 76.7986 74.7937 76.7942 74.7937C76.7897 74.7937 76.7853 74.7937 76.7809 74.7937C76.7764 74.7937 76.772 74.7937 76.7675 74.7937V75.3938C76.772 75.3938 76.7764 75.3938 76.7809 75.3938C76.7853 75.3938 76.7897 75.3938 76.7942 75.3938C76.7986 75.3938 76.8031 75.3938 76.8075 75.3938C76.8119 75.3938 76.8163 75.3938 76.8208 75.3938C76.8252 75.3938 76.8296 75.3938 76.834 75.3938C76.8384 75.3938 76.8428 75.3938 76.8472 75.3938C76.8516 75.3938 76.856 75.3938 76.8604 75.3938C76.8648 75.3938 76.8692 75.3938 76.8736 75.3938C76.878 75.3938 76.8824 75.3938 76.8867 75.3938C76.8911 75.3938 76.8955 75.3938 76.8999 75.3938C76.9042 75.3938 76.9086 75.3938 76.913 75.3938C76.9173 75.3938 76.9217 75.3938 76.926 75.3938C76.9304 75.3938 76.9347 75.3938 76.9391 75.3938C76.9434 75.3938 76.9477 75.3938 76.9521 75.3938C76.9564 75.3938 76.9607 75.3938 76.9651 75.3938C76.9694 75.3938 76.9737 75.3938 76.978 75.3938C76.9823 75.3938 76.9867 75.3938 76.991 75.3938C76.9953 75.3938 76.9996 75.3938 77.0039 75.3938C77.0082 75.3938 77.0125 75.3938 77.0168 75.3938C77.021 75.3938 77.0253 75.3938 77.0296 75.3938C77.0339 75.3938 77.0382 75.3938 77.0424 75.3938C77.0467 75.3938 77.051 75.3938 77.0553 75.3938C77.0595 75.3938 77.0638 75.3938 77.068 75.3938C77.0723 75.3938 77.0765 75.3938 77.0808 75.3938C77.085 75.3938 77.0893 75.3938 77.0935 75.3938C77.0977 75.3938 77.102 75.3938 77.1062 75.3938C77.1104 75.3938 77.1147 75.3938 77.1189 75.3938C77.1231 75.3938 77.1273 75.3938 77.1315 75.3938C77.1357 75.3938 77.14 75.3938 77.1442 75.3938C77.1484 75.3938 77.1526 75.3938 77.1568 75.3938C77.1609 75.3938 77.1651 75.3938 77.1693 75.3938C77.1735 75.3938 77.1777 75.3938 77.1819 75.3938C77.186 75.3938 77.1902 75.3938 77.1944 75.3938C77.1986 75.3938 77.2027 75.3938 77.2069 75.3938C77.211 75.3938 77.2152 75.3938 77.2193 75.3938C77.2235 75.3938 77.2276 75.3938 77.2318 75.3938C77.2359 75.3938 77.2401 75.3938 77.2442 75.3938C77.2483 75.3938 77.2525 75.3938 77.2566 75.3938C77.2607 75.3938 77.2648 75.3938 77.2689 75.3938C77.2731 75.3938 77.2772 75.3938 77.2813 75.3938C77.2854 75.3938 77.2895 75.3938 77.2936 75.3938C77.2977 75.3938 77.3018 75.3938 77.3059 75.3938C77.31 75.3938 77.3141 75.3938 77.3181 75.3938C77.3222 75.3938 77.3263 75.3938 77.3304 75.3938C77.3344 75.3938 77.3385 75.3938 77.3426 75.3938C77.3466 75.3938 77.3507 75.3938 77.3547 75.3938C77.3588 75.3938 77.3629 75.3938 77.3669 75.3938C77.3709 75.3938 77.375 75.3938 77.379 75.3938C77.3831 75.3938 77.3871 75.3938 77.3911 75.3938C77.3952 75.3938 77.3992 75.3938 77.4032 75.3938C77.4072 75.3938 77.4112 75.3938 77.4153 75.3938C77.4193 75.3938 77.4233 75.3938 77.4273 75.3938C77.4313 75.3938 77.4353 75.3938 77.4393 75.3938C77.4433 75.3938 77.4473 75.3938 77.4512 75.3938C77.4552 75.3938 77.4592 75.3938 77.4632 75.3938C77.4672 75.3938 77.4711 75.3938 77.4751 75.3938C77.4791 75.3938 77.483 75.3938 77.487 75.3938C77.491 75.3938 77.4949 75.3938 77.4989 75.3938C77.5028 75.3938 77.5068 75.3938 77.5107 75.3938C77.5146 75.3938 77.5186 75.3938 77.5225 75.3938C77.5264 75.3938 77.5304 75.3938 77.5343 75.3938C77.5382 75.3938 77.5421 75.3938 77.5461 75.3938C77.55 75.3938 77.5539 75.3938 77.5578 75.3938C77.5617 75.3938 77.5656 75.3938 77.5695 75.3938C77.5734 75.3938 77.5773 75.3938 77.5812 75.3938C77.5851 75.3938 77.589 75.3938 77.5928 75.3938C77.5967 75.3938 77.6006 75.3938 77.6045 75.3938C77.6083 75.3938 77.6122 75.3938 77.6161 75.3938C77.6199 75.3938 77.6238 75.3938 77.6277 75.3938C77.6315 75.3938 77.6354 75.3938 77.6392 75.3938C77.6431 75.3938 77.6469 75.3938 77.6507 75.3938C77.6546 75.3938 77.6584 75.3938 77.6622 75.3938C77.6661 75.3938 77.6699 75.3938 77.6737 75.3938C77.6775 75.3938 77.6813 75.3938 77.6852 75.3938C77.689 75.3938 77.6928 75.3938 77.6966 75.3938C77.7004 75.3938 77.7042 75.3938 77.708 75.3938C77.7118 75.3938 77.7156 75.3938 77.7193 75.3938C77.7231 75.3938 77.7269 75.3938 77.7307 75.3938C77.7345 75.3938 77.7382 75.3938 77.742 75.3938C77.7458 75.3938 77.7495 75.3938 77.7533 75.3938C77.7571 75.3938 77.7608 75.3938 77.7646 75.3938C77.7683 75.3938 77.7721 75.3938 77.7758 75.3938C77.7795 75.3938 77.7833 75.3938 77.787 75.3938C77.7907 75.3938 77.7945 75.3938 77.7982 75.3938C77.8019 75.3938 77.8056 75.3938 77.8094 75.3938C77.8131 75.3938 77.8168 75.3938 77.8205 75.3938C77.8242 75.3938 77.8279 75.3938 77.8316 75.3938C77.8353 75.3938 77.839 75.3938 77.8427 75.3938C77.8464 75.3938 77.8501 75.3938 77.8537 75.3938C77.8574 75.3938 77.8611 75.3938 77.8648 75.3938C77.8684 75.3938 77.8721 75.3938 77.8758 75.3938C77.8794 75.3938 77.8831 75.3938 77.8868 75.3938C77.8904 75.3938 77.8941 75.3938 77.8977 75.3938C77.9014 75.3938 77.905 75.3938 77.9086 75.3938C77.9123 75.3938 77.9159 75.3938 77.9195 75.3938C77.9232 75.3938 77.9268 75.3938 77.9304 75.3938C77.934 75.3938 77.9376 75.3938 77.9413 75.3938C77.9449 75.3938 77.9485 75.3938 77.9521 75.3938C77.9557 75.3938 77.9593 75.3938 77.9629 75.3938C77.9665 75.3938 77.9701 75.3938 77.9736 75.3938C77.9772 75.3938 77.9808 75.3938 77.9844 75.3938C77.988 75.3938 77.9915 75.3938 77.9951 75.3938C77.9987 75.3938 78.0022 75.3938 78.0058 75.3938C78.0093 75.3938 78.0129 75.3938 78.0165 75.3938C78.02 75.3938 78.0235 75.3938 78.0271 75.3938C78.0306 75.3938 78.0342 75.3938 78.0377 75.3938C78.0412 75.3938 78.0448 75.3938 78.0483 75.3938C78.0518 75.3938 78.0553 75.3938 78.0589 75.3938C78.0624 75.3938 78.0659 75.3938 78.0694 75.3938C78.0729 75.3938 78.0764 75.3938 78.0799 75.3938C78.0834 75.3938 78.0869 75.3938 78.0904 75.3938C78.0939 75.3938 78.0973 75.3938 78.1008 75.3938C78.1043 75.3938 78.1078 75.3938 78.1113 75.3938C78.1147 75.3938 78.1182 75.3938 78.1217 75.3938C78.1251 75.3938 78.1286 75.3938 78.132 75.3938C78.1355 75.3938 78.1389 75.3938 78.1424 75.3938C78.1458 75.3938 78.1493 75.3938 78.1527 75.3938C78.1562 75.3938 78.1596 75.3938 78.163 75.3938C78.1664 75.3938 78.1699 75.3938 78.1733 75.3938C78.1767 75.3938 78.1801 75.3938 78.1835 75.3938C78.1869 75.3938 78.1904 75.3938 78.1938 75.3938C78.1972 75.3938 78.2006 75.3938 78.204 75.3938C78.2073 75.3938 78.2107 75.3938 78.2141 75.3938C78.2175 75.3938 78.2209 75.3938 78.2243 75.3938C78.2276 75.3938 78.231 75.3938 78.2344 75.3938C78.2377 75.3938 78.2411 75.3938 78.2445 75.3938C78.2478 75.3938 78.2512 75.3938 78.2545 75.3938C78.2579 75.3938 78.2612 75.3938 78.2646 75.3938C78.2679 75.3938 78.2713 75.3938 78.2746 75.3938C78.2779 75.3938 78.2812 75.3938 78.2846 75.3938C78.2879 75.3938 78.2912 75.3938 78.2945 75.3938C78.2978 75.3938 78.3012 75.3938 78.3045 75.3938C78.3078 75.3938 78.3111 75.3938 78.3144 75.3938C78.3177 75.3938 78.321 75.3938 78.3243 75.3938C78.3275 75.3938 78.3308 75.3938 78.3341 75.3938C78.3374 75.3938 78.3407 75.3938 78.3439 75.3938C78.3472 75.3938 78.3505 75.3938 78.3537 75.3938C78.357 75.3938 78.3603 75.3938 78.3635 75.3938C78.3668 75.3938 78.37 75.3938 78.3733 75.3938C78.3765 75.3938 78.3798 75.3938 78.383 75.3938C78.3862 75.3938 78.3895 75.3938 78.3927 75.3938C78.3959 75.3938 78.3991 75.3938 78.4024 75.3938C78.4056 75.3938 78.4088 75.3938 78.412 75.3938C78.4152 75.3938 78.4184 75.3938 78.4216 75.3938C78.4248 75.3938 78.428 75.3938 78.4312 75.3938C78.4344 75.3938 78.4376 75.3938 78.4408 75.3938C78.444 75.3938 78.4472 75.3938 78.4503 75.3938C78.4535 75.3938 78.4567 75.3938 78.4599 75.3938C78.463 75.3938 78.4662 75.3938 78.4693 75.3938C78.4725 75.3938 78.4757 75.3938 78.4788 75.3938C78.482 75.3938 78.4851 75.3938 78.4882 75.3938C78.4914 75.3938 78.4945 75.3938 78.4977 75.3938C78.5008 75.3938 78.5039 75.3938 78.507 75.3938C78.5102 75.3938 78.5133 75.3938 78.5164 75.3938C78.5195 75.3938 78.5226 75.3938 78.5257 75.3938C78.5288 75.3938 78.5319 75.3938 78.535 75.3938C78.5381 75.3938 78.5412 75.3938 78.5443 75.3938C78.5474 75.3938 78.5505 75.3938 78.5536 75.3938C78.5567 75.3938 78.5597 75.3938 78.5628 75.3938C78.5659 75.3938 78.5689 75.3938 78.572 75.3938C78.5751 75.3938 78.5781 75.3938 78.5812 75.3938C78.5842 75.3938 78.5873 75.3938 78.5903 75.3938C78.5934 75.3938 78.5964 75.3938 78.5995 75.3938C78.6025 75.3938 78.6055 75.3938 78.6086 75.3938C78.6116 75.3938 78.6146 75.3938 78.6176 75.3938C78.6206 75.3938 78.6237 75.3938 78.6267 75.3938C78.6297 75.3938 78.6327 75.3938 78.6357 75.3938C78.6387 75.3938 78.6417 75.3938 78.6447 75.3938C78.6477 75.3938 78.6507 75.3938 78.6537 75.3938C78.6566 75.3938 78.6596 75.3938 78.6626 75.3938C78.6656 75.3938 78.6685 75.3938 78.6715 75.3938C78.6745 75.3938 78.6774 75.3938 78.6804 75.3938C78.6834 75.3938 78.6863 75.3938 78.6893 75.3938C78.6922 75.3938 78.6952 75.3938 78.6981 75.3938C78.701 75.3938 78.704 75.3938 78.7069 75.3938C78.7098 75.3938 78.7128 75.3938 78.7157 75.3938C78.7186 75.3938 78.7215 75.3938 78.7245 75.3938C78.7274 75.3938 78.7303 75.3938 78.7332 75.3938C78.7361 75.3938 78.739 75.3938 78.7419 75.3938C78.7448 75.3938 78.7477 75.3938 78.7506 75.3938C78.7535 75.3938 78.7564 75.3938 78.7592 75.3938C78.7621 75.3938 78.765 75.3938 78.7679 75.3938C78.7707 75.3938 78.7736 75.3938 78.7765 75.3938C78.7793 75.3938 78.7822 75.3938 78.785 75.3938C78.7879 75.3938 78.7907 75.3938 78.7936 75.3938C78.7964 75.3938 78.7993 75.3938 78.8021 75.3938C78.8049 75.3938 78.8078 75.3938 78.8106 75.3938C78.8134 75.3938 78.8163 75.3938 78.8191 75.3938C78.8219 75.3938 78.8247 75.3938 78.8275 75.3938C78.8303 75.3938 78.8331 75.3938 78.8359 75.3938C78.8387 75.3938 78.8415 75.3938 78.8443 75.3938C78.8471 75.3938 78.8499 75.3938 78.8527 75.3938C78.8555 75.3938 78.8583 75.3938 78.861 75.3938C78.8638 75.3938 78.8666 75.3938 78.8694 75.3938C78.8721 75.3938 78.8749 75.3938 78.8777 75.3938C78.8804 75.3938 78.8832 75.3938 78.8859 75.3938C78.8887 75.3938 78.8914 75.3938 78.8942 75.3938C78.8969 75.3938 78.8996 75.3938 78.9024 75.3938C78.9051 75.3938 78.9078 75.3938 78.9105 75.3938C78.9133 75.3938 78.916 75.3938 78.9187 75.3938C78.9214 75.3938 78.9241 75.3938 78.9268 75.3938C78.9295 75.3938 78.9322 75.3938 78.9349 75.3938C78.9376 75.3938 78.9403 75.3938 78.943 75.3938C78.9457 75.3938 78.9484 75.3938 78.9511 75.3938C78.9538 75.3938 78.9564 75.3938 78.9591 75.3938C78.9618 75.3938 78.9644 75.3938 78.9671 75.3938C78.9698 75.3938 78.9724 75.3938 78.9751 75.3938C78.9777 75.3938 78.9804 75.3938 78.983 75.3938C78.9857 75.3938 78.9883 75.3938 78.991 75.3938C78.9936 75.3938 78.9962 75.3938 78.9989 75.3938C79.0015 75.3938 79.0041 75.3938 79.0067 75.3938C79.0093 75.3938 79.012 75.3938 79.0146 75.3938C79.0172 75.3938 79.0198 75.3938 79.0224 75.3938C79.025 75.3938 79.0276 75.3938 79.0302 75.3938C79.0328 75.3938 79.0354 75.3938 79.0379 75.3938C79.0405 75.3938 79.0431 75.3938 79.0457 75.3938C79.0483 75.3938 79.0508 75.3938 79.0534 75.3938C79.056 75.3938 79.0585 75.3938 79.0611 75.3938C79.0637 75.3938 79.0662 75.3938 79.0688 75.3938C79.0713 75.3938 79.0738 75.3938 79.0764 75.3938C79.0789 75.3938 79.0815 75.3938 79.084 75.3938C79.0865 75.3938 79.0891 75.3938 79.0916 75.3938C79.0941 75.3938 79.0966 75.3938 79.0991 75.3938C79.1017 75.3938 79.1042 75.3938 79.1067 75.3938C79.1092 75.3938 79.1117 75.3938 79.1142 75.3938C79.1167 75.3938 79.1192 75.3938 79.1217 75.3938C79.1241 75.3938 79.1266 75.3938 79.1291 75.3938C79.1316 75.3938 79.1341 75.3938 79.1365 75.3938C79.139 75.3938 79.1415 75.3938 79.1439 75.3938C79.1464 75.3938 79.1489 75.3938 79.1513 75.3938C79.1538 75.3938 79.1562 75.3938 79.1587 75.3938C79.1611 75.3938 79.1636 75.3938 79.166 75.3938C79.1684 75.3938 79.1709 75.3938 79.1733 75.3938C79.1757 75.3938 79.1781 75.3938 79.1806 75.3938C79.183 75.3938 79.1854 75.3938 79.1878 75.3938C79.1902 75.3938 79.1926 75.3938 79.195 75.3938C79.1974 75.3938 79.1998 75.3938 79.2022 75.3938C79.2046 75.3938 79.207 75.3938 79.2094 75.3938C79.2118 75.3938 79.2141 75.3938 79.2165 75.3938C79.2189 75.3938 79.2213 75.3938 79.2236 75.3938C79.226 75.3938 79.2284 75.3938 79.2307 75.3938C79.2331 75.3938 79.2354 75.3938 79.2378 75.3938C79.2401 75.3938 79.2425 75.3938 79.2448 75.3938C79.2472 75.3938 79.2495 75.3938 79.2518 75.3938C79.2542 75.3938 79.2565 75.3938 79.2588 75.3938C79.2611 75.3938 79.2635 75.3938 79.2658 75.3938C79.2681 75.3938 79.2704 75.3938 79.2727 75.3938C79.275 75.3938 79.2773 75.3938 79.2796 75.3938C79.2819 75.3938 79.2842 75.3938 79.2865 75.3938C79.2888 75.3938 79.2911 75.3938 79.2933 75.3938C79.2956 75.3938 79.2979 75.3938 79.3002 75.3938C79.3024 75.3938 79.3047 75.3938 79.307 75.3938C79.3092 75.3938 79.3115 75.3938 79.3137 75.3938C79.316 75.3938 79.3182 75.3938 79.3205 75.3938C79.3227 75.3938 79.325 75.3938 79.3272 75.3938C79.3294 75.3938 79.3317 75.3938 79.3339 75.3938C79.3361 75.3938 79.3384 75.3938 79.3406 75.3938C79.3428 75.3938 79.345 75.3938 79.3472 75.3938C79.3494 75.3938 79.3516 75.3938 79.3538 75.3938C79.356 75.3938 79.3582 75.3938 79.3604 75.3938C79.3626 75.3938 79.3648 75.3938 79.367 75.3938C79.3692 75.3938 79.3714 75.3938 79.3735 75.3938C79.3757 75.3938 79.3779 75.3938 79.3801 75.3938C79.3822 75.3938 79.3844 75.3938 79.3865 75.3938C79.3887 75.3938 79.3909 75.3938 79.393 75.3938C79.3952 75.3938 79.3973 75.3938 79.3994 75.3938C79.4016 75.3938 79.4037 75.3938 79.4058 75.3938C79.408 75.3938 79.4101 75.3938 79.4122 75.3938C79.4144 75.3938 79.4165 75.3938 79.4186 75.3938C79.4207 75.3938 79.4228 75.3938 79.4249 75.3938C79.427 75.3938 79.4291 75.3938 79.4312 75.3938C79.4333 75.3938 79.4354 75.3938 79.4375 75.3938C79.4396 75.3938 79.4417 75.3938 79.4438 75.3938C79.4458 75.3938 79.4479 75.3938 79.45 75.3938C79.4521 75.3938 79.4541 75.3938 79.4562 75.3938C79.4582 75.3938 79.4603 75.3938 79.4624 75.3938C79.4644 75.3938 79.4665 75.3938 79.4685 75.3938C79.4705 75.3938 79.4726 75.3938 79.4746 75.3938C79.4767 75.3938 79.4787 75.3938 79.4807 75.3938C79.4827 75.3938 79.4848 75.3938 79.4868 75.3938C79.4888 75.3938 79.4908 75.3938 79.4928 75.3938C79.4948 75.3938 79.4968 75.3938 79.4989 75.3938C79.5009 75.3938 79.5028 75.3938 79.5048 75.3938C79.5068 75.3938 79.5088 75.3938 79.5108 75.3938C79.5128 75.3938 79.5148 75.3938 79.5167 75.3938C79.5187 75.3938 79.5207 75.3938 79.5227 75.3938C79.5246 75.3938 79.5266 75.3938 79.5285 75.3938C79.5305 75.3938 79.5325 75.3938 79.5344 75.3938C79.5364 75.3938 79.5383 75.3938 79.5402 75.3938C79.5422 75.3938 79.5441 75.3938 79.5461 75.3938C79.548 75.3938 79.5499 75.3938 79.5518 75.3938C79.5538 75.3938 79.5557 75.3938 79.5576 75.3938C79.5595 75.3938 79.5614 75.3938 79.5633 75.3938C79.5652 75.3938 79.5671 75.3938 79.569 75.3938C79.5709 75.3938 79.5728 75.3938 79.5747 75.3938C79.5766 75.3938 79.5785 75.3938 79.5804 75.3938C79.5822 75.3938 79.5841 75.3938 79.586 75.3938C79.5879 75.3938 79.5897 75.3938 79.5916 75.3938C79.5934 75.3938 79.5953 75.3938 79.5972 75.3938C79.599 75.3938 79.6009 75.3938 79.6027 75.3938C79.6045 75.3938 79.6064 75.3938 79.6082 75.3938C79.6101 75.3938 79.6119 75.3938 79.6137 75.3938C79.6155 75.3938 79.6174 75.3938 79.6192 75.3938C79.621 75.3938 79.6228 75.3938 79.6246 75.3938C79.6264 75.3938 79.6282 75.3938 79.6301 75.3938C79.6319 75.3938 79.6336 75.3938 79.6354 75.3938C79.6372 75.3938 79.639 75.3938 79.6408 75.3938C79.6426 75.3938 79.6444 75.3938 79.6461 75.3938C79.6479 75.3938 79.6497 75.3938 79.6515 75.3938C79.6532 75.3938 79.655 75.3938 79.6567 75.3938C79.6585 75.3938 79.6603 75.3938 79.662 75.3938C79.6638 75.3938 79.6655 75.3938 79.6672 75.3938C79.669 75.3938 79.6707 75.3938 79.6724 75.3938C79.6742 75.3938 79.6759 75.3938 79.6776 75.3938C79.6794 75.3938 79.6811 75.3938 79.6828 75.3938C79.6845 75.3938 79.6862 75.3938 79.6879 75.3938C79.6896 75.3938 79.6913 75.3938 79.693 75.3938C79.6947 75.3938 79.6964 75.3938 79.6981 75.3938C79.6998 75.3938 79.7015 75.3938 79.7032 75.3938C79.7048 75.3938 79.7065 75.3938 79.7082 75.3938C79.7098 75.3938 79.7115 75.3938 79.7132 75.3938C79.7148 75.3938 79.7165 75.3938 79.7181 75.3938C79.7198 75.3938 79.7215 75.3938 79.7231 75.3938C79.7247 75.3938 79.7264 75.3938 79.728 75.3938C79.7297 75.3938 79.7313 75.3938 79.7329 75.3938C79.7345 75.3938 79.7362 75.3938 79.7378 75.3938C79.7394 75.3938 79.741 75.3938 79.7426 75.3938C79.7442 75.3938 79.7458 75.3938 79.7474 75.3938C79.749 75.3938 79.7506 75.3938 79.7522 75.3938C79.7538 75.3938 79.7554 75.3938 79.757 75.3938C79.7586 75.3938 79.7602 75.3938 79.7617 75.3938C79.7633 75.3938 79.7649 75.3938 79.7664 75.3938C79.768 75.3938 79.7696 75.3938 79.7711 75.3938C79.7727 75.3938 79.7742 75.3938 79.7758 75.3938C79.7773 75.3938 79.7789 75.3938 79.7804 75.3938C79.782 75.3938 79.7835 75.3938 79.785 75.3938C79.7866 75.3938 79.7881 75.3938 79.7896 75.3938C79.7911 75.3938 79.7927 75.3938 79.7942 75.3938C79.7957 75.3938 79.7972 75.3938 79.7987 75.3938C79.8002 75.3938 79.8017 75.3938 79.8032 75.3938C79.8047 75.3938 79.8062 75.3938 79.8077 75.3938C79.8092 75.3938 79.8107 75.3938 79.8121 75.3938C79.8136 75.3938 79.8151 75.3938 79.8166 75.3938C79.818 75.3938 79.8195 75.3938 79.821 75.3938C79.8224 75.3938 79.8239 75.3938 79.8253 75.3938C79.8268 75.3938 79.8282 75.3938 79.8297 75.3938C79.8311 75.3938 79.8326 75.3938 79.834 75.3938C79.8354 75.3938 79.8369 75.3938 79.8383 75.3938C79.8397 75.3938 79.8411 75.3938 79.8426 75.3938C79.844 75.3938 79.8454 75.3938 79.8468 75.3938C79.8482 75.3938 79.8496 75.3938 79.851 75.3938C79.8524 75.3938 79.8538 75.3938 79.8552 75.3938C79.8566 75.3938 79.858 75.3938 79.8594 75.3938C79.8608 75.3938 79.8621 75.3938 79.8635 75.3938C79.8649 75.3938 79.8663 75.3938 79.8676 75.3938C79.869 75.3938 79.8704 75.3938 79.8717 75.3938C79.8731 75.3938 79.8744 75.3938 79.8758 75.3938C79.8771 75.3938 79.8785 75.3938 79.8798 75.3938C79.8811 75.3938 79.8825 75.3938 79.8838 75.3938C79.8851 75.3938 79.8865 75.3938 79.8878 75.3938C79.8891 75.3938 79.8904 75.3938 79.8917 75.3938C79.8931 75.3938 79.8944 75.3938 79.8957 75.3938C79.897 75.3938 79.8983 75.3938 79.8996 75.3938C79.9009 75.3938 79.9022 75.3938 79.9035 75.3938C79.9047 75.3938 79.906 75.3938 79.9073 75.3938C79.9086 75.3938 79.9099 75.3938 79.9111 75.3938C79.9124 75.3938 79.9137 75.3938 79.9149 75.3938C79.9162 75.3938 79.9174 75.3938 79.9187 75.3938C79.92 75.3938 79.9212 75.3938 79.9224 75.3938C79.9237 75.3938 79.9249 75.3938 79.9262 75.3938C79.9274 75.3938 79.9286 75.3938 79.9299 75.3938C79.9311 75.3938 79.9323 75.3938 79.9335 75.3938C79.9347 75.3938 79.936 75.3938 79.9372 75.3938C79.9384 75.3938 79.9396 75.3938 79.9408 75.3938C79.942 75.3938 79.9432 75.3938 79.9444 75.3938C79.9456 75.3938 79.9468 75.3938 79.9479 75.3938C79.9491 75.3938 79.9503 75.3938 79.9515 75.3938C79.9527 75.3938 79.9538 75.3938 79.955 75.3938C79.9562 75.3938 79.9573 75.3938 79.9585 75.3938C79.9596 75.3938 79.9608 75.3938 79.9619 75.3938C79.9631 75.3938 79.9642 75.3938 79.9654 75.3938C79.9665 75.3938 79.9676 75.3938 79.9688 75.3938C79.9699 75.3938 79.971 75.3938 79.9722 75.3938C79.9733 75.3938 79.9744 75.3938 79.9755 75.3938C79.9766 75.3938 79.9777 75.3938 79.9788 75.3938C79.9799 75.3938 79.981 75.3938 79.9821 75.3938C79.9832 75.3938 79.9843 75.3938 79.9854 75.3938C79.9865 75.3938 79.9876 75.3938 79.9887 75.3938C79.9897 75.3938 79.9908 75.3938 79.9919 75.3938C79.993 75.3938 79.994 75.3938 79.9951 75.3938C79.9962 75.3938 79.9972 75.3938 79.9983 75.3938C79.9993 75.3938 80.0004 75.3938 80.0014 75.3938C80.0025 75.3938 80.0035 75.3938 80.0045 75.3938C80.0056 75.3938 80.0066 75.3938 80.0076 75.3938C80.0086 75.3938 80.0097 75.3938 80.0107 75.3938C80.0117 75.3938 80.0127 75.3938 80.0137 75.3938C80.0147 75.3938 80.0157 75.3938 80.0167 75.3938C80.0177 75.3938 80.0187 75.3938 80.0197 75.3938C80.0207 75.3938 80.0217 75.3938 80.0227 75.3938C80.0237 75.3938 80.0247 75.3938 80.0256 75.3938C80.0266 75.3938 80.0276 75.3938 80.0285 75.3938C80.0295 75.3938 80.0305 75.3938 80.0314 75.3938C80.0324 75.3938 80.0333 75.3938 80.0343 75.3938C80.0352 75.3938 80.0362 75.3938 80.0371 75.3938C80.0381 75.3938 80.039 75.3938 80.0399 75.3938C80.0409 75.3938 80.0418 75.3938 80.0427 75.3938C80.0436 75.3938 80.0445 75.3938 80.0455 75.3938C80.0464 75.3938 80.0473 75.3938 80.0482 75.3938C80.0491 75.3938 80.05 75.3938 80.0509 75.3938C80.0518 75.3938 80.0527 75.3938 80.0536 75.3938C80.0545 75.3938 80.0553 75.3938 80.0562 75.3938C80.0571 75.3938 80.058 75.3938 80.0588 75.3938C80.0597 75.3938 80.0606 75.3938 80.0614 75.3938C80.0623 75.3938 80.0632 75.3938 80.064 75.3938C80.0649 75.3938 80.0657 75.3938 80.0666 75.3938C80.0674 75.3938 80.0682 75.3938 80.0691 75.3938C80.0699 75.3938 80.0707 75.3938 80.0716 75.3938C80.0724 75.3938 80.0732 75.3938 80.074 75.3938C80.0749 75.3938 80.0757 75.3938 80.0765 75.3938C80.0773 75.3938 80.0781 75.3938 80.0789 75.3938C80.0797 75.3938 80.0805 75.3938 80.0813 75.3938C80.0821 75.3938 80.0829 75.3938 80.0836 75.3938C80.0844 75.3938 80.0852 75.3938 80.086 75.3938C80.0868 75.3938 80.0875 75.3938 80.0883 75.3938C80.0891 75.3938 80.0898 75.3938 80.0906 75.3938C80.0913 75.3938 80.0921 75.3938 80.0928 75.3938C80.0936 75.3938 80.0943 75.3938 80.0951 75.3938C80.0958 75.3938 80.0965 75.3938 80.0973 75.3938C80.098 75.3938 80.0987 75.3938 80.0995 75.3938C80.1002 75.3938 80.1009 75.3938 80.1016 75.3938C80.1023 75.3938 80.103 75.3938 80.1037 75.3938C80.1044 75.3938 80.1051 75.3938 80.1058 75.3938C80.1065 75.3938 80.1072 75.3938 80.1079 75.3938C80.1086 75.3938 80.1093 75.3938 80.11 75.3938C80.1106 75.3938 80.1113 75.3938 80.112 75.3938C80.1127 75.3938 80.1133 75.3938 80.114 75.3938C80.1146 75.3938 80.1153 75.3938 80.116 75.3938C80.1166 75.3938 80.1173 75.3938 80.1179 75.3938C80.1185 75.3938 80.1192 75.3938 80.1198 75.3938C80.1205 75.3938 80.1211 75.3938 80.1217 75.3938C80.1223 75.3938 80.123 75.3938 80.1236 75.3938C80.1242 75.3938 80.1248 75.3938 80.1254 75.3938C80.126 75.3938 80.1266 75.3938 80.1272 75.3938C80.1278 75.3938 80.1284 75.3938 80.129 75.3938C80.1296 75.3938 80.1302 75.3938 80.1308 75.3938C80.1314 75.3938 80.1319 75.3938 80.1325 75.3938C80.1331 75.3938 80.1337 75.3938 80.1342 75.3938C80.1348 75.3938 80.1354 75.3938 80.1359 75.3938C80.1365 75.3938 80.137 75.3938 80.1376 75.3938C80.1381 75.3938 80.1387 75.3938 80.1392 75.3938C80.1397 75.3938 80.1403 75.3938 80.1408 75.3938C80.1413 75.3938 80.1419 75.3938 80.1424 75.3938C80.1429 75.3938 80.1434 75.3938 80.1439 75.3938C80.1445 75.3938 80.145 75.3938 80.1455 75.3938C80.146 75.3938 80.1465 75.3938 80.147 75.3938C80.1475 75.3938 80.148 75.3938 80.1484 75.3938C80.1489 75.3938 80.1494 75.3938 80.1499 75.3938C80.1504 75.3938 80.1508 75.3938 80.1513 75.3938C80.1518 75.3938 80.1522 75.3938 80.1527 75.3938C80.1532 75.3938 80.1536 75.3938 80.1541 75.3938C80.1545 75.3938 80.155 75.3938 80.1554 75.3938C80.1559 75.3938 80.1563 75.3938 80.1567 75.3938C80.1572 75.3938 80.1576 75.3938 80.158 75.3938C80.1585 75.3938 80.1589 75.3938 80.1593 75.3938C80.1597 75.3938 80.1601 75.3938 80.1605 75.3938C80.161 75.3938 80.1614 75.3938 80.1618 75.3938C80.1622 75.3938 80.1626 75.3938 80.1629 75.3938C80.1633 75.3938 80.1637 75.3938 80.1641 75.3938C80.1645 75.3938 80.1649 75.3938 80.1652 75.3938C80.1656 75.3938 80.166 75.3938 80.1664 75.3938C80.1667 75.3938 80.1671 75.3938 80.1674 75.3938C80.1678 75.3938 80.1681 75.3938 80.1685 75.3938C80.1688 75.3938 80.1692 75.3938 80.1695 75.3938C80.1699 75.3938 80.1702 75.3938 80.1705 75.3938C80.1709 75.3938 80.1712 75.3938 80.1715 75.3938C80.1718 75.3938 80.1721 75.3938 80.1725 75.3938C80.1728 75.3938 80.1731 75.3938 80.1734 75.3938C80.1737 75.3938 80.174 75.3938 80.1743 75.3938C80.1746 75.3938 80.1749 75.3938 80.1752 75.3938C80.1754 75.3938 80.1757 75.3938 80.176 75.3938C80.1763 75.3938 80.1766 75.3938 80.1768 75.3938C80.1771 75.3938 80.1774 75.3938 80.1776 75.3938C80.1779 75.3938 80.1781 75.3938 80.1784 75.3938C80.1787 75.3938 80.1789 75.3938 80.1791 75.3938C80.1794 75.3938 80.1796 75.3938 80.1799 75.3938C80.1801 75.3938 80.1803 75.3938 80.1806 75.3938C80.1808 75.3938 80.181 75.3938 80.1812 75.3938C80.1814 75.3938 80.1816 75.3938 80.1819 75.3938C80.1821 75.3938 80.1823 75.3938 80.1825 75.3938C80.1827 75.3938 80.1829 75.3938 80.1831 75.3938C80.1833 75.3938 80.1834 75.3938 80.1836 75.3938C80.1838 75.3938 80.184 75.3938 80.1842 75.3938C80.1843 75.3938 80.1845 75.3938 80.1847 75.3938C80.1848 75.3938 80.185 75.3938 80.1851 75.3938C80.1853 75.3938 80.1855 75.3938 80.1856 75.3938C80.1858 75.3938 80.1859 75.3938 80.186 75.3938C80.1862 75.3938 80.1863 75.3938 80.1864 75.3938C80.1866 75.3938 80.1867 75.3938 80.1868 75.3938C80.1869 75.3938 80.1871 75.3938 80.1872 75.3938C80.1873 75.3938 80.1874 75.3938 80.1875 75.3938C80.1876 75.3938 80.1877 75.3938 80.1878 75.3938C80.1879 75.3938 80.188 75.3938 80.1881 75.3938C80.1882 75.3938 80.1882 75.3938 80.1883 75.3938C80.1884 75.3938 80.1885 75.3938 80.1885 75.3938C80.1886 75.3938 80.1887 75.3938 80.1887 75.3938C80.1888 75.3938 80.1889 75.3938 80.1889 75.3938C80.189 75.3938 80.189 75.3938 80.1891 75.3938C80.1891 75.3938 80.1891 75.3938 80.1892 75.3938C80.1892 75.3938 80.1892 75.3938 80.1893 75.3938C80.1893 75.3938 80.1893 75.3938 80.1893 75.3938C80.1893 75.3938 80.1894 75.3938 80.1894 75.3938C80.1894 75.3938 80.1894 75.3938 80.1894 75.0938ZM134.375 62.7656L134.672 62.8094L134.694 62.6602L134.587 62.5535L134.375 62.7656ZM131.844 63.7969L132.134 63.8718L132.135 63.8696L131.844 63.7969ZM133.953 76.5L134.165 76.7121L134.253 76.6243V76.5H133.953ZM131 35.0625L130.772 34.8676L130.649 35.0112L130.726 35.1839L131 35.0625ZM136.484 30.7031L136.615 30.9731L136.619 30.9715L136.484 30.7031ZM153.266 32.3438L153.471 32.1246L153.465 32.12L153.266 32.3438ZM160.25 81.4688L160.544 81.4099L160.519 81.283L160.409 81.2144L160.25 81.4688ZM156.266 93.5625L156.063 93.3416L156.062 93.3418L156.266 93.5625ZM141.125 95.2969L141.275 95.0372L141.273 95.0359L141.125 95.2969ZM136.719 90.4219L136.996 90.3083L136.92 90.1219H136.719V90.4219ZM135.641 93.6094L135.378 93.754L135.382 93.7619L135.387 93.7696L135.641 93.6094ZM137.141 95.2031L137.294 95.4611L137.679 95.2323L137.321 94.9631L137.141 95.2031ZM118.812 94.125L118.671 94.3894L118.674 94.3909L118.812 94.125ZM110.609 85.8281L110.872 85.6834L110.872 85.6824L110.609 85.8281ZM113.797 51.6562L113.583 51.4456L113.583 51.4463L113.797 51.6562ZM141.781 47.1562L141.645 47.4235L141.839 47.5226L141.993 47.3684L141.781 47.1562ZM132.266 42.7031H131.966V43.0031H132.266V42.7031ZM134.587 62.5535C134.219 62.1854 133.768 61.9969 133.25 61.9969V62.5969C133.607 62.5969 133.906 62.7209 134.163 62.9778L134.587 62.5535ZM133.25 61.9969C132.824 61.9969 132.455 62.156 132.164 62.4667C131.881 62.7681 131.684 63.1976 131.553 63.7241L132.135 63.8696C132.253 63.3962 132.416 63.0756 132.602 62.8771C132.779 62.6878 132.989 62.5969 133.25 62.5969V61.9969ZM131.553 63.7219C131.292 64.7337 131.169 66.7566 131.169 69.75H131.769C131.769 66.7434 131.895 64.7976 132.134 63.8718L131.553 63.7219ZM131.169 69.75V74.5312H131.769V69.75H131.169ZM131.169 74.5312C131.169 75.3826 131.276 76.0523 131.544 76.4736L132.05 76.1514C131.881 75.8852 131.769 75.3674 131.769 74.5312H131.169ZM131.544 76.4736C131.831 76.9243 132.299 77.1281 132.875 77.1281V76.5281C132.451 76.5281 132.201 76.3882 132.05 76.1514L131.544 76.4736ZM132.875 77.1281C133.408 77.1281 133.864 77.0134 134.165 76.7121L133.741 76.2879C133.605 76.4241 133.342 76.5281 132.875 76.5281V77.1281ZM134.253 76.5V70.2188H133.653V76.5H134.253ZM134.253 70.2188C134.253 67.1634 134.394 64.6953 134.672 62.8094L134.078 62.7218C133.794 64.6485 133.653 67.1491 133.653 70.2188H134.253ZM131.228 35.2574C132.861 33.3468 134.657 31.9214 136.615 30.9731L136.354 30.4331C134.311 31.4224 132.451 32.9032 130.772 34.8676L131.228 35.2574ZM136.619 30.9715C138.564 29.9987 141.061 29.5031 144.125 29.5031V28.9031C141.002 28.9031 138.405 29.4076 136.35 30.4348L136.619 30.9715ZM144.125 29.5031C147.816 29.5031 150.787 30.532 153.066 32.5675L153.465 32.12C151.056 29.968 147.934 28.9031 144.125 28.9031V29.5031ZM153.061 32.5629C155.397 34.7471 156.575 37.6938 156.575 41.4375H157.175C157.175 37.5562 155.947 34.4404 153.471 32.1246L153.061 32.5629ZM156.575 41.4375V72.375H157.175V41.4375H156.575ZM156.575 72.375C156.575 77.0567 157.703 80.2306 160.091 81.7231L160.409 81.2144C158.297 79.8944 157.175 77.0058 157.175 72.375H156.575ZM159.956 81.5276C159.98 81.6505 159.997 81.9188 159.997 82.3594H160.597C160.597 81.925 160.582 81.5995 160.544 81.4099L159.956 81.5276ZM159.997 82.3594V83.2031H160.597V82.3594H159.997ZM159.997 83.2031C159.997 87.5762 158.675 90.9417 156.063 93.3416L156.469 93.7834C159.231 91.2458 160.597 87.705 160.597 83.2031H159.997ZM156.062 93.3418C153.748 95.4738 150.885 96.5437 147.453 96.5437V97.1438C151.022 97.1438 154.034 96.0262 156.469 93.7832L156.062 93.3418ZM147.453 96.5437C145.059 96.5437 143.003 96.0375 141.275 95.0372L140.975 95.5565C142.809 96.6187 144.973 97.1438 147.453 97.1438V96.5437ZM141.273 95.0359C139.233 93.8788 137.813 92.3034 136.996 90.3083L136.441 90.5355C137.312 92.6654 138.83 94.34 140.977 95.5578L141.273 95.0359ZM136.719 90.1219C136.143 90.1219 135.656 90.2614 135.314 90.5933C134.971 90.9269 134.825 91.4046 134.825 91.9688H135.425C135.425 91.5017 135.545 91.2059 135.732 91.0239C135.922 90.8402 136.232 90.7219 136.719 90.7219V90.1219ZM134.825 91.9688C134.825 92.5077 135.021 93.1058 135.378 93.754L135.903 93.4648C135.572 92.8629 135.425 92.3673 135.425 91.9688H134.825ZM135.387 93.7696C135.784 94.3975 136.31 94.9549 136.961 95.4431L137.321 94.9631C136.722 94.5138 136.248 94.0088 135.894 93.4492L135.387 93.7696ZM136.988 94.9451C135.204 96.003 132.872 96.5437 129.969 96.5437V97.1438C132.941 97.1438 135.39 96.5907 137.294 95.4611L136.988 94.9451ZM129.969 96.5437C126.048 96.5437 122.377 95.6489 118.951 93.8591L118.674 94.3909C122.186 96.2261 125.952 97.1438 129.969 97.1438V96.5437ZM118.954 93.8606C115.572 92.0464 112.878 89.3244 110.872 85.6834L110.347 85.9729C112.403 89.7069 115.178 92.5161 118.671 94.3894L118.954 93.8606ZM110.872 85.6824C108.558 81.5178 107.394 76.4613 107.394 70.5H106.794C106.794 76.5387 107.973 81.7009 110.347 85.9738L110.872 85.6824ZM107.394 70.5C107.394 62.5576 109.61 56.3593 114.011 51.8662L113.583 51.4463C109.046 56.0782 106.794 62.4424 106.794 70.5H107.394ZM114.01 51.8669C118.449 47.3669 124.104 45.1125 131 45.1125V44.5125C123.959 44.5125 118.145 46.8206 113.583 51.4456L114.01 51.8669ZM131 45.1125C135.087 45.1125 138.632 45.8864 141.645 47.4235L141.918 46.889C138.805 45.3011 135.163 44.5125 131 44.5125V45.1125ZM141.993 47.3684C142.376 46.9858 142.597 46.5543 142.597 46.0781H141.997C141.997 46.3519 141.874 46.6392 141.569 46.9441L141.993 47.3684ZM142.597 46.0781C142.597 45.474 142.235 44.9613 141.64 44.5337C141.045 44.1067 140.176 43.7318 139.054 43.3998L138.884 43.9752C139.98 44.2994 140.775 44.6512 141.29 45.021C141.804 45.3903 141.997 45.7447 141.997 46.0781H142.597ZM139.054 43.3998C136.808 42.7356 134.545 42.4031 132.266 42.4031V43.0031C134.486 43.0031 136.692 43.3269 138.884 43.9752L139.054 43.3998ZM132.566 42.7031C132.566 39.4938 132.142 36.9004 131.274 34.9411L130.726 35.1839C131.546 37.0371 131.966 39.5375 131.966 42.7031H132.566ZM188.42 53.8125H188.72V53.7054L188.652 53.6225L188.42 53.8125ZM191.795 81.4688L192.089 81.4099L192.064 81.283L191.954 81.2144L191.795 81.4688ZM188.092 93.5625L187.888 93.3423L187.886 93.3446L188.092 93.5625ZM169.295 93.5625L169.097 93.7876L169.097 93.7883L169.295 93.5625ZM164.561 50.9062L164.385 50.663L164.261 50.7529V50.9062H164.561ZM168.451 48.9844L168.59 49.2504L169.105 48.9818L168.588 48.7173L168.451 48.9844ZM164.795 45.4219L164.542 45.5829L164.543 45.585L164.795 45.4219ZM186.029 29.8594L185.816 30.0702L185.819 30.0728L186.029 29.8594ZM186.967 47.5781L187.197 47.7708L187.198 47.7693L186.967 47.5781ZM179.889 51.9375L179.826 51.6441L179.589 51.6948V51.9375H179.889ZM186.123 51.8438L186.307 51.6066L186.126 51.4661L185.942 51.6043L186.123 51.8438ZM188.12 53.8125V72.375H188.72V53.8125H188.12ZM188.12 72.375C188.12 77.0567 189.248 80.2306 191.636 81.7231L191.954 81.2144C189.842 79.8944 188.72 77.0058 188.72 72.375H188.12ZM191.501 81.5276C191.525 81.6505 191.542 81.9188 191.542 82.3594H192.142C192.142 81.925 192.127 81.5995 192.089 81.4099L191.501 81.5276ZM191.542 82.3594V83.2031H192.142V82.3594H191.542ZM191.542 83.2031C191.542 87.7436 190.308 91.1043 187.888 93.3423L188.296 93.7827C190.876 91.3957 192.142 87.8501 192.142 83.2031H191.542ZM187.886 93.3446C185.641 95.4684 182.627 96.5437 178.811 96.5437V97.1438C182.745 97.1438 185.918 96.0316 188.298 93.7804L187.886 93.3446ZM178.811 96.5437C175.027 96.5437 171.929 95.469 169.493 93.3367L169.097 93.7883C171.661 96.031 174.906 97.1438 178.811 97.1438V96.5437ZM169.493 93.3374C166.418 90.6278 164.861 86.6576 164.861 81.375H164.261C164.261 86.7799 165.859 90.9347 169.097 93.7876L169.493 93.3374ZM164.861 81.375V50.9062H164.261V81.375H164.861ZM164.736 51.1495C165.277 50.7587 165.863 50.443 166.496 50.2022L166.282 49.6415C165.602 49.9007 164.969 50.2413 164.385 50.663L164.736 51.1495ZM166.496 50.2022C167.164 49.9475 167.862 49.63 168.59 49.2504L168.312 48.7184C167.603 49.0888 166.926 49.3963 166.282 49.6415L166.496 50.2022ZM168.588 48.7173C167.304 48.0604 166.121 46.9163 165.047 45.2587L164.543 45.585C165.656 47.3025 166.911 48.5333 168.315 49.2514L168.588 48.7173ZM165.048 45.2608C163.989 43.5958 163.454 41.6531 163.454 39.4219H162.854C162.854 41.7531 163.414 43.8104 164.542 45.5829L165.048 45.2608ZM163.454 39.4219C163.454 35.5575 164.724 32.4195 167.253 29.9816L166.837 29.5496C164.179 32.1117 162.854 35.4113 162.854 39.4219H163.454ZM167.253 29.9816C169.789 27.5379 172.885 26.3156 176.561 26.3156V25.7156C172.736 25.7156 169.489 26.9933 166.837 29.5496L167.253 29.9816ZM176.561 26.3156C180.266 26.3156 183.344 27.5679 185.816 30.0702L186.243 29.6485C183.652 27.0259 180.418 25.7156 176.561 25.7156V26.3156ZM185.819 30.0728C188.32 32.5436 189.573 35.6523 189.573 39.4219H190.173C190.173 35.5039 188.864 32.2376 186.24 29.6459L185.819 30.0728ZM189.573 39.4219C189.573 42.4472 188.628 45.098 186.736 47.387L187.198 47.7693C189.181 45.3707 190.173 42.5841 190.173 39.4219H189.573ZM186.737 47.3855C184.84 49.65 182.538 51.0652 179.826 51.6441L179.951 52.2309C182.802 51.6223 185.219 50.1312 187.197 47.7708L186.737 47.3855ZM179.589 51.9375C179.589 52.5609 179.706 53.0834 179.99 53.4554C180.286 53.8428 180.724 54.0188 181.248 54.0188V53.4187C180.866 53.4187 180.625 53.2979 180.467 53.0914C180.298 52.8697 180.189 52.5016 180.189 51.9375H179.589ZM181.248 54.0188C182.924 54.0188 184.611 53.3606 186.304 52.0832L185.942 51.6043C184.322 52.8269 182.759 53.4187 181.248 53.4187V54.0188ZM185.939 52.0809C187.197 53.0558 187.933 53.6905 188.188 54.0025L188.652 53.6225C188.345 53.247 187.549 52.5692 186.307 51.6066L185.939 52.0809ZM201.59 89.9531L201.373 90.1605L201.375 90.1619L201.59 89.9531ZM202.574 49.7344L202.775 49.9577L202.775 49.9576L202.574 49.7344ZM237.027 48L236.847 48.2398L236.848 48.2406L237.027 48ZM239.887 70.3594L239.673 70.1486L239.673 70.1487L239.887 70.3594ZM222.777 71.4375L222.587 71.6697L222.591 71.6728L222.777 71.4375ZM219.121 64.875L219.418 64.8335L219.382 64.575H219.121V64.875ZM220.434 72.6562L220.63 72.4296L220.628 72.4274L220.434 72.6562ZM239.699 73.5469L239.951 73.3835L239.787 73.131L239.535 73.2958L239.699 73.5469ZM236.887 92.5781L237.078 92.8095L237.078 92.8093L236.887 92.5781ZM221.043 97.1531C212.985 97.1531 206.583 94.6763 201.805 89.7444L201.375 90.1619C206.284 95.23 212.852 97.7531 221.043 97.7531V97.1531ZM201.807 89.7458C197.059 84.7817 194.671 78.1276 194.671 69.75H194.071C194.071 78.2474 196.496 85.062 201.373 90.1605L201.807 89.7458ZM194.671 69.75C194.671 61.3837 197.379 54.7983 202.775 49.9577L202.374 49.5111C196.832 54.4829 194.071 61.2413 194.071 69.75H194.671ZM202.775 49.9576C207.588 45.6379 213.608 43.4719 220.856 43.4719V42.8719C213.478 42.8719 207.311 45.0808 202.374 49.5111L202.775 49.9576ZM220.856 43.4719C227.305 43.4719 232.628 45.0679 236.847 48.2398L237.208 47.7602C232.864 44.4946 227.406 42.8719 220.856 42.8719V43.4719ZM236.848 48.2406C241.051 51.3695 243.149 55.6227 243.149 61.0312H243.749C243.749 55.4398 241.567 51.0055 237.207 47.7594L236.848 48.2406ZM243.149 61.0312C243.149 64.7758 241.986 67.8059 239.673 70.1486L240.1 70.5701C242.538 68.1004 243.749 64.9117 243.749 61.0312H243.149ZM239.673 70.1487C237.395 72.4577 234.382 73.6219 230.606 73.6219V74.2219C234.516 74.2219 237.692 73.011 240.1 70.5701L239.673 70.1487ZM230.606 73.6219C227.536 73.6219 224.996 72.8097 222.964 71.2022L222.591 71.6728C224.747 73.3778 227.425 74.2219 230.606 74.2219V73.6219ZM222.967 71.2053C220.965 69.5666 219.783 67.4478 219.418 64.8335L218.824 64.9165C219.209 67.6772 220.465 69.9334 222.588 71.6697L222.967 71.2053ZM219.121 64.575C218.406 64.575 217.816 64.7034 217.398 65.0074C216.962 65.3243 216.759 65.7983 216.759 66.375H217.359C217.359 65.9517 217.499 65.6757 217.751 65.4926C218.02 65.2966 218.461 65.175 219.121 65.175V64.575ZM216.759 66.375C216.759 68.7688 217.944 70.9398 220.24 72.8851L220.628 72.4274C218.424 70.5602 217.359 68.5437 217.359 66.375H216.759ZM220.237 72.8829C222.892 75.1859 226.183 76.3313 230.09 76.3313V75.7312C226.309 75.7312 223.163 74.6266 220.63 72.4296L220.237 72.8829ZM230.09 76.3313C234.007 76.3313 237.272 75.494 239.864 73.7979L239.535 73.2958C237.065 74.9123 233.923 75.7312 230.09 75.7312V76.3313ZM239.448 73.7103C240.973 76.059 241.743 78.9214 241.743 82.3125H242.343C242.343 78.8286 241.551 75.8473 239.951 73.3835L239.448 73.7103ZM241.743 82.3125C241.743 86.2121 240.073 89.5528 236.696 92.347L237.078 92.8093C240.576 89.916 242.343 86.4129 242.343 82.3125H241.743ZM236.696 92.3468C232.826 95.5406 227.619 97.1531 221.043 97.1531V97.7531C227.717 97.7531 233.072 96.1156 237.078 92.8095L236.696 92.3468Z" fill="#068D9D"/>
<path d="M264.436 67.3359C264.436 67.3359 264.212 72.1464 266.574 74.8196C269.552 78.1893 273.984 79.096 277.265 79.096C284.652 79.096 289.186 73.3836 291.163 66.2668C293.925 56.3316 287.331 47.1216 277.265 44.8848C267.643 42.7466 261.229 44.333 254.814 51.2994C250.506 55.9776 249.227 59.9616 248.4 66.2668C247.279 74.8008 248.348 80.944 253.745 87.6488C259.968 95.3795 267.356 97.7935 277.265 98.3398C288.735 98.9721 296.978 95.8098 305.062 87.6488C309.799 82.866 313.615 72.6814 313.615 72.6814" stroke="#173753" stroke-width="4"/>
<circle cx="313.615" cy="69.474" r="4.41459" stroke="#7AE582" stroke-width="4"/>
<circle cx="264.436" cy="63.0595" r="4.41459" stroke="#7AE582" stroke-width="4"/>
</svg>
